<?xml version="1.0" encoding="UTF-8" standalone="no"?>
<svg
   xmlns:dc="http://purl.org/dc/elements/1.1/"
   xmlns:cc="http://creativecommons.org/ns#"
   xmlns:rdf="http://www.w3.org/1999/02/22-rdf-syntax-ns#"
   xmlns:svg="http://www.w3.org/2000/svg"
   xmlns="http://www.w3.org/2000/svg"
   viewBox="0 0 2666.6667 2666.6667"
   height="2666.6667"
   width="2666.6667"
   xml:space="preserve"
   id="svg2"
   version="1.1"><metadata
     id="metadata8"><rdf:RDF><cc:Work
         rdf:about=""><dc:format>image/svg+xml</dc:format><dc:type
           rdf:resource="http://purl.org/dc/dcmitype/StillImage" /></cc:Work></rdf:RDF></metadata><defs
     id="defs6" /><g
     transform="matrix(1.3333333,0,0,-1.3333333,0,2666.6667)"
     id="g10"><g
       transform="scale(0.1)"
       id="g12"><g
         transform="scale(1.22699)"
         id="g14"><path
           id="path16"
           style="fill:#ffffff;fill-opacity:1;fill-rule:nonzero;stroke:none"
           d="M 16300,0 H 0 V 16300 H 16300 V 0" /></g><g
         transform="scale(1.07476)"
         id="g18"><path
           id="path20"
           style="fill:#f8c881;fill-opacity:1;fill-rule:nonzero;stroke:none"
           d="m 15861.9,10708.7 c 266.3,-207.7 438.1,-548.7 396.3,-883.84 -16.8,-134.45 -82.7,-280.47 -212.3,-319.91 -94.6,-28.79 -197.6,8.13 -280.3,62.44 -82.6,54.3 -153.1,125.76 -237.2,177.9 -188.4,116.85 -430.1,128.03 -611.4,255.51 -154.4,108.6 -247.1,299.2 -237.5,487.6 36.1,701.9 803.5,515.8 1182.4,220.3" /></g><g
         transform="scale(1.02618)"
         id="g22"><path
           id="path24"
           style="fill:#f8c881;fill-opacity:1;fill-rule:nonzero;stroke:none"
           d="m 4361.27,14762.1 c -95.34,6.8 -182.76,28.2 -254.78,70.4 -111.89,65.5 -170.85,197.7 -182.75,326.8 -17.06,185.4 52.8,376.9 185.22,507.8 205.71,203.3 458.43,159.9 717.4,208.4 182.73,34.2 350.87,123.4 504.73,227.8 128.6,87.2 261.17,189.9 416.54,192.8 216.21,3.9 394.35,-204.5 413.85,-419.9 19.49,-215.3 -85.91,-424.8 -225.17,-590.3 -179.45,-213.1 -421.31,-247.2 -668.97,-337.7 -223.62,-81.7 -604.48,-207.4 -906.07,-186.1" /></g><path
         id="path26"
         style="fill:#f8c881;fill-opacity:1;fill-rule:nonzero;stroke:none"
         d="m 1802.49,6207.7 c -24.89,-82.5 -26.25,-190.5 47.91,-234.2 58.14,-34.3 132.85,-9.8 191.77,23.2 128.76,72 235.79,182.4 303.93,313.2 82.26,158 12.69,365.7 -188.91,326.3 -172.64,-33.7 -309.19,-277.8 -354.7,-428.5" /><g
         transform="scale(1.12035)"
         id="g28"><path
           id="path30"
           style="fill:#f8c881;fill-opacity:1;fill-rule:nonzero;stroke:none"
           d="m 2240.65,5532.82 c 237.32,319.1 528.24,596.16 757.9,920.88 727.31,1028.25 723.6,2517.74 -8.8,3542.36 -280.79,392.84 -659.94,728.64 -825.52,1182.24 -252.1,690.7 133.51,1547.7 817.58,1817.1 574.38,226.2 1238.69,63.6 1826.44,252.4 992.37,318.6 1424.22,1483.5 2259.57,2106.8 435.64,325.1 970.87,492 1507.32,579.6 1115.76,182.3 2374.16,-6.7 3149.46,-829.6 471.2,-500.3 709.3,-1170.4 935,-1819.6 288,-828.3 575.9,-1656.5 863.9,-2484.8 171.7,-494 355.8,-1007.87 734.1,-1369.04 340.4,-325.01 803.3,-491.41 1166.7,-790.56 491,-404.24 765.6,-1033.16 820.7,-1666.71 55,-633.55 -93.8,-1271.56 -336.3,-1859.42 -145.1,-351.94 -326.6,-693.71 -581.9,-976.21 C 14902,3668.05 14303.8,3393.85 13706,3183.56 11939.8,2562.06 10038.2,2393.18 8167.98,2483.69 6810.9,2549.38 5464.2,2748.6 4129.71,2997.37 3422.31,3129.2 2396.12,3118.4 2026.79,3853.8 1729,4446.73 1853.95,5012.72 2240.65,5532.82" /></g><g
         transform="scale(1.04562)"
         id="g32"><path
           id="path34"
           style="fill:#f8c881;fill-opacity:1;fill-rule:nonzero;stroke:none"
           d="m 6621.17,16236.8 c -66.57,50.1 -156.47,63.2 -238.02,46.1 -354.52,-74.2 -230.19,-572.3 121.43,-464.2 177.01,54.4 289.43,288 116.59,418.1" /></g><path
         id="path36"
         style="fill:#f58359;fill-opacity:1;fill-rule:nonzero;stroke:none"
         d="m 14569.6,7939.4 c -12.4,72.3 37.1,144.8 102.4,178 53.4,27.1 123.6,30.6 169.5,-7.9 21.5,-18.1 35.9,-43.9 43.4,-71 17.2,-62.3 -2.2,-133.3 -48.8,-178 -46.5,-44.8 -118.3,-61.3 -179.8,-41.3 -29,9.4 -56.4,27.3 -71.4,53.9 -15,26.5 -15.2,62.4 4.2,86 l -19.5,-19.7" /><g
         transform="scale(1.08653)"
         id="g38"><path
           id="path40"
           style="fill:#f58359;fill-opacity:1;fill-rule:nonzero;stroke:none"
           d="m 15475.1,8577.46 c 81.3,-9.02 163.7,-37.64 241.1,-89.18 354.6,-236.63 583.8,-678.03 500.7,-1105.45 -57.7,-296.44 -263.9,-414.52 -532.9,-261.1 -324.3,184.9 -579.5,488.07 -706.2,839.28 -134.5,372.55 170.9,652.62 497.3,616.45" /></g><g
         transform="scale(1.07764)"
         id="g42"><path
           id="path44"
           style="fill:#f58359;fill-opacity:1;fill-rule:nonzero;stroke:none"
           d="m 16108.7,6560 c 85,-23.67 145.7,-103.19 168.6,-188.38 22.7,-85.19 13.2,-175.57 -2.7,-262.24 -26.8,-145.6 -87.8,-324.32 -250.9,-363.3 -127.3,-30.34 -264.3,40.83 -305.3,163.98 -70,210.36 108.3,728.25 390.3,649.94" /></g><g
         transform="scale(1.03071)"
         id="g46"><path
           id="path48"
           style="fill:#f58359;fill-opacity:1;fill-rule:nonzero;stroke:none"
           d="m 16183.6,7338.66 c -63.4,84.22 -169.8,171.63 -281.7,150.97 -337.3,-62.39 -131.5,-528.38 131.1,-548.37 64.2,-4.85 133.4,9.9 178.8,55.5 88.2,88.48 47,241.97 -28.2,341.9" /></g><path
         id="path50"
         style="fill:#f58359;fill-opacity:1;fill-rule:nonzero;stroke:none"
         d="m 2860.25,13118.8 c 27.3,207.9 136.6,400.1 285.3,547.9 96.55,95.9 215.11,177.1 349.76,197.1 134.66,20 286.03,-33.4 352.37,-152.3 87.64,-157.1 4.71,-349.6 -62.21,-516.6 -72.14,-179.9 -125.06,-367.6 -157.59,-558.7 -11.96,-70.3 -23.83,-146.5 -74.77,-196.4 -143.86,-141 -430.58,-115.2 -543.57,40.1 -115.65,159 -173.95,451.1 -149.29,638.9" /><path
         id="path52"
         style="fill:#f58359;fill-opacity:1;fill-rule:nonzero;stroke:none"
         d="m 4719.53,14106.8 c -20.27,27.2 -49.49,46.5 -80.01,61.3 -146.41,71.3 -375.99,10.7 -428.27,-164.6 -74.79,-250.8 237.34,-350.5 409.95,-213 47.86,38.2 91.48,84.3 114.03,141.2 22.55,56.9 20.88,126 -15.7,175.1" /><path
         id="path54"
         style="fill:#f58359;fill-opacity:1;fill-rule:nonzero;stroke:none"
         d="m 4267.3,13317.9 c -8.58,11.5 -20.95,19.6 -33.87,25.9 -61.97,30.2 -159.15,4.5 -181.28,-69.7 -31.66,-106.2 100.47,-148.3 173.53,-90.1 20.26,16.1 38.72,35.7 48.27,59.8 9.55,24 8.84,53.3 -6.65,74.1" /><path
         id="path56"
         style="fill:#f8c881;fill-opacity:1;fill-rule:nonzero;stroke:none"
         d="m 2085.01,11492.6 c -0.22,2.8 -0.43,5.6 -0.63,8.4 -5.01,69.4 12,146.5 67.72,188.2 326.73,244.6 834.33,-528.9 727.12,-810.4 -26.76,-70.3 -97.07,-117.4 -170.69,-132.7 -408.16,-84.7 -597.62,423.6 -623.52,746.5" /><path
         id="path58"
         style="fill:#f8c881;fill-opacity:1;fill-rule:nonzero;stroke:none"
         d="m 2615.92,10437.6 c -151.6,-17.5 -277.69,-138.3 -333.89,-280.2 -21.77,-55 -34.79,-114.6 -27.81,-173.4 13.52,-113.7 105.82,-210.8 216.38,-240.7 110.56,-29.8 233.51,3.8 321.32,77.3 233.89,195.8 214.06,662.1 -176,617" /><g
         transform="scale(1.09735)"
         id="g60"><path
           id="path62"
           style="fill:#f8c881;fill-opacity:1;fill-rule:nonzero;stroke:none"
           d="m 15933.4,9161.4 c 7.4,36.31 25.9,71.68 56.6,92.38 55,37.02 130.3,17.41 188.1,-15.16 62.2,-35.12 121.9,-96.49 112.6,-167.4 -4.3,-32.63 -23.2,-62.24 -47.9,-84.02 -39.2,-34.54 -93.7,-51.12 -145.5,-44.2 -108.2,14.4 -186,110.45 -163.9,218.4" /></g><path
         id="path64"
         style="fill:#317388;fill-opacity:1;fill-rule:nonzero;stroke:none"
         d="m 6168.5,11490.8 c -107.96,192 -304.11,342.6 -523.91,356.4 -219.79,13.7 -450.25,-134.1 -494.34,-349.8 -40.61,194.2 -92.07,386.2 -154.06,574.7 -39.19,119.1 -95.08,250.2 -212.28,295 -89.12,34 -193.13,5.8 -269.01,-52 -75.88,-57.8 -127.87,-141.3 -170.74,-226.5 -151.02,-300.1 -207.92,-646.8 -160.79,-979.5 -64.29,152.4 -146.78,321.8 -305.02,369.7 -209.16,63.3 -421.1,-144.1 -448.18,-360.9 -27.08,-216.9 71.9,-427.5 168.65,-623.4 -104.8,57 -241.03,50.6 -340.08,-15.9 -99.05,-66.4 -156.54,-190.1 -143.51,-308.7 8.77,-79.9 46.59,-154 92.83,-219.7 C 3368.05,9722.8 3641,9579.3 3919,9576.4 l 645.19,-357.5 c 131.26,-77 295.48,-56.4 445.91,-33.4 139.11,21.2 281.39,43.5 405.18,110.5 105.56,57.1 191.88,143.6 272.93,232.1 155.33,169.6 298.43,352.6 403.58,557.1 121.73,236.8 190.57,500.2 203.41,766.1 10.62,220 -18.74,447.6 -126.7,639.5" /><g
         transform="scale(1.05001)"
         id="g66"><path
           id="path68"
           style="fill:#317388;fill-opacity:1;fill-rule:nonzero;stroke:none"
           d="m 16183.7,4447.21 c 116.3,194.09 39.6,469.81 -146,599.33 -185.5,129.53 -449.5,117.34 -640.3,-4.48 190.8,202.19 337.7,445.72 427.7,708.76 31.5,92.39 56.1,193.14 27.9,286.57 -32,105.62 -129.3,183.24 -236,211.43 -106.6,28.19 -220.8,12.57 -325.5,-22.28 -235.9,-78.48 -436.6,-256.86 -542.3,-481.91 83.9,336 167.7,672 251.5,1008.09 25.7,103.14 51.6,209.05 39.3,314.67 -12.2,105.61 -71,212.57 -169.9,251.61 -91.7,36.1 -199.3,6.29 -277.4,-53.71 -78.1,-60.09 -131.5,-146.28 -177.7,-233.33 -157.3,-296.19 -250.6,-626 -271.9,-960.57 -93.3,215.81 -194.2,431.81 -343.9,613.24 -149.8,181.33 -355,326.95 -587.8,360.76 l -1265.7,-872.57 c -250.2,-477.14 -464.2,-979.9 -554.5,-1511.04 -90.4,-531.14 -50.5,-1095.42 187.1,-1579.04 43.6,-88.76 96.3,-177.42 178.2,-232.76 85.6,-57.81 192.3,-72.28 294.9,-84.19 1216.2,-141.23 2451.5,-131.61 3662.2,50.96 89.7,13.52 188.8,30.09 266,80.57 88.3,57.81 113.7,150.38 100.1,250.19 -21.3,156.76 -150.4,258.28 -270.4,348.66 0,0 191.7,3.05 299.6,101.71 163.1,149.34 29.4,416.67 -138,504.86 -117.1,61.62 -256.8,69.52 -386.6,44.09 226.9,42.19 480.9,102.38 599.4,300.38" /></g><g
         transform="scale(1.06617)"
         id="g70"><path
           id="path72"
           style="fill:#ef2e4e;fill-opacity:1;fill-rule:nonzero;stroke:none"
           d="m 16048.2,12561.9 c -52.2,289 -135.3,577.2 -292.6,825.2 -197.1,310.7 -504.1,544.2 -794.2,762.6 l -258.4,-10.6 c -472.1,312.3 -1136.1,191 -1581.1,-158.7 -445.1,-349.6 -708.9,-880.1 -901.7,-1412.3 -396.2,-1093.3 -550.5,-2298.6 -270.2,-3427.17 83.4,-335.78 212.9,-675.31 466.9,-910.27 330.7,-306.05 830.9,-381.83 1267.8,-271.72 436.9,110.12 816.8,383.81 1136.3,701.58 1005.2,999.89 1479,2506.08 1227.2,3901.38" /></g><path
         id="path74"
         style="fill:#b42352;fill-opacity:1;fill-rule:nonzero;stroke:none"
         d="m 15511.4,14060.9 c -129.1,171.1 -163.4,430.7 -25.7,594.9 l -363.7,190.3 c -247.2,-139.2 -422.5,-376.2 -575.5,-615.1 -107.2,-167.6 -208.2,-341.6 -267,-531.7 -58.7,-190.1 -72.6,-399.1 -6.3,-586.6 39.4,-111.2 113.9,-218.4 225.3,-257.1 128,-44.5 270.1,12.2 380,91.6 231.6,167.3 380.6,430.9 614.9,594.5 158.8,111 352.9,170.5 546.6,167.7 -198.7,80.2 -399.6,180.4 -528.6,351.5" /><g
         transform="scale(1.03039)"
         id="g76"><path
           id="path78"
           style="fill:#b42352;fill-opacity:1;fill-rule:nonzero;stroke:none"
           d="m 15773.2,11916.8 c -600.8,-176.6 -1122.7,-552.4 -1600.8,-956.9 -216.2,-182.8 -428.1,-375.1 -590.1,-607.2 -162,-232.2 -271.8,-509.5 -261.7,-792.36 2.1,-59.2 9.8,-119.67 37,-172.27 39.8,-76.67 118,-128.3 201.2,-151.59 83.2,-23.2 171.4,-20.77 257.2,-10.97 365.1,42.12 702.5,214.77 1011.4,414.12 344.4,222.36 666.9,483.57 928.6,799.17 261.7,315.6 461.2,687.9 544,1089.4 l -526.8,388.6" /></g><path
         id="path80"
         style="fill:#509fa3;fill-opacity:1;fill-rule:nonzero;stroke:none"
         d="M 3923.14,6675.5 C 2511.28,4994.8 3228.6,3531.7 3254.7,3507.9 4206.15,2640.2 6839.23,4062 6839.23,4062 l 425.79,2456.6 c 0,0 -1930.02,1837.7 -3341.88,156.9" /><path
         id="path82"
         style="fill:#317388;fill-opacity:1;fill-rule:nonzero;stroke:none"
         d="m 4004.48,6767.7 c 6.36,-24.8 12.95,-49.4 19.53,-73.9 l 322.7,-424.2 c 120.48,-110.3 240.96,-220.6 361.43,-330.9 76.58,-70.1 154.35,-141.6 206.63,-231.3 52.29,-89.7 76.11,-202 37.83,-298.4 -162.32,-13.3 -324.64,-26.6 -486.96,-39.9 -99.4,-8.1 -199.94,-16.5 -294.56,-48 -183.24,-61.1 -326.62,-202.4 -462.98,-339.2 203.05,53.3 417.89,61.2 624.28,22.8 475.85,-88.4 874.41,-409.2 1331.96,-567 394.01,-135.9 821.57,-143.6 1230.48,-55 l 370.2,2135.9 c 0,0 -1857.1,1768.1 -3260.54,249.1" /><path
         id="path84"
         style="fill:#273754;fill-opacity:1;fill-rule:nonzero;stroke:none"
         d="m 5720.73,12577.7 h -37.88 c -100.31,0 -181.62,81.3 -181.62,181.6 v 1457.3 c 0,100.3 81.31,181.6 181.62,181.6 h 37.88 c 100.31,0 181.63,-81.3 181.63,-181.6 v -1457.3 c 0,-100.3 -81.32,-181.6 -181.63,-181.6" /><path
         id="path86"
         style="fill:#273754;fill-opacity:1;fill-rule:nonzero;stroke:none"
         d="m 5720.73,11334.9 h -37.88 c -100.31,0 -181.62,81.3 -181.62,181.6 v 547 c 0,100.3 81.31,181.7 181.62,181.7 h 37.88 c 100.31,0 181.63,-81.4 181.63,-181.7 v -547 c 0,-100.3 -81.32,-181.6 -181.63,-181.6" /><path
         id="path88"
         style="fill:#1a202b;fill-opacity:1;fill-rule:nonzero;stroke:none"
         d="m 6504.24,3293.1 c -16.34,0 -29.72,13.7 -29.84,30.4 l -77.75,11899.9 c -0.1,15 10.45,27.8 25.09,30.5 1288.53,234 2586.55,352.6 3857.96,352.6 1266.9,0 2544.1,-117.8 3796.2,-350.1 14.1,-2.6 24.3,-15.4 24.2,-30.4 l -77.8,-11902.5 c -0.1,-16.7 -13.5,-30.4 -29.8,-30.4 H 6504.24" /><g
         transform="scale(1.00584)"
         id="g90"><path
           id="path92"
           style="fill:#6ba4c6;fill-opacity:1;fill-rule:nonzero;stroke:none"
           d="m 13940.9,3304.21 c -0.1,-16.6 -13.4,-30.22 -29.6,-30.22 H 6466.49 c -16.25,0 -29.55,13.62 -29.67,30.22 L 6359.52,15135 c -0.09,15 10.4,27.7 24.95,30.4 438.56,79.6 878.22,145.8 1317.55,198.4 l 27.89,-176 c 19.5,-123.1 125.62,-213.7 250.25,-213.7 h 4414.04 c 126.1,0 233,92.7 250.9,217.6 l 25.2,177.7 c 443.4,-53 885.3,-120.1 1323.9,-201.5 14,-2.6 24.2,-15.3 24.1,-30.2 z m 167.4,12511.89 c -2548.9,472.9 -5159.16,483.9 -7835.55,-2.1 -322.49,-58.5 -556.98,-347.2 -554.78,-683.4 l 77.31,-11830.76 c 2.48,-378.79 302.27,-684.61 671.21,-684.61 h 7444.81 c 368.9,0 668.7,305.82 671.2,684.61 l 77.3,11833.36 c 2.2,335 -230.4,623.4 -551.5,682.9" /></g><path
         id="path94"
         style="fill:#273754;fill-opacity:1;fill-rule:nonzero;stroke:none"
         d="M 10964,15472.7 H 9532.77 c -91.18,0 -165.11,73.9 -165.11,165.1 v 34.4 c 0,91.2 73.93,165.1 165.11,165.1 H 10964 c 91.1,0 165.1,-73.9 165.1,-165.1 v -34.4 c 0,-91.2 -74,-165.1 -165.1,-165.1" /><path
         id="path96"
         style="fill:#273754;fill-opacity:1;fill-rule:nonzero;stroke:none"
         d="m 11780,15655 c 0,-100.7 -81.6,-182.3 -182.3,-182.3 -100.7,0 -182.4,81.6 -182.4,182.3 0,100.7 81.7,182.3 182.4,182.3 100.7,0 182.3,-81.6 182.3,-182.3" /><path
         id="path98"
         style="fill:#273754;fill-opacity:1;fill-rule:nonzero;stroke:none"
         d="m 9081.39,15655 c 0,-100.7 -81.63,-182.3 -182.33,-182.3 -100.7,0 -182.34,81.6 -182.34,182.3 0,100.7 81.64,182.3 182.34,182.3 100.7,0 182.33,-81.6 182.33,-182.3" /><path
         id="path100"
         style="fill:#ef2e4e;fill-opacity:1;fill-rule:nonzero;stroke:none"
         d="M 12713.2,3801.6 H 8046.02 c -123.01,0 -222.72,93.9 -222.72,209.6 v 756.2 c 0,112.2 94.01,204.5 213.2,209.4 1562.08,64.5 3124.1,64.5 4686.2,0 119.2,-4.9 213.2,-97.2 213.2,-209.4 v -756.2 c 0,-115.7 -99.7,-209.6 -222.7,-209.6" /><path
         id="path102"
         style="fill:#f5f8fd;fill-opacity:1;fill-rule:nonzero;stroke:none"
         d="m 8392.3,4544.4 c 22.19,12.4 47.52,18.7 75.96,18.7 48.39,0 89.55,-20.5 123.48,-61.4 l 94.3,85.3 c -25.44,32 -57.38,56.4 -95.8,73.4 -38.42,16.9 -81.57,25.4 -129.47,25.4 -54.89,0 -104.14,-11.6 -147.8,-34.8 -43.66,-23.2 -77.96,-55.5 -102.9,-96.9 -24.95,-41.4 -37.42,-88.3 -37.42,-140.7 0,-52.4 12.47,-99.3 37.42,-140.7 24.94,-41.4 59.24,-73.7 102.9,-96.9 43.66,-23.2 92.91,-34.8 147.8,-34.8 47.9,0 91.05,8.5 129.47,25.5 38.42,16.9 70.36,41.4 95.8,73.3 l -94.3,85.3 c -33.93,-40.9 -75.09,-61.4 -123.48,-61.4 -28.44,0 -53.77,6.3 -75.96,18.8 -22.2,12.4 -39.42,30 -51.64,52.7 -12.23,22.7 -18.33,48.8 -18.33,78.2 0,29.5 6.1,55.5 18.33,78.2 12.22,22.7 29.44,40.3 51.64,52.8" /><path
         id="path104"
         style="fill:#f5f8fd;fill-opacity:1;fill-rule:nonzero;stroke:none"
         d="m 9102.13,4478.5 h -202.06 v 196.8 h -148.19 v -523.8 h 148.19 v 204.3 h 202.06 v -204.3 h 148.18 v 523.8 h -148.18 v -196.8" /><path
         id="path106"
         style="fill:#f5f8fd;fill-opacity:1;fill-rule:nonzero;stroke:none"
         d="m 9501.76,4361.8 h 232.75 v 110.7 h -232.75 v 88.3 h 264.18 v 114.5 h -410.86 v -523.8 h 420.58 V 4266 h -273.9 v 95.8" /><path
         id="path108"
         style="fill:#f5f8fd;fill-opacity:1;fill-rule:nonzero;stroke:none"
         d="m 10050,4544.4 c 22.1,12.4 47.5,18.7 75.9,18.7 48.4,0 89.6,-20.5 123.5,-61.4 l 94.3,85.3 c -25.4,32 -57.4,56.4 -95.8,73.4 -38.4,16.9 -81.6,25.4 -129.5,25.4 -54.9,0 -104.1,-11.6 -147.77,-34.8 -43.67,-23.2 -77.96,-55.5 -102.91,-96.9 -24.95,-41.4 -37.42,-88.3 -37.42,-140.7 0,-52.4 12.47,-99.3 37.42,-140.7 24.95,-41.4 59.24,-73.7 102.91,-96.9 43.67,-23.2 92.87,-34.8 147.77,-34.8 47.9,0 91.1,8.5 129.5,25.5 38.4,16.9 70.4,41.4 95.8,73.3 l -94.3,85.3 c -33.9,-40.9 -75.1,-61.4 -123.5,-61.4 -28.4,0 -53.8,6.3 -75.9,18.8 -22.2,12.4 -39.5,30 -51.68,52.7 -12.23,22.7 -18.34,48.8 -18.34,78.2 0,29.5 6.11,55.5 18.34,78.2 12.18,22.7 29.48,40.3 51.68,52.8" /><path
         id="path110"
         style="fill:#f5f8fd;fill-opacity:1;fill-rule:nonzero;stroke:none"
         d="M 10922.2,4675.3 H 10759 l -202.8,-217.7 v 217.7 h -146.7 v -523.8 h 146.7 v 131 l 55.4,59.1 149.7,-190.1 h 172.1 l -225.3,291.8 214.1,232" /><path
         id="path112"
         style="fill:#f5f8fd;fill-opacity:1;fill-rule:nonzero;stroke:none"
         d="m 11340.5,4335.2 c -12.5,-22.7 -29.4,-40.3 -50.9,-52.7 -21.4,-12.5 -45.4,-18.8 -71.8,-18.8 -26.5,0 -50.4,6.3 -71.9,18.8 -21.4,12.4 -38.4,30 -50.8,52.7 -12.5,22.7 -18.8,48.8 -18.8,78.2 0,29.5 6.3,55.5 18.8,78.2 12.4,22.7 29.4,40.3 50.8,52.8 21.5,12.4 45.4,18.7 71.9,18.7 26.4,0 50.4,-6.3 71.8,-18.7 21.5,-12.5 38.4,-30.1 50.9,-52.8 12.5,-22.7 18.7,-48.7 18.7,-78.2 0,-29.4 -6.2,-55.5 -18.7,-78.2 z m 26.6,315.4 c -44.2,23.5 -93.9,35.2 -149.3,35.2 -55.4,0 -105.2,-11.7 -149.3,-35.2 -44.2,-23.4 -78.9,-55.8 -104,-97.2 -25.2,-41.5 -37.8,-88.1 -37.8,-140 0,-51.9 12.6,-98.5 37.8,-139.9 25.1,-41.5 59.8,-73.9 104,-97.3 44.1,-23.5 93.9,-35.2 149.3,-35.2 55.4,0 105.1,11.7 149.3,35.2 44.1,23.4 78.8,55.8 104,97.3 25.2,41.4 37.8,88 37.8,139.9 0,51.9 -12.6,98.5 -37.8,140 -25.2,41.4 -59.9,73.8 -104,97.2" /><path
         id="path114"
         style="fill:#f5f8fd;fill-opacity:1;fill-rule:nonzero;stroke:none"
         d="m 11928.7,4389.5 c 0,-83.9 -32.9,-125.8 -98.7,-125.8 -66.4,0 -99.6,41.9 -99.6,125.8 v 285.8 h -148.2 V 4385 c 0,-77.9 21.6,-138 64.8,-180.4 43.1,-42.4 103.6,-63.6 181.5,-63.6 77.8,0 138.3,21.2 181.4,63.6 43.2,42.4 64.8,102.5 64.8,180.4 v 290.3 h -146 v -285.8" /><path
         id="path116"
         style="fill:#f5f8fd;fill-opacity:1;fill-rule:nonzero;stroke:none"
         d="m 12117.3,4675.3 v -117.4 h 160.9 v -406.4 h 148.2 v 406.4 h 160.2 v 117.4 h -469.3" /><path
         id="path118"
         style="fill:#509fa3;fill-opacity:1;fill-rule:nonzero;stroke:none"
         d="m 9720.35,12078.4 -1116.79,-436.5 c -100.09,-39.2 -212.95,10.3 -252.08,110.4 l -743.06,1901 c -39.13,100.1 10.3,213 110.39,252.1 l 1116.79,436.5 c 100.09,39.1 212.95,-10.3 252.08,-110.4 l 743.07,-1901 c 39.12,-100.1 -10.31,-213 -110.4,-252.1" /><path
         id="path120"
         style="fill:#e2f0f4;fill-opacity:1;fill-rule:nonzero;stroke:none"
         d="m 8837.97,14342.8 -1121.53,-438.4 -15.1,38.7 c -35.2,90 9.27,191.5 99.3,226.7 l 795.49,311 c 90.03,35.2 191.55,-9.3 226.75,-99.3 l 15.09,-38.7" /><path
         id="path122"
         style="fill:#e2f0f4;fill-opacity:1;fill-rule:nonzero;stroke:none"
         d="m 8601.19,11640.9 1121.53,438.4 15.11,-38.6 c 35.19,-90.1 -9.27,-191.6 -99.3,-226.8 L 8843.04,11503 c -90.04,-35.2 -191.56,9.3 -226.75,99.3 l -15.1,38.6" /><path
         id="path124"
         style="fill:#317388;fill-opacity:1;fill-rule:nonzero;stroke:none"
         d="m 7967.97,13933.6 c 10.82,29.8 25.15,58.7 42.41,85.7 l -290.69,-113.6 c -100.58,-39.3 -150.25,-152.7 -110.93,-253.3 l 742.38,-1899.3 c 39.31,-100.5 152.72,-150.2 253.3,-110.9 l 392.15,153.3 c -170.14,62.9 -316.14,182.4 -431.94,322.5 -121.76,147.4 -212.81,317.4 -296.48,489.3 -142.58,292.9 -267.24,598.4 -318.04,920.2 -21.37,135.3 -28.88,277.3 17.84,406.1" /><path
         id="path126"
         style="fill:#95c3b9;fill-opacity:1;fill-rule:nonzero;stroke:none"
         d="m 8033.61,14183.7 c 2.63,32.6 14.98,64 34.1,90.5 l -228.44,-89.3 c -111.37,-43.5 -166.36,-169.1 -122.83,-280.5 v 0 l 364.8,142.6 c -33.16,36.9 -51.63,87.2 -47.63,136.7" /><path
         id="path128"
         style="fill:#95c3b9;fill-opacity:1;fill-rule:nonzero;stroke:none"
         d="m 9048.05,11815.6 -446.86,-174.7 v 0 c 43.53,-111.3 169.11,-166.3 280.48,-122.8 l 300.41,117.4 c -28.08,30.4 -55.88,61.1 -83.16,92.2 -21.27,24.3 -43.02,50.2 -49.82,81.8 -0.44,2 -0.78,4 -1.05,6.1" /><path
         id="path130"
         style="fill:#e2f0f4;fill-opacity:1;fill-rule:nonzero;stroke:none"
         d="m 9161.96,13087.1 -797.35,-311.7 c -56.13,-21.9 -119.41,5.8 -141.35,61.9 l -116.05,296.9 c -21.94,56.1 5.78,119.4 61.91,141.3 l 797.34,311.7 c 56.13,22 119.42,-5.8 141.36,-61.9 l 116.04,-296.9 c 21.94,-56.1 -5.77,-119.4 -61.9,-141.3" /><path
         id="path132"
         style="fill:#e2f0f4;fill-opacity:1;fill-rule:nonzero;stroke:none"
         d="m 8952.76,12810.4 c -4.27,10.3 -18.28,17.5 -28.89,11.9 -125.07,-65.7 -255.49,-120.8 -389.82,-164.7 -27,-8.8 -9.95,-49.5 16.98,-40.7 134.34,43.8 264.76,98.9 389.82,164.6 10.56,5.6 16.78,17.2 11.91,28.9" /><path
         id="path134"
         style="fill:#e2f0f4;fill-opacity:1;fill-rule:nonzero;stroke:none"
         d="m 9141.36,12897 c -8.1,9.7 -20.67,11 -30.97,4.1 -17.71,-11.8 -35.43,-23.7 -53.15,-35.5 -4.43,-3 -7.68,-9.2 -8.42,-14.4 -0.78,-5.4 0.75,-12.3 4.34,-16.6 8.1,-9.6 20.68,-10.9 30.97,-4.1 17.72,11.9 35.44,23.7 53.16,35.6 4.42,2.9 7.67,9.2 8.41,14.3 0.78,5.5 -0.75,12.4 -4.34,16.6" /><path
         id="path136"
         style="fill:#e2f0f4;fill-opacity:1;fill-rule:nonzero;stroke:none"
         d="m 9038.06,12705.8 c -4.24,10.2 -18.3,17.5 -28.89,11.9 -103.21,-55.2 -210.43,-102.4 -320.78,-141.4 -26.79,-9.4 -9.8,-50.2 16.99,-40.8 110.34,39 217.56,86.3 320.78,141.4 10.51,5.6 16.79,17.1 11.9,28.9" /><path
         id="path138"
         style="fill:#ec4327;fill-opacity:1;fill-rule:nonzero;stroke:none"
         d="m 11690.4,12218.8 c 79.6,-376.2 171.9,-749.7 276.6,-1119.8 l -253.4,3.6 c -3.3,-9.9 -6.5,-19.9 -9.7,-29.9 -128.3,358.9 -258.1,725.1 -269.3,1106.1 85.2,13.3 170.5,26.7 255.8,40" /><path
         id="path140"
         style="fill:#ec4327;fill-opacity:1;fill-rule:nonzero;stroke:none"
         d="m 10686.9,12012.5 c 87.6,78.5 182.5,148.8 283.3,209.5 235.9,-312.1 437.8,-650.1 600.8,-1005.9 l -215.5,-150.9 c -148.6,360.3 -378.9,686.6 -668.6,947.3" /><path
         id="path142"
         style="fill:#ec4327;fill-opacity:1;fill-rule:nonzero;stroke:none"
         d="m 11801.4,12153.3 c 95.8,68.2 198.2,127.3 305.1,176.2 199.2,-336.8 361.6,-695.4 483.3,-1067.3 l -231.1,-125.6 c -107,374.7 -299,724.9 -557.3,1016.7" /><path
         id="path144"
         style="fill:#ec4327;fill-opacity:1;fill-rule:nonzero;stroke:none"
         d="m 10505.3,11450.2 c -1.3,17 10.9,31.8 22.4,44.5 45.7,50.3 91.4,100.7 137.1,151 257.2,-231.2 527.8,-447.6 809.9,-647.6 l -191.5,-264.5 c -18,-0.2 -33.9,11 -48.3,21.8 -259.1,194.6 -497.8,416.4 -710.7,660.6 -8.7,10 -17.8,21 -18.9,34.2" /><path
         id="path146"
         style="fill:#ec4327;fill-opacity:1;fill-rule:nonzero;stroke:none"
         d="m 10748.4,11897 c -5.7,19.2 -10.7,42.2 2.1,57.7 10.1,12.2 27.5,14.7 43,18 53,11.3 101.6,42.2 134.3,85.5 187.9,-361.7 277.5,-780.6 541.4,-1091.3 l -246.1,-100 c 7.1,-18.1 14.3,-36.2 21.5,-54.3 -259.7,305.1 -382.9,700.2 -496.2,1084.4" /><path
         id="path148"
         style="fill:#ec4327;fill-opacity:1;fill-rule:nonzero;stroke:none"
         d="m 12242.2,12521.3 c -1.8,19.9 -2.3,43.4 13.3,56.1 12.3,10 29.8,9.2 45.6,9.4 54.2,0.9 107.9,21.9 148.3,58 114.6,-391.2 121.5,-819.5 320.4,-1175.4 l -260.7,-50.5 c 3.5,-19.1 7,-38.3 10.5,-57.4 -195.8,349.4 -240.3,760.9 -277.4,1159.8" /><path
         id="path150"
         style="fill:#f9b13d;fill-opacity:1;fill-rule:nonzero;stroke:none"
         d="m 10718.6,11859.4 c 259.4,-283.9 509.3,-576.5 749,-877.1 l 144.7,208.1 c 10,-3.2 20,-6.4 29.9,-9.6 -216.9,313.3 -439,632.2 -742.1,863.2 -60.5,-61.5 -121,-123.1 -181.5,-184.6" /><path
         id="path152"
         style="fill:#f9b13d;fill-opacity:1;fill-rule:nonzero;stroke:none"
         d="m 10478.9,11458.4 c 306.7,-231.9 605.7,-474.1 896.2,-726 l 104.4,230.9 c 10.4,-1.3 20.7,-2.6 31.1,-4 -270.3,268.6 -546.8,541.7 -886.9,713.7 -48.3,-71.5 -96.6,-143.1 -144.8,-214.6" /><path
         id="path154"
         style="fill:#f9b13d;fill-opacity:1;fill-rule:nonzero;stroke:none"
         d="m 11403.9,12380.7 c -114.9,-25.4 -227.3,-61.6 -335.3,-108.1 116.2,-373.7 273.4,-734.6 467.6,-1074.4 l 248.2,87.3 c -206.3,330.7 -337.3,707.9 -380.5,1095.2" /><path
         id="path156"
         style="fill:#f9b13d;fill-opacity:1;fill-rule:nonzero;stroke:none"
         d="m 11790.8,12363.8 c -15.7,6.6 -33.6,-0.3 -49.2,-7.3 -62.2,-27.5 -124.4,-55 -186.6,-82.5 138.5,-316.9 258.8,-641.8 359.8,-972.6 l 311.3,98.5 c 5.9,17 0.3,35.6 -5.5,52.7 -103.1,307.2 -238.5,603.5 -403.3,882.6 -6.7,11.4 -14.3,23.4 -26.5,28.6" /><path
         id="path158"
         style="fill:#f9b13d;fill-opacity:1;fill-rule:nonzero;stroke:none"
         d="m 12625.6,12431.6 c -11.6,12.6 -30.7,13.6 -47.8,13.8 -68.1,0.6 -136.1,1.2 -204,1.8 -4.6,-345.9 -29.2,-691.4 -73.7,-1034.4 l 324.2,-38.8 c 12.4,13.1 14.9,32.4 16.8,50.3 32.8,322.4 31.8,648.2 -3.2,970.4 -1.4,13.1 -3.3,27.2 -12.3,36.9" /><path
         id="path160"
         style="fill:#f9b13d;fill-opacity:1;fill-rule:nonzero;stroke:none"
         d="m 11996.3,12680 c -12.4,15.8 -28.1,33.3 -48.1,31.9 -15.9,-1.2 -28,-13.8 -39.7,-24.5 -40.1,-36.5 -93.6,-58 -147.8,-59.3 184.6,-363.5 472.9,-680.3 571.7,-1075.8 l 224.6,141.9 c 10.6,-16.4 21.1,-32.8 31.7,-49.2 -96.8,388.8 -346.2,719.1 -592.4,1035" /><path
         id="path162"
         style="fill:#f8c881;fill-opacity:1;fill-rule:nonzero;stroke:none"
         d="m 13272.9,10409.7 c -515.5,-392.6 -1030.2,-660.4 -1544.2,-793.1 -320.3,354.5 -570.6,718.7 -715.3,1097.7 504.9,457.2 1090.1,757.8 1755.8,901.8 214.5,-343.1 376.5,-752.7 503.7,-1206.4" /><path
         id="path164"
         style="fill:#f58359;fill-opacity:1;fill-rule:nonzero;stroke:none"
         d="m 11529.8,11032 c -101.2,-34.4 -199.2,-77.9 -292.7,-129.6 -76.2,-59.5 -150.8,-122.1 -223.7,-188.1 144.7,-379 395,-743.2 715.3,-1097.7 154.4,39.8 308.8,92 463.3,155.9 -125.2,13.2 -241.2,81.7 -342.2,159.3 -67.7,52.1 -132.3,109.5 -182.3,178.7 -126.5,175.1 -144.8,422.2 -45.4,614 92.5,178.2 267.4,295.6 406,440.8 -69.9,-17.5 -139.9,-35 -209.8,-52.5 -96.9,-24.3 -194,-48.6 -288.5,-80.8" /><path
         id="path166"
         style="fill:#f8c881;fill-opacity:1;fill-rule:nonzero;stroke:none"
         d="m 12792.4,11512.4 c -579,-236.2 -1133.1,-520.8 -1662.4,-853.8 -80.9,-51 -188,-22.1 -231.7,63 l -27.9,54.1 c -38.8,75.7 -12.8,168.6 59.7,213.1 572.9,351.3 1143.3,644.7 1711,880 78.2,32.4 168.1,-0.9 206.7,-76.1 l 28.4,-55.2 c 43.7,-85.1 4.7,-189 -83.8,-225.1" /><path
         id="path168"
         style="fill:#f58359;fill-opacity:1;fill-rule:nonzero;stroke:none"
         d="m 12089.8,11195.8 c -122.7,-9.1 -243.6,-47.8 -359.3,-92.1 -150.6,-57.7 -298.9,-125.9 -457.7,-154 -58.3,-10.4 -133.3,-6.8 -157.5,47.4 -12.7,28.4 -5.8,61.8 5,91 2.5,6.7 5.2,13.4 8,19.9 -66,-39 -132.1,-78.7 -198.2,-119.2 -72.5,-44.5 -98.5,-137.4 -59.7,-213.1 l 27.9,-54.1 c 43.7,-85.1 150.8,-114 231.7,-63 311.3,195.8 631.3,374.8 959.8,537.2" /><path
         id="path170"
         style="fill:#f5f8fd;fill-opacity:1;fill-rule:nonzero;stroke:none"
         d="m 12583.8,5689 c -509.7,-48 -1001.9,32.2 -1477,236.4 l 116,2232 1971.5,-315.4 -610.5,-2153" /><path
         id="path172"
         style="fill:#95c3b9;fill-opacity:1;fill-rule:nonzero;stroke:none"
         d="m 11222.8,8157.4 -116,-2232 c 200.9,-86.4 404.9,-150.4 612,-192.1 -77.8,551.6 -39.9,1119.6 113.3,1655.4 44.9,157.3 101.9,315.9 209.2,439.5 63.1,72.7 147.2,131.1 238.4,160.1 l -1056.9,169.1" /><path
         id="path174"
         style="fill:#509ea3;fill-opacity:1;fill-rule:nonzero;stroke:none"
         d="m 13227.1,8244.2 -148.8,23.8 0.7,4 c 17.2,107.5 -56,208.6 -163.5,225.8 l -1235,197.6 c -107.5,17.2 -208.6,-56 -225.8,-163.5 l -0.6,-4 -148.8,23.8 c -92.7,14.8 -179.9,-48.3 -194.7,-141 l -36.7,-229.5 2257.5,-361.2 36.7,229.5 c 14.8,92.7 -48.3,179.9 -141,194.7" /><path
         id="path176"
         style="fill:#509ea3;fill-opacity:1;fill-rule:nonzero;stroke:none"
         d="m 11139.5,6554.2 c 541.4,-157.4 1081.1,-244.7 1618.7,-250.3 l 276.4,974.6 c -582.4,181.1 -1198,278.5 -1841.6,305.6 l -53.5,-1029.9" /><path
         id="path178"
         style="fill:#317388;fill-opacity:1;fill-rule:nonzero;stroke:none"
         d="m 11875.9,7526.8 c -223.9,28.5 -451.6,47.5 -682.9,57.3 l -27.8,-533.7 -25.7,-496.2 c 181,-52.6 361.8,-97.2 542.4,-133.7 10.3,327.3 60.2,653.3 150.2,968.2 13.2,46.2 27.5,92.6 43.8,138.1" /><path
         id="path180"
         style="fill:#317388;fill-opacity:1;fill-rule:nonzero;stroke:none"
         d="m 12050.7,8636.1 -370.2,59.3 c -107.5,17.2 -208.6,-56 -225.8,-163.5 l -0.6,-4 -148.8,23.8 c -92.7,14.8 -179.9,-48.3 -194.7,-141 l -36.7,-229.5 989.5,-158.3 c -83.7,192 -89.1,418.1 -12.7,613.2" /><path
         id="path182"
         style="fill:#f5f8fd;fill-opacity:1;fill-rule:nonzero;stroke:none"
         d="m 11812.6,6928.5 c 11.6,70.4 66.7,128.1 131.1,158.8 64.4,30.8 137.4,38.3 208.8,40 40.6,1 85.3,-1.3 115.1,-28.9 20.9,-19.4 30.7,-48.2 33.7,-76.5 9.2,-90 -42.5,-175.1 -103.1,-242.2 -21.8,-24.1 -45.9,-47.6 -76,-60 -131.8,-54.3 -335.1,53.3 -309.6,208.8" /><path
         id="path184"
         style="fill:#f8c881;fill-opacity:1;fill-rule:nonzero;stroke:none"
         d="m 10320.5,9759.1 c 156.7,-31.3 234.8,-209.2 152.4,-346.2 -416.4,-693.4 -874.7,-1378.2 -1545.71,-1819.9 -50.24,-33.1 -103.24,-65.3 -162.62,-74.9 -61,-9.8 -123.03,5.3 -182.52,21.9 -311.05,87.1 -615.51,225.7 -843.94,454.1 -195.69,195.6 -382.52,528.4 -330.4,817.4 41.72,231.4 378.43,410.4 568.83,526.4 501.76,305.7 1087.03,472.5 1674.26,481.6 224.49,3.4 449.5,-16.4 669.7,-60.4" /><path
         id="path186"
         style="fill:#b42352;fill-opacity:1;fill-rule:nonzero;stroke:none"
         d="m 8304.89,9259.5 c 25.34,14.4 52.19,27.4 81.11,31.1 46.16,5.8 94.76,-14.7 122.74,-51.9 27.97,-37.2 34.25,-89.5 15.84,-132.3 -15.36,-35.6 -45.56,-62.8 -77.66,-84.7 -35.34,-24 -74.08,-43 -114.7,-56.3 -74.02,-24.2 -187.11,-13 -191.1,85.6 -3.74,92.4 92.91,168.2 163.77,208.5" /><path
         id="path188"
         style="fill:#b42352;fill-opacity:1;fill-rule:nonzero;stroke:none"
         d="m 8758.26,8581.5 c 6.31,61.5 42.85,115.4 82.3,163 41.07,49.5 87.8,96.2 145.73,124.1 57.94,28 128.95,34.7 186,5 46.27,-24.1 79.03,-70.2 92.99,-120.4 13.96,-50.3 10.33,-104.4 -3.77,-154.6 -11.34,-40.4 -30.2,-80.1 -61.89,-107.7 -22.43,-19.5 -50.08,-31.9 -77.91,-42.4 -118.88,-44.8 -383.68,-64.1 -363.45,133" /><path
         id="path190"
         style="fill:#b42352;fill-opacity:1;fill-rule:nonzero;stroke:none"
         d="m 9206.5,9580.1 c 33.84,-2.5 68.26,-8.9 97.26,-26.5 29,-17.6 51.85,-48 53.15,-81.9 1.42,-36.9 -22.35,-70.7 -51.29,-93.6 -59.28,-47.1 -140.42,-59.1 -215.38,-48.8 -81.79,11.1 -186.67,74.2 -124.82,166.9 48.73,73 160.12,89.7 241.08,83.9" /><path
         id="path192"
         style="fill:#b42352;fill-opacity:1;fill-rule:nonzero;stroke:none"
         d="m 10056.7,9376.8 c -47.3,-43 -175.83,-86.4 -226,-27.3 -38.38,45.2 -12.41,147.7 25.51,187.5 108.6,114.2 343.29,-30.4 200.49,-160.2" /><path
         id="path194"
         style="fill:#273754;fill-opacity:1;fill-rule:nonzero;stroke:none"
         d="m 8359.77,8737 c -14.6,8.2 -37.87,3.8 -45.27,-12.7 -12.91,-28.7 -25.83,-57.4 -38.74,-86 -7.37,-16.4 -3.88,-36 12.74,-45.3 14.6,-8.2 37.86,-3.7 45.27,12.7 12.91,28.7 25.83,57.4 38.74,86.1 7.37,16.3 3.88,35.9 -12.74,45.2" /><path
         id="path196"
         style="fill:#273754;fill-opacity:1;fill-rule:nonzero;stroke:none"
         d="m 8903.9,9154.5 c -17.81,12.8 -35.61,25.7 -53.42,38.6 -14.16,10.2 -37.8,2 -45.27,-12.8 -8.92,-17.6 -2.37,-34.3 12.73,-45.2 17.82,-12.9 35.62,-25.8 53.43,-38.6 14.16,-10.3 37.8,-2.1 45.27,12.7 8.92,17.6 2.37,34.4 -12.74,45.3" /><path
         id="path198"
         style="fill:#273754;fill-opacity:1;fill-rule:nonzero;stroke:none"
         d="m 9527.98,8922.2 c -8.28,-28.7 -16.55,-57.4 -24.83,-86.1 -11.88,-41.2 52.6,-57.6 64.43,-16.5 8.28,28.7 16.56,57.4 24.83,86.1 11.88,41.2 -52.6,57.6 -64.43,16.5" /><path
         id="path200"
         style="fill:#273754;fill-opacity:1;fill-rule:nonzero;stroke:none"
         d="m 9683.88,9607.1 c -16.14,4.1 -37.65,-6.1 -40.48,-24 -4.19,-26.4 -8.37,-52.8 -12.56,-79.2 -2.81,-17.7 5.41,-35.7 23.95,-40.4 16.15,-4.2 37.66,6.1 40.48,23.9 4.19,26.4 8.38,52.8 12.57,79.2 2.8,17.7 -5.41,35.7 -23.96,40.5" /><path
         id="path202"
         style="fill:#f58359;fill-opacity:1;fill-rule:nonzero;stroke:none"
         d="m 10127,9219.9 c -235.78,-269.3 -422.85,-581.4 -683.11,-827.1 -87.3,-82.4 -184.09,-157.7 -296.1,-200.9 -160.21,-61.8 -339.78,-53.2 -507.48,-16.2 -131.91,29 -261.49,75.6 -372.93,151.9 -284.39,194.8 -407.72,545.4 -510.37,875.8 -160.37,-104.9 -321.3,-236.6 -349.3,-391.9 -52.12,-289 134.71,-621.8 330.4,-817.4 228.43,-228.4 532.89,-367 843.94,-454.1 59.5,-16.6 121.52,-31.7 182.52,-21.9 59.38,9.6 112.38,41.8 162.62,74.9 671.01,441.7 1129.31,1126.5 1545.71,1819.9 51.2,85.2 40.4,186.1 -12.8,257.9 -67.9,-167.1 -210.4,-310.8 -333.1,-450.9" /><path
         id="path204"
         style="fill:#f8c881;fill-opacity:1;fill-rule:nonzero;stroke:none"
         d="m 7262.29,9138.7 c 201.33,117.6 360.53,61.4 436.74,-146.6 108.29,-295.4 207.61,-631.9 468.06,-832.5 160.47,-123.6 400.29,-148.9 586.66,-216 196.69,-70.9 413.31,-199.7 372.84,-439.4 -10.77,-63.8 -44.62,-122 -87.1,-170.8 -117.89,-135.5 -301.4,-202.5 -480.95,-205.8 -179.56,-3.2 -355.87,51.6 -518.61,127.6 -498.26,232.6 -1377.11,1126.4 -959.84,1721.1 40.6,57.8 106.82,118.3 182.2,162.4" /><path
         id="path206"
         style="fill:#f58359;fill-opacity:1;fill-rule:nonzero;stroke:none"
         d="m 9039.53,7776.7 c -0.7,-5.8 -1.42,-11.5 -2.43,-17.4 -10.96,-63.8 -45.33,-121.9 -88.49,-170.8 C 8828.87,7453 8642.5,7386 8460.19,7382.6 c -182.32,-3.3 -361.35,51.5 -526.57,127.5 -282.95,130 -686.67,466.9 -913.43,842.5 160.58,-470.2 679.07,-938.3 1019.74,-1097.4 162.74,-76 339.06,-130.8 518.61,-127.6 179.55,3.3 363.06,70.3 480.95,205.8 42.48,48.8 76.33,107 87.1,170.8 19.25,114 -19.75,202.9 -87.06,272.5" /><path
         id="path208"
         style="fill:#ef2e4e;fill-opacity:1;fill-rule:nonzero;stroke:none"
         d="m 8304.17,9299.6 c 25.34,14.4 52.2,27.4 81.11,31.1 46.16,5.9 94.76,-14.7 122.74,-51.9 27.98,-37.1 34.25,-89.5 15.84,-132.3 -15.35,-35.6 -45.55,-62.8 -77.66,-84.6 -35.34,-24.1 -74.08,-43.1 -114.7,-56.4 -74.01,-24.2 -187.11,-13 -191.1,85.6 -3.73,92.4 92.91,168.2 163.77,208.5" /><path
         id="path210"
         style="fill:#ef2e4e;fill-opacity:1;fill-rule:nonzero;stroke:none"
         d="m 8757.54,8621.7 c 6.31,61.4 42.86,115.4 82.3,162.9 41.07,49.5 87.8,96.2 145.74,124.2 57.94,27.9 128.94,34.7 185.99,4.9 46.27,-24.1 79.04,-70.1 93,-120.4 13.96,-50.3 10.32,-104.3 -3.77,-154.6 -11.35,-40.4 -30.2,-80.1 -61.9,-107.7 -22.43,-19.5 -50.08,-31.9 -77.9,-42.4 -118.89,-44.7 -383.69,-64.1 -363.46,133.1" /><path
         id="path212"
         style="fill:#ef2e4e;fill-opacity:1;fill-rule:nonzero;stroke:none"
         d="m 9205.79,9620.2 c 33.83,-2.4 68.25,-8.9 97.25,-26.5 29,-17.6 51.85,-48 53.15,-81.9 1.43,-36.9 -22.35,-70.7 -51.29,-93.6 -59.28,-47 -140.42,-59 -215.38,-48.8 -81.79,11.2 -186.67,74.2 -124.81,166.9 48.73,73 160.11,89.8 241.08,83.9" /><path
         id="path214"
         style="fill:#ef2e4e;fill-opacity:1;fill-rule:nonzero;stroke:none"
         d="m 10055.9,9416.9 c -47.2,-42.9 -175.75,-86.4 -225.92,-27.3 -38.38,45.3 -12.41,147.7 25.52,187.5 108.59,114.2 343.3,-30.3 200.4,-160.2" /><path
         id="path216"
         style="fill:#317388;fill-opacity:1;fill-rule:nonzero;stroke:none"
         d="m 8359.06,8777.2 c -14.61,8.2 -37.87,3.7 -45.28,-12.8 -12.91,-28.6 -25.83,-57.3 -38.74,-86 -7.37,-16.4 -3.88,-36 12.74,-45.3 14.6,-8.2 37.86,-3.7 45.27,12.8 12.92,28.6 25.83,57.3 38.75,86 7.37,16.4 3.88,35.9 -12.74,45.3" /><path
         id="path218"
         style="fill:#317388;fill-opacity:1;fill-rule:nonzero;stroke:none"
         d="m 8903.18,9194.6 c -17.8,12.9 -35.61,25.7 -53.42,38.6 -14.15,10.2 -37.8,2 -45.27,-12.7 -8.91,-17.7 -2.37,-34.4 12.74,-45.3 17.81,-12.9 35.61,-25.7 53.42,-38.6 14.16,-10.2 37.81,-2 45.28,12.7 8.91,17.7 2.37,34.4 -12.75,45.3" /><path
         id="path220"
         style="fill:#317388;fill-opacity:1;fill-rule:nonzero;stroke:none"
         d="m 9527.26,8962.4 c -8.28,-28.8 -16.55,-57.5 -24.83,-86.2 -11.87,-41.2 52.6,-57.6 64.44,-16.5 8.27,28.7 16.55,57.4 24.82,86.1 11.88,41.2 -52.59,57.6 -64.43,16.6" /><path
         id="path222"
         style="fill:#317388;fill-opacity:1;fill-rule:nonzero;stroke:none"
         d="m 9683.16,9647.2 c -16.14,4.1 -37.65,-6.1 -40.47,-23.9 -4.19,-26.4 -8.38,-52.8 -12.56,-79.2 -2.82,-17.8 5.4,-35.8 23.95,-40.5 16.14,-4.1 37.65,6.1 40.48,23.9 4.19,26.4 8.37,52.8 12.56,79.2 2.81,17.7 -5.41,35.8 -23.96,40.5" /><path
         id="path224"
         style="fill:#f5f8fd;fill-opacity:1;fill-rule:nonzero;stroke:none"
         d="m 10590.4,7627.7 c -9.6,9.6 -25.3,16.8 -39.1,16.2 -14.2,-0.6 -29.1,-5.3 -39,-16.2 -9.9,-10.8 -16.2,-24.1 -16.2,-39 V 7564 c 0,-14.2 6.2,-29.1 16.2,-39.1 9.6,-9.6 25.3,-16.8 39,-16.2 14.3,0.7 29.1,5.4 39.1,16.2 9.9,10.8 16.1,24.1 16.1,39.1 v 24.7 c 0,14.1 -6.1,29 -16.1,39" /><path
         id="path226"
         style="fill:#f5f8fd;fill-opacity:1;fill-rule:nonzero;stroke:none"
         d="m 8025.25,10612.5 c -71.06,0 -71.17,-110.4 0,-110.4 71.06,0 71.18,110.4 0,110.4" /><path
         id="path228"
         style="fill:#f5f8fd;fill-opacity:1;fill-rule:nonzero;stroke:none"
         d="m 8290.97,10547.8 c -2.23,6.9 -6.04,12.8 -11.42,17.8 -5,5.4 -10.93,9.2 -17.77,11.4 -6.58,3.5 -13.67,5.1 -21.27,4.8 -14.28,-0.7 -29.09,-5.4 -39.05,-16.2 -9.91,-10.8 -16.17,-24.1 -16.17,-39 v -15.4 c -0.29,-7.6 1.3,-14.7 4.76,-21.3 2.23,-6.8 6.03,-12.7 11.41,-17.7 5,-5.4 10.93,-9.2 17.77,-11.5 6.58,-3.4 13.68,-5 21.28,-4.7 14.28,0.6 29.08,5.3 39.04,16.2 9.92,10.7 16.17,24 16.17,39 v 15.4 c 0.29,7.6 -1.3,14.7 -4.75,21.2" /><path
         id="path230"
         style="fill:#f5f8fd;fill-opacity:1;fill-rule:nonzero;stroke:none"
         d="m 11569.2,13918 c -2.2,6.9 -6,12.8 -11.4,17.8 -10.5,9.7 -24.3,16.8 -39,16.2 -14.7,-0.7 -28.5,-5.6 -39.1,-16.2 -5.1,-5.1 -10.2,-10.2 -15.3,-15.4 -5.4,-5 -9.2,-10.9 -11.5,-17.7 -3.4,-6.6 -5,-13.7 -4.7,-21.3 -0.3,-7.6 1.3,-14.7 4.7,-21.3 2.3,-6.8 6.1,-12.7 11.5,-17.7 10.5,-9.7 24.3,-16.9 39,-16.2 14.7,0.6 28.5,5.6 39.1,16.2 l 15.3,15.3 c 5.4,5 9.2,11 11.4,17.8 3.5,6.6 5.1,13.7 4.8,21.3 0.3,7.6 -1.3,14.7 -4.8,21.2" /><path
         id="path232"
         style="fill:#f5f8fd;fill-opacity:1;fill-rule:nonzero;stroke:none"
         d="m 12726.7,9291.6 c -71.1,0 -71.2,-110.4 0,-110.4 71,0 71.1,110.4 0,110.4" /><path
         id="path234"
         style="fill:#f5f8fd;fill-opacity:1;fill-rule:nonzero;stroke:none"
         d="m 7796.84,6125.1 c -2.23,6.8 -6.03,12.8 -11.42,17.8 -5,5.3 -10.92,9.2 -17.77,11.4 -6.58,3.4 -13.67,5 -21.27,4.7 -14.28,-0.6 -29.09,-5.3 -39.04,-16.1 -9.92,-10.8 -16.17,-24.1 -16.17,-39.1 v -16.1 c -0.29,-7.6 1.3,-14.7 4.75,-21.2 2.23,-6.9 6.03,-12.8 11.42,-17.8 5,-5.4 10.92,-9.2 17.77,-11.4 6.57,-3.5 13.67,-5.1 21.27,-4.8 14.28,0.7 29.09,5.3 39.04,16.2 9.92,10.8 16.18,24.1 16.18,39 v 16.1 c 0.28,7.6 -1.3,14.7 -4.76,21.3" /><path
         id="path236"
         style="fill:#f5f8fd;fill-opacity:1;fill-rule:nonzero;stroke:none"
         d="m 7166.13,14419.6 c -9.58,9.6 -25.29,16.8 -39.04,16.2 -14.28,-0.7 -29.09,-5.4 -39.04,-16.2 -9.92,-10.8 -16.17,-24.1 -16.17,-39 v -21.3 c 0,-14.1 6.15,-29 16.17,-39 9.57,-9.6 25.28,-16.8 39.04,-16.2 14.28,0.7 29.09,5.4 39.04,16.2 9.91,10.8 16.17,24.1 16.17,39 v 21.3 c 0,14.1 -6.16,29 -16.17,39" /><path
         id="path238"
         style="fill:#f5f8fd;fill-opacity:1;fill-rule:nonzero;stroke:none"
         d="m 13384.5,5866.8 c -10.6,9.6 -24.4,16.8 -39.1,16.1 -14.6,-0.6 -28.5,-5.6 -39,-16.1 -7.1,-7.1 -14.2,-14.2 -21.3,-21.3 -10,-10 -16.1,-24.8 -16.1,-39 0,-13.6 6,-29.7 16.1,-39 10.6,-9.7 24.4,-16.9 39.1,-16.2 14.6,0.6 28.5,5.6 39,16.2 7.1,7 14.2,14.1 21.3,21.2 10,10 16.1,24.9 16.1,39 0,13.6 -6,29.7 -16.1,39.1" /><path
         id="path240"
         style="fill:#b42352;fill-opacity:1;fill-rule:nonzero;stroke:none"
         d="m 15535.9,14916 c -38,117.1 -147.9,217.9 -270.8,210.8 -137.2,-7.9 -232.4,-135.2 -307.6,-250.3 -120.7,-184.8 -251.9,-366.4 -362.2,-557.6 -64.5,-111.7 -136.9,-261.3 -105.1,-394.2 96.8,-405.5 618.8,-81 762.5,103.8 121,155.8 212.1,334.7 267,524.1 34.3,118.2 54.2,246.3 16.2,363.4" /><path
         id="path242"
         style="fill:#f8c881;fill-opacity:1;fill-rule:nonzero;stroke:none"
         d="M 15678.5,2533.1 H 13863 c -115.5,0 -209.2,93.7 -209.2,209.3 v 1755.5 c 0,115.6 93.7,209.3 209.2,209.3 h 1815.5 c 115.6,0 209.3,-93.7 209.3,-209.3 V 2742.4 c 0,-115.6 -93.7,-209.3 -209.3,-209.3" /><path
         id="path244"
         style="fill:#f58359;fill-opacity:1;fill-rule:nonzero;stroke:none"
         d="m 14863.6,2921.9 c -502.6,248.7 -891.7,738.7 -969.1,1294.1 -23,164.4 -18.2,336.7 40.3,491.2 h -49.9 c -127.7,0 -231.1,-103.5 -231.1,-231.1 V 2764.2 c 0,-127.6 103.4,-231.1 231.1,-231.1 h 1771.8 c 110.5,0 202.8,77.6 225.6,181.3 -351.3,-13.6 -704.2,51.8 -1018.7,207.5" /><path
         id="path246"
         style="fill:#f58359;fill-opacity:1;fill-rule:nonzero;stroke:none"
         d="m 15809.5,4649.1 c -11.9,10.6 -25,20 -39,27.9 l -1000.3,-609.3 c -344.4,190.5 -817.3,454.1 -1037.9,581.7 -11.3,-10 -21.5,-20.9 -30.7,-32.9 241.4,-140.8 774.7,-436.7 1047.1,-587.3 v -887.4 l -995.3,-567.5 c 14.2,-9.9 29.6,-18.1 45.9,-24.7 l 971.9,554.2 1013.7,-531.8 c 13.3,8.9 25.6,19.2 36.8,30.5 l -1028.8,539.9 v 887.4 l 1016.6,619.3" /><path
         id="path248"
         style="fill:#b44d36;fill-opacity:1;fill-rule:nonzero;stroke:none"
         d="m 15821.5,2602.6 -226.3,118.8 c -40.7,3.5 -81.2,8.1 -121.6,13.9 l 311.2,-163.3 c 0.3,0.2 0.6,0.4 0.9,0.6 6.1,4.1 12.1,8.5 17.7,13.2 1.1,0.9 2.1,1.9 3.2,2.8 4.5,3.9 8.9,8 13.2,12.2 0.6,0.6 1.1,1.2 1.7,1.8" /><path
         id="path250"
         style="fill:#b44d36;fill-opacity:1;fill-rule:nonzero;stroke:none"
         d="m 13888.2,4509.5 c 1.8,15.8 3.9,31.5 6.5,47.1 -62.4,35.3 -117.6,66.9 -162.4,92.8 v 0 c -5.6,-5 -11,-10.2 -16.1,-15.7 v 0 c -5.1,-5.5 -10,-11.2 -14.6,-17.1 0,-0.1 0,-0.1 0,-0.1 50.9,-29.7 114.9,-66.3 186.6,-107" /><path
         id="path252"
         style="fill:#b44d36;fill-opacity:1;fill-rule:nonzero;stroke:none"
         d="m 14619.4,3068.1 -866,-493.8 c 2.3,-1.7 4.8,-3.2 7.2,-4.8 2.8,-1.7 5.5,-3.4 8.3,-5 4.4,-2.5 8.8,-4.9 13.3,-7.1 2.3,-1.2 4.6,-2.3 6.9,-3.3 3.4,-1.6 6.8,-3.1 10.2,-4.5 l 860.4,490.7 c -13.5,9.1 -27,18.4 -40.3,27.8" /><path
         id="path254"
         style="fill:#e86065;fill-opacity:1;fill-rule:nonzero;stroke:none"
         d="m 7027.78,7193.7 c -2.96,114.7 -66.63,238.6 -178.04,266.2 -64.45,15.9 -133.37,-3.1 -190.88,-36.3 C 6600.68,7390 6550.92,7342 6515.31,7285 l 75.08,-400.7 c 11.41,-30.7 52.4,-35.4 84.94,-32.4 135.69,12.4 277.41,80.3 329.6,206.1 17.69,42.7 24.04,89.5 22.85,135.7" /><path
         id="path256"
         style="fill:#2e1515;fill-opacity:1;fill-rule:nonzero;stroke:none"
         d="m 6791.85,7270.9 c -96.38,-31 -170.4,-108.1 -194.86,-206.7 -11.97,-48.3 62.56,-68.9 74.54,-20.6 17.88,72.2 69.72,129.9 140.86,152.7 47.17,15.2 27,89.9 -20.54,74.6" /><path
         id="path258"
         style="fill:#f2a46f;fill-opacity:1;fill-rule:nonzero;stroke:none"
         d="m 6601.51,6193.7 c -27.23,-107.2 -65.22,-212.9 -129.98,-300.7 -126.74,-171.6 -330.62,-198.5 -530.34,-198.4 -383.03,0.1 -794.11,63.6 -1072.36,326.8 -34.53,32.7 -115.15,139.3 -157.11,161.7 -36.59,19.5 -81.3,-0.5 -117.22,-11.4 -204.13,-61.8 -589.49,-15.5 -661.47,229.4 -42.42,144.4 57.33,344.8 189.88,411.4 128.25,64.4 281.61,10.3 414.4,-44.2 -118.01,365.9 -235.8,759.6 -125.4,1127.8 94.34,314.7 352.38,566.6 656.16,691.8 219.65,90.4 467.91,119.4 697.81,59.6 722.42,-188.2 925.29,-1154.6 919.82,-1794.1 -1.47,-172.3 -18.71,-344.4 -52.08,-513.4 -9.48,-48 -19.67,-97.3 -32.11,-146.3" /><path
         id="path260"
         style="fill:#2e1515;fill-opacity:1;fill-rule:nonzero;stroke:none"
         d="m 5455.02,7628.8 c -78.03,51 -180.01,31.2 -250.45,-22.9 -81.33,-62.6 -120,-159.3 -155.7,-252.1 -10.69,-27.8 11.73,-46 35.26,-46.4 8.36,-7 19.7,-10.1 32.82,-5.5 105.97,36.9 208.16,83.7 303.79,142.6 34.89,21.5 84.44,45.6 88.09,92.2 3.04,38.7 -22.89,71.9 -53.81,92.1" /><path
         id="path262"
         style="fill:#2e1515;fill-opacity:1;fill-rule:nonzero;stroke:none"
         d="m 6352.28,7870.4 c -33.69,29.8 -76.54,52.8 -122.81,51.4 -98.22,-2.9 -142.8,-99.9 -144.4,-185.7 -0.52,-28.3 24.23,-40.4 45.87,-36.5 6.15,-2.2 13.05,-3.2 20.71,-2.2 41.09,5.5 82.18,11 123.28,16.6 36.07,4.8 80.96,4.8 114.78,18.1 17.83,7.1 26.09,18.6 28.38,37.3 4.8,39.2 -39.19,77.3 -65.81,101" /><path
         id="path264"
         style="fill:#2e1515;fill-opacity:1;fill-rule:nonzero;stroke:none"
         d="m 5588.28,7044.8 c -16.06,47.9 -50.89,96.9 -108.45,77.9 -16.24,-5.3 -24.31,-17.8 -26.16,-31.1 -4.05,-4.4 -7,-9.6 -8.2,-15.3 -10.56,-50.1 -3.52,-102.2 25.17,-145.4 24.1,-36.3 76.38,-78.3 117.92,-39.1 36.82,34.7 13.15,112.9 -0.28,153" /><path
         id="path266"
         style="fill:#2e1515;fill-opacity:1;fill-rule:nonzero;stroke:none"
         d="m 6402.27,7247.4 c -3.05,60.7 -34.18,126.5 -87.49,126 -69.07,-0.6 -69.88,-95.6 -56.37,-142.9 13.34,-46.7 69.97,-122.3 121.21,-68.1 17.16,18.2 24.36,50.8 22.65,85" /><path
         id="path268"
         style="fill:#2e1515;fill-opacity:1;fill-rule:nonzero;stroke:none"
         d="m 6170.6,6823.6 c -100.65,165.9 -165.33,347.8 -193.15,539.9 -7.11,49 -81.6,28.2 -74.54,-20.6 28.72,-198.2 97.1,-387.1 200.95,-558.4 25.76,-42.4 92.63,-3.6 66.74,39.1" /><path
         id="path270"
         style="fill:#e86065;fill-opacity:1;fill-rule:nonzero;stroke:none"
         d="m 6390.26,5809.2 c -159.3,3.5 -318.37,17.2 -475.91,41 -282.75,42.8 -574.84,126.1 -775.72,329.7 -256.99,260.3 -308.7,654.2 -346.84,1018 150.19,172.2 139.9,461 -22.15,622.1 134.09,-23.8 277.61,-37.3 401.78,18.6 124.17,55.9 216.36,203.6 166.71,330.4 137.26,-133.6 338.29,-198.7 527.82,-170.7 175.42,25.9 337.15,130.9 433.89,279.3 -133.7,176.7 -308.53,311.2 -533.96,369.9 -229.9,59.8 -478.16,30.8 -697.81,-59.6 -303.78,-125.2 -561.82,-377.1 -656.16,-691.8 -110.41,-368.2 7.39,-761.9 125.4,-1127.8 -132.79,54.5 -286.14,108.6 -414.4,44.2 -132.55,-66.6 -232.3,-267 -189.88,-411.4 71.98,-244.9 457.34,-291.2 661.47,-229.4 35.92,10.9 80.63,30.9 117.22,11.4 41.96,-22.4 122.58,-129 157.11,-161.7 278.25,-263.2 689.33,-326.7 1072.36,-326.8 161.25,-0.1 325.18,17.5 449.07,114.6" /><path
         id="path272"
         style="fill:#581519;fill-opacity:1;fill-rule:nonzero;stroke:none"
         d="m 6591.36,10078.9 c -59.02,74.6 -128.17,142.3 -210.31,190.2 -124.89,72.8 -272.26,95.6 -416.35,107.1 -148.2,11.8 -301.16,12.4 -440.78,-38.7 -139.62,-51 -264.63,-162.7 -296.17,-308 11.3,52.1 -533.88,121.9 -585.79,124 -1053.81,42.8 -1855.57,-939.9 -1814.91,-1950.9 3.32,-82.5 12.54,-749 135.46,-736.4 -29.82,-3 -59.39,-12.9 -84.51,-28.7 -28.65,-18 -54.71,-45.1 -58.59,-78.7 -5.61,-48.6 35.98,-89.6 78.14,-114.4 28.35,-16.7 58.24,-29.8 89.1,-40.3 -88.67,-39.9 -145.43,-143.7 -120.03,-245.1 2.48,-9.9 6.08,-20.3 14.13,-26.6 9.74,-7.6 23.28,-7.3 35.63,-6.7 124.73,6.3 249.46,12.6 374.2,18.9 20.96,-154 132.26,-284.6 266.39,-363.2 111.84,-65.5 238.5,-99.5 366.57,-122.7 -6.95,135.7 83.71,295.7 199.37,353.8 116.83,58.7 254.49,19 378.46,-29.7 22.3,-41.6 79.03,-61.5 125.13,-46.8 51.45,16.5 87.14,66.5 98.27,119.4 11.13,52.9 1.16,108 -15.14,159.5 -25.94,82 -68.01,158.8 -123.09,224.9 139.01,64.9 231.83,209.4 254.32,361.2 22.49,151.7 -19.39,308.3 -95.62,441.4 138.29,-47 281.15,-93.9 426.95,-84.8 76.72,4.8 155.53,27.1 211.32,80 55.79,52.9 82.09,141.2 47.52,209.9 178.21,-158.9 450.1,-154.8 680.08,-90.8 72.97,20.3 147.74,48.9 211.02,90.4 52.12,-73.3 97.66,-153 137.16,-237.2 71.1,65.3 137.91,134.8 191.06,215.1 85.94,129.8 132.16,281.7 165.79,433.7 107.08,483.9 82.91,1031.7 -224.78,1420.2" /><path
         id="path274"
         style="fill:#317388;fill-opacity:1;fill-rule:nonzero;stroke:none"
         d="m 5354.6,6611.2 c -258.77,60.3 -507.98,152.3 -743.43,275.5 -44.04,23 -83.16,-43.7 -39.02,-66.8 241.18,-126.1 496.8,-221.5 761.9,-283.2 48.4,-11.3 69.06,63.2 20.55,74.5" /><path
         id="path276"
         style="fill:#f5f8fd;fill-opacity:1;fill-rule:nonzero;stroke:none"
         d="m 6633.62,6340 c 33.37,169 50.61,341.1 52.08,513.4 0.24,28.1 0.06,56.9 -0.54,86.2 -89.61,50.8 -197.89,63.2 -300.66,51.9 -108.64,-11.9 -212.9,-48.4 -315.63,-85.7 -236.77,-86 -471.38,-177.9 -703.56,-275.6 -46.1,-19.4 -69.8,-70.2 -56.57,-118.5 65.42,-238.6 60.88,-496 -12.51,-732.3 204.74,-64.6 429.3,-84.8 644.96,-84.8 199.72,-0.1 403.6,26.8 530.34,198.4 64.76,87.8 102.75,193.5 129.98,300.7 12.44,49 22.63,98.3 32.11,146.3" /><path
         id="path278"
         style="fill:#95c3b9;fill-opacity:1;fill-rule:nonzero;stroke:none"
         d="m 5973.65,5694.8 c 8.87,0.2 17.74,0.4 26.59,0.6 1.36,0.1 2.72,0.1 4.08,0.2 8.51,0.3 17.02,0.7 25.51,1.1 0.93,0 1.87,0.1 2.81,0.1 9.04,0.5 18.07,1.1 27.07,1.8 1.51,0.1 3.01,0.3 4.51,0.4 18.56,1.5 37.01,3.5 55.29,6 1.02,0.1 2.05,0.2 3.08,0.4 9.1,1.2 18.17,2.7 27.17,4.2 0.87,0.2 1.72,0.3 2.58,0.5 18.39,3.2 36.56,7.1 54.42,11.8 0.92,0.2 1.82,0.4 2.73,0.7 18.19,4.7 36.06,10.3 53.54,16.7 0.32,0.1 0.65,0.2 0.96,0.4 8.67,3.2 17.23,6.6 25.69,10.3 0.62,0.2 1.24,0.5 1.86,0.8 16.91,7.3 33.4,15.6 49.39,25 0.62,0.3 1.23,0.7 1.84,1 7.99,4.7 15.86,9.7 23.58,14.9 0.22,0.2 0.43,0.3 0.64,0.5 7.89,5.3 15.65,11 23.24,16.9 0.01,0 0.02,0.1 0.03,0.1 -159.3,3.5 -318.37,17.2 -475.91,41 -195.85,29.7 -396.17,78.8 -567.57,173.8 -9.05,-82.9 -25.81,-165 -50.55,-244.6 0.01,0 0.01,0 0.02,0 12.32,-3.9 24.74,-7.6 37.21,-11.2 3.12,-0.9 6.28,-1.7 9.42,-2.6 9.2,-2.5 18.41,-5.1 27.67,-7.5 4.3,-1.1 8.62,-2.2 12.94,-3.2 8.17,-2.1 16.35,-4.1 24.57,-6 4.73,-1.1 9.49,-2.2 14.24,-3.3 7.88,-1.8 15.78,-3.5 23.69,-5.2 4.9,-1 9.82,-2 14.73,-3 7.9,-1.6 15.81,-3.1 23.74,-4.6 4.86,-0.9 9.72,-1.8 14.59,-2.7 8.22,-1.5 16.46,-2.9 24.7,-4.3 4.57,-0.7 9.12,-1.5 13.69,-2.2 9.08,-1.5 18.19,-2.8 27.3,-4.1 3.74,-0.6 7.48,-1.2 11.23,-1.7 25.81,-3.6 51.73,-6.7 77.7,-9.4 3.79,-0.4 7.59,-0.7 11.39,-1.1 9.14,-0.9 18.28,-1.7 27.43,-2.5 4.84,-0.5 9.69,-0.8 14.54,-1.2 8.13,-0.7 16.26,-1.3 24.39,-1.9 5.18,-0.4 10.36,-0.7 15.55,-1 7.84,-0.5 15.69,-1 23.53,-1.5 5.3,-0.3 10.6,-0.5 15.9,-0.8 7.75,-0.4 15.49,-0.8 23.23,-1.1 5.28,-0.2 10.56,-0.4 15.84,-0.6 7.98,-0.3 15.95,-0.6 23.92,-0.8 4.93,-0.1 9.87,-0.3 14.8,-0.4 8.77,-0.2 17.52,-0.4 26.27,-0.5 4.12,-0.1 8.24,-0.2 12.35,-0.2 12.82,-0.2 25.62,-0.2 38.38,-0.2 8.99,0 17.98,0 26.96,0.1 1.84,0.1 3.67,0.1 5.5,0.1" /><path
         id="path280"
         style="fill:#2e1515;fill-opacity:1;fill-rule:nonzero;stroke:none"
         d="m 5487.43,10322.5 c -4.74,-2.2 -9.52,-4.2 -14.21,-6.5 -4.72,-2.3 -9.35,-4.8 -14.02,-7.3 -3.47,-1.8 -6.99,-3.5 -10.43,-5.4 -5.41,-3 -10.7,-6.2 -16,-9.4 -2.56,-1.5 -5.17,-2.9 -7.71,-4.5 -5.92,-3.7 -11.72,-7.6 -17.49,-11.5 -1.78,-1.2 -3.61,-2.3 -5.38,-3.5 -6.26,-4.4 -12.37,-8.9 -18.41,-13.5 -1.18,-0.9 -2.4,-1.8 -3.57,-2.7 -6.44,-5 -12.72,-10.2 -18.89,-15.5 -0.69,-0.6 -1.39,-1.2 -2.08,-1.8 -6.5,-5.6 -12.83,-11.4 -19,-17.4 -0.28,-0.3 -0.59,-0.6 -0.87,-0.8 -6.43,-6.3 -12.67,-12.7 -18.69,-19.3 -0.01,-0.1 -0.02,-0.1 -0.02,-0.1 -42.53,-46.6 -74.57,-101.6 -90.03,-162.8 209.1,-119.7 391.06,-286.7 527.57,-485.3 53.91,277.6 -33.58,578.6 -226.58,785 -2.56,-0.9 -5.15,-1.7 -7.7,-2.7 -8.6,-3.1 -17.14,-6.5 -25.61,-10.1 -3.66,-1.5 -7.25,-3.3 -10.88,-4.9" /><path
         id="path282"
         style="fill:#2e1515;fill-opacity:1;fill-rule:nonzero;stroke:none"
         d="m 3588.33,6564.2 c 5.37,-2.8 10.75,-5.6 16.17,-8.3 3.08,-1.5 6.17,-3 9.26,-4.5 5.07,-2.4 10.17,-4.7 15.29,-7.1 3.2,-1.4 6.41,-2.9 9.64,-4.3 5.24,-2.3 10.51,-4.5 15.8,-6.7 3.04,-1.3 6.08,-2.6 9.14,-3.8 6.61,-2.7 13.27,-5.2 19.95,-7.7 3.29,-1.3 6.59,-2.5 9.89,-3.7 6.46,-2.4 12.95,-4.7 19.46,-6.9 3.87,-1.3 7.76,-2.6 11.64,-3.8 4.53,-1.5 9.06,-3 13.61,-4.4 4.34,-1.4 8.69,-2.7 13.05,-4 4.06,-1.3 8.12,-2.5 12.19,-3.6 4.66,-1.4 9.32,-2.7 14,-4 3.62,-1 7.26,-2 10.9,-3 5.08,-1.3 10.17,-2.7 15.28,-4 2.06,-0.5 4.14,-1 6.2,-1.5 20.76,-5.2 41.65,-10 62.63,-14.3 1.51,-0.3 3.01,-0.7 4.51,-1 6.87,-1.4 13.75,-2.7 20.64,-4.1 1.3,-0.2 2.61,-0.5 3.92,-0.7 7.34,-1.4 14.69,-2.8 22.04,-4.1 -6.95,135.7 83.71,295.7 199.37,353.8 116.83,58.7 254.49,19 378.46,-29.7 22.3,-41.6 79.03,-61.5 125.13,-46.8 51.45,16.5 87.14,66.5 98.27,119.4 11.13,52.9 1.16,108 -15.14,159.5 -25.94,82 -68.01,158.8 -123.09,224.9 139.01,64.9 231.83,209.4 254.32,361.2 12.66,85.4 4.93,172.3 -17.85,255.8 -1.57,-2.1 -3.11,-4.3 -4.6,-6.4 -8.48,-11.9 -17.4,-23.4 -26.51,-34.7 -2.29,-2.8 -4.59,-5.6 -6.92,-8.4 -9.08,-11 -18.36,-21.8 -28.01,-32.2 -0.17,-0.2 -0.33,-0.4 -0.51,-0.6 -9.85,-10.6 -20.09,-20.8 -30.5,-30.8 -2.56,-2.5 -5.14,-4.9 -7.73,-7.3 -10.26,-9.6 -20.69,-19 -31.43,-28.1 -0.3,-0.2 -0.57,-0.5 -0.87,-0.8 -11.11,-9.3 -22.55,-18.2 -34.14,-27 -2.71,-2 -5.44,-4 -8.17,-6 -11.4,-8.4 -22.95,-16.6 -34.77,-24.4 -0.29,-0.1 -0.57,-0.4 -0.86,-0.5 -12.26,-8.1 -24.79,-15.8 -37.46,-23.2 -2.74,-1.6 -5.49,-3.2 -8.24,-4.8 -12.49,-7.1 -25.09,-14.1 -37.93,-20.6 -0.2,-0.1 -0.4,-0.3 -0.6,-0.4 -13.29,-6.7 -26.8,-13.1 -40.43,-19.2 -2.65,-1.2 -5.31,-2.4 -7.98,-3.6 -13.47,-5.9 -27.04,-11.6 -40.81,-16.8 -0.06,-0.1 -0.13,-0.1 -0.19,-0.1 -14.17,-5.5 -28.52,-10.5 -42.95,-15.2 -2.49,-0.9 -4.99,-1.7 -7.49,-2.5 -28.89,-9.2 -58.25,-17.2 -87.96,-23.8 -2.33,-0.6 -4.66,-1 -6.99,-1.5 -29.98,-6.5 -60.28,-11.6 -90.78,-15.3 -2.21,-0.3 -4.42,-0.5 -6.63,-0.8 -15.16,-1.7 -30.34,-3.2 -45.56,-4.3 -89.38,-6.2 -179.6,-0.7 -266.87,17 -344.67,69.7 -640.49,305.3 -838.88,595.7 -84.29,123.4 -152.85,259.6 -199.56,401.9 v 0 c -6.1,-48.1 -10.33,-96.4 -12.74,-145 -0.21,-4.2 -0.45,-8.3 -0.62,-12.5 -0.36,-8.3 -0.61,-16.7 -0.86,-25 -0.19,-6.7 -0.36,-13.4 -0.48,-20.1 -0.13,-7 -0.23,-14.1 -0.28,-21.1 -0.06,-8.7 -0.03,-17.5 0.04,-26.2 0.04,-5.4 0.04,-10.9 0.13,-16.3 0.23,-14.4 0.59,-28.8 1.18,-43.3 3.32,-82.5 12.54,-749 135.46,-736.4 -29.82,-3 -59.39,-12.9 -84.51,-28.7 -28.65,-18 -54.71,-45.1 -58.59,-78.7 -5.61,-48.6 35.98,-89.6 78.14,-114.4 28.35,-16.7 58.24,-29.8 89.1,-40.3 -88.67,-39.9 -145.43,-143.7 -120.03,-245.1 2.48,-9.9 6.08,-20.3 14.13,-26.6 9.74,-7.6 23.28,-7.3 35.63,-6.7 124.73,6.3 249.46,12.6 374.2,18.9 20.96,-154 132.26,-284.6 266.39,-363.2 7.76,-4.5 15.61,-8.9 23.51,-13.1 2.61,-1.4 5.23,-2.8 7.85,-4.1" /><path
         id="path284"
         style="fill:#2e1515;fill-opacity:1;fill-rule:nonzero;stroke:none"
         d="m 4552.58,6432.8 c -90,82.2 -206.8,123.5 -328.61,111.7 -49.06,-4.8 -49.56,-82.1 0,-77.3 101.74,9.9 198.1,-19.8 273.95,-89.1 36.67,-33.5 91.48,21 54.66,54.7" /><path
         id="path286"
         style="fill:#f2a46f;fill-opacity:1;fill-rule:nonzero;stroke:none"
         d="m 10823.6,6742 c -3.8,55.3 -15.8,110.1 -35.7,161.8 -6.3,16.8 -14.4,34.2 -29.7,43.6 -23.1,14.1 -52.8,4.6 -77.9,-5.5 -262.3,-105.2 -510.4,-245.6 -735.84,-416 -14.63,-11.1 -31.15,-22.9 -49.39,-21 -15.69,1.6 -28.31,13 -42.02,20.8 -74.86,42.5 -163.55,-23.8 -221.33,-87.6 -76.39,-84.4 -147.97,-173.2 -214.27,-265.7 l 232.66,-862.5 c -17.27,-12.8 -34.54,-25.5 -51.81,-38.2 203.15,41.8 403.7,96 600.2,162.4 41,13.9 83.3,29.2 114,59.7 34.3,34 49.5,82.3 62.9,128.8 74,257.7 126.5,539.4 29,789.2 154.8,88.9 296.5,200.6 419.2,330.2" /><path
         id="path288"
         style="fill:#e86065;fill-opacity:1;fill-rule:nonzero;stroke:none"
         d="m 10131.1,5839 c -109.8,10.3 -215.89,44.1 -320.26,79.7 -87.21,29.9 -174.16,61.2 -256.65,102.4 -42.28,21 -84.34,45.9 -117.28,79.1 l 213.2,-790.3 c -3.89,-2.9 -7.78,-5.7 -11.66,-8.6 13.28,-4.3 26.61,-8.5 40,-12.4 175.77,39.1 349.45,87.6 520.05,145.2 41,13.9 83.3,29.2 114,59.7 34.3,34 49.5,82.3 62.9,128.8 22.2,77.3 42.4,156.9 57.3,237 -99.8,-19.5 -200.5,-30.1 -301.6,-20.6" /><path
         id="path290"
         style="fill:#f2a46f;fill-opacity:1;fill-rule:nonzero;stroke:none"
         d="m 8996.36,13718.4 c -17.74,52.5 -27.61,107.7 -29.19,163.1 -0.5,17.9 0.25,37.1 10.76,51.6 15.88,21.9 46.99,24.6 74.06,24.9 282.58,3.4 565.59,-30.9 839.14,-101.9 17.75,-4.6 37.53,-9.1 53.65,-0.4 13.86,7.6 21.16,22.9 30.84,35.3 52.78,68 160.18,40.8 237.98,4 102.9,-48.6 299.6,-140.3 396.4,-200.3 l 19.5,-848.5 c 20.9,-5.2 41.7,-10.3 62.5,-15.4 -203.6,-39.4 -409.6,-66.2 -616.6,-80.3 -43.2,-3 -88.09,-5.1 -128.16,11.3 -44.72,18.3 -77.29,57.1 -107.42,94.8 -167.26,209.6 -323.8,449.7 -329.64,717.8 -177.06,22.6 -350.77,71.4 -513.82,144" /><path
         id="path292"
         style="fill:#e86065;fill-opacity:1;fill-rule:nonzero;stroke:none"
         d="m 9982.31,13150.2 c 97.49,51.6 182.49,123.6 265.19,196.6 69.1,60.9 137.3,123.3 197.7,192.9 31,35.7 60.3,74.8 77.9,118.1 l 106.4,-811.6 c 4.7,-1.2 9.4,-2.3 14.1,-3.5 -10.6,-9.1 -21.3,-18 -32.2,-26.8 -177.3,-31.3 -356.3,-53.2 -536,-65.4 -43.2,-3 -88.09,-5.1 -128.16,11.3 -44.72,18.3 -77.28,57.1 -107.42,94.8 -50.21,63 -99.41,128.6 -143.91,197 99.67,20.2 196.76,49 286.4,96.6" /><path
         id="path294"
         style="fill:#509fa3;fill-opacity:1;fill-rule:nonzero;stroke:none"
         d="m 3301.69,3383.9 c 136.29,-311.2 373.98,-543.2 688.63,-663.3 384.31,-146.8 780.88,-261.3 1184.24,-342.1 490.78,-98.3 978.79,-138.7 1466.11,0.9 320.03,91.7 622.03,238 911.18,403 409.45,233.6 799.83,509.4 1126.43,851.3 352.21,368.8 624.96,823.1 906.84,1245.9 47.41,71.1 94.58,142.4 141.51,213.8 17.12,26.1 34.6,53.2 39.87,83.9 5.77,33.5 -3.66,67.7 -13.01,100.4 -93.56,328 -187.13,655.9 -280.7,983.9 -18.19,63.8 -276.78,-69.5 -306.88,-83.9 -144.27,-69.2 -261.77,-149.3 -381.56,-257.6 -211.64,-191.4 -397.27,-411.3 -622.99,-587.2 -238.27,-185.6 -484.8,-355.5 -751.61,-499.6 -172.38,-93.1 -347.65,-187.3 -539.1,-228.9 -476.67,-103.6 -949.15,134.1 -1363.97,341.2 -247.3,123.5 -497.43,248 -766.58,310.9 -302.55,70.7 -617.69,49.5 -890.89,-106.1 -600.33,-341.8 -819.03,-1146.5 -547.52,-1766.5" /><path
         id="path296"
         style="fill:#317388;fill-opacity:1;fill-rule:nonzero;stroke:none"
         d="m 9753.49,5277.7 c -0.83,2.9 -1.67,5.9 -2.51,8.8 C 9249.8,4924.2 8942.17,4345 8500,3907.2 7961.16,3373.6 7227.33,3063.2 6477.29,2951.4 5727.24,2839.7 4959.4,2915.9 4218.13,3075.9 c -216.74,46.8 -435.05,101.9 -628.1,211 -155.77,88 -294.86,215.8 -375.28,373.8 19.09,-94.8 47.93,-187.7 86.94,-276.8 136.29,-311.2 373.98,-543.2 688.63,-663.3 384.31,-146.8 780.88,-261.3 1184.24,-342.1 490.78,-98.3 978.79,-138.7 1466.11,0.9 320.03,91.7 622.03,238 911.18,403 409.45,233.6 799.83,509.4 1126.43,851.3 352.21,368.8 624.96,823.1 906.84,1245.9 47.41,71.1 94.58,142.4 141.51,213.8 17.12,26.1 34.6,53.2 39.87,83.9 5.77,33.5 -3.66,67.7 -13.01,100.4" /><path
         id="path298"
         style="fill:#e86065;fill-opacity:1;fill-rule:nonzero;stroke:none"
         d="m 10404.4,6411.8 c -19.7,-6.1 -142.2,-70.8 -142.2,-70.8 l 180,-62.1 c -8.6,45.1 -20.9,89.5 -37.8,132.9" /><g
         transform="scale(1.00635)"
         id="g300"><path
           id="path302"
           style="fill:#f2a46f;fill-opacity:1;fill-rule:nonzero;stroke:none"
           d="m 15100.6,14945.2 c -8.3,-101.2 -28,-201.1 -57.9,-297.5 -31.5,17.2 -62.6,35.4 -93.3,53.7 -130.4,77.9 -258.8,161.8 -365,270.3 -210.9,215.6 -317.1,510.7 -407.1,798.6 -46.6,148.9 -91,299.9 -167.2,436 -10.4,18.6 -21.5,37 -33.2,54.9 l 337.9,-4.7 c 66.4,43.5 154.3,0.5 217.6,-47.3 385,-289.9 606.9,-783.4 568.2,-1264" /></g><g
         transform="scale(1.03261)"
         id="g304"><path
           id="path306"
           style="fill:#2e1515;fill-opacity:1;fill-rule:nonzero;stroke:none"
           d="m 13852.6,16062.2 c -68,89.4 -181.1,131 -290,158.3 l -235.7,2.8 c -17.6,45.7 -68.3,72.3 -117.2,74.5 -49,2.2 -96.6,-15.7 -141,-36.4 -187.1,-87.5 -346.6,-233.1 -450.7,-411.6 -37.1,-63.6 -68.1,-135.6 -59.2,-208.7 10.2,-82.8 71.5,-152.8 145,-192.3 73.5,-39.5 158,-52.8 241.2,-59.8 123.5,-10.4 248.1,-8.1 371.2,6.6 172.4,20.7 350.3,70.7 472.9,193.7 122.5,122.9 168.4,334.6 63.5,472.9" /></g><g
         transform="scale(1.01729)"
         id="g308"><path
           id="path310"
           style="fill:#f2a46f;fill-opacity:1;fill-rule:nonzero;stroke:none"
           d="m 14376.2,16035.1 c -62.6,47.1 -149.5,89.7 -215.1,46.8 l -365.9,4.9 c -458.5,213.2 -986.9,-162.5 -956.4,-660.5 8.9,-144.4 53.5,-284 103,-419.9 89.4,-245.9 180.4,-491.9 297.8,-726.1 59.2,-118.2 125.2,-233.4 201.6,-341.4 70.7,-99.6 152.8,-215.7 262.5,-274.5 49,-26.3 102.9,-42.9 157.8,-51.2 123.9,-18.7 275,-12.4 383.6,55 385.3,239.4 656.5,662 693.2,1116.4 38.3,475.3 -181.2,963.6 -562.1,1250.5" /></g><path
         id="path312"
         style="fill:#2e1515;fill-opacity:1;fill-rule:nonzero;stroke:none"
         d="m 13469.7,15754.8 c -42.1,68.9 -122,107.4 -201.7,83.5 -90.8,-27.3 -124.5,-110.4 -137.9,-196.8 -4.2,-26.8 16.7,-57.8 47.5,-47.5 87.7,29.1 175.4,58.3 263.1,87.5 16.7,5.5 25.6,18.2 27,32.3 8.6,10.7 11.4,25.6 2,41" /><path
         id="path314"
         style="fill:#2e1515;fill-opacity:1;fill-rule:nonzero;stroke:none"
         d="m 14034.1,14812.5 c -98.7,-27.1 -118.2,189.6 -132.7,250 -23.8,99.1 -47.6,198.2 -71.3,297.3 -11.6,48.4 -87,31 -75.3,-17.4 33.6,-140.1 67,-280.3 100.8,-420.4 22.7,-93.8 75.7,-217.7 196,-184.8 47.8,13.1 30.6,88.4 -17.5,75.3" /><path
         id="path316"
         style="fill:#2e1515;fill-opacity:1;fill-rule:nonzero;stroke:none"
         d="m 13594.5,15140.9 c -10.7,36.3 -22.8,84 -49.8,112.2 -21.4,22.4 -51.3,28.4 -77.3,17.7 -5.2,0.9 -10.7,0.8 -16.1,-0.3 -17,-3.5 -34.6,-0.6 -50,7.6 -18.5,9.7 -42.1,4.6 -52.9,-13.9 -10.2,-17.5 -4.7,-43.1 13.9,-52.9 27.8,-14.7 57.2,-20.6 87.5,-18.3 -1.9,-13.2 -1.4,-27.9 0.9,-42.9 -18.5,-0.3 -36.4,3.8 -54.1,10.9 -19.4,7.8 -42.5,-8.5 -47.6,-27 -6,-22 7.6,-39.7 27,-47.5 31.9,-12.8 65.6,-15.8 99.1,-11.6 7.5,-14.8 15.6,-27.3 23.4,-35.5 22.9,-24.3 64.9,-31.2 90.3,-6.4 29.8,29.1 15.9,73.4 5.7,107.9" /><g
         transform="scale(1.00653)"
         id="g318"><path
           id="path320"
           style="fill:#e86065;fill-opacity:1;fill-rule:nonzero;stroke:none"
           d="m 14529.9,16206.5 c -63.3,47.7 -151.1,90.7 -217.4,47.3 l -369.8,5.1 c -37.9,17.6 -76.4,31.2 -114.9,41.1 l -1.3,-5.4 c 161,-236.8 176.5,-538.9 238.1,-818.5 77.7,-352.3 242.1,-693.1 509.5,-935.2 89.6,-81.1 192.9,-151.9 310.8,-178.8 10,-2.3 19.9,-4.2 30.1,-5.8 101.5,179.7 166.3,379.8 183,586.4 38.7,480.4 -183.1,973.9 -568.1,1263.8" /></g><path
         id="path322"
         style="fill:#2e1515;fill-opacity:1;fill-rule:nonzero;stroke:none"
         d="m 14342.2,16023.8 c -73.7,49.2 -166.7,69.3 -251.2,37.1 -91.1,-34.7 -132.2,-113.7 -136.8,-207.5 -1.5,-30.7 27.3,-42.3 50.2,-35.2 7.2,-2.4 15.1,-3.4 22.6,-2.3 65.3,9.1 130.6,18.1 195.9,27.2 56.7,7.9 123.9,7.2 178.1,25.2 99.2,33.1 -18.9,128.8 -58.8,155.5" /><path
         id="path324"
         style="fill:#2e1515;fill-opacity:1;fill-rule:nonzero;stroke:none"
         d="m 14394.6,15394.6 c -105.4,103.3 -273.5,59.9 -318.3,-79.9 -15.2,-47.5 59.4,-67.8 74.6,-20.5 27.1,84.7 126,107.6 189.1,45.8 35.6,-34.9 90.3,19.7 54.6,54.6" /><path
         id="path326"
         style="fill:#317388;fill-opacity:1;fill-rule:nonzero;stroke:none"
         d="m 14815.3,15356.9 c -116.3,-93.7 -232.5,-187.3 -348.8,-280.9 -38.8,-31.2 16.2,-85.6 54.7,-54.7 116.2,93.6 232.5,187.3 348.8,280.9 38.7,31.2 -16.3,85.6 -54.7,54.7" /><g
         transform="scale(1.0875)"
         id="g328"><path
           id="path330"
           style="fill:#581519;fill-opacity:1;fill-rule:nonzero;stroke:none"
           d="m 15577.5,14901.5 c -39.7,-269 -128.4,-530.7 -260.7,-768.4 -120.3,-216.3 -280.4,-416.2 -490.3,-547.6 -209.9,-131.4 -474.1,-188.1 -711.1,-116.3 -68.2,20.7 -132.6,51.2 -195.1,85.5 -29.1,16 -57.9,32.8 -86.3,49.8 -120.7,72.1 -239.5,149.7 -337.8,250.1 -195.2,199.5 -293.4,472.6 -376.7,739 -43.1,137.8 -84.2,277.6 -154.8,403.5 -9.5,17.2 -19.8,34.2 -30.7,50.8 -68.7,104.9 -162,195.1 -278.1,240 -134.6,52 -302.2,31.8 -401.9,-72.6 -78.4,-82.3 -104.7,-200.8 -117.7,-313.7 -2.5,-21.4 -4.6,-43 -6,-64.7 -82.7,-112.8 -129.7,-253.5 -120.3,-406.5 8.2,-135.1 50,-265.7 96.4,-392.8 83.6,-230 168.7,-460.2 278.5,-679.2 55.4,-110.6 116.9,-218.4 188.7,-319.4 14,-19.7 28.5,-40.1 43.7,-60.6 -95,-40.2 -195.2,-68.2 -297.4,-82.2 -168.9,-23.1 -340.9,-9.4 -509.5,15.5 -228.6,33.8 -459.2,90.3 -652.9,216.3 -193.8,125.9 -346.8,331.3 -361.8,561.9 172.4,92.4 321.3,255.8 426.9,420.6 163.8,255.9 220.9,565.8 360.1,835.9 21,40.9 44.8,82 81,110.5 67.6,53.4 161.6,52.3 247.5,48.6 -71.9,383.8 127.9,756.2 445.9,968.9 279.1,186.7 643.2,225.6 967.6,164.1 348.3,-66 621.1,-256 867.4,-504 197.8,-199.3 378.5,-418.3 602.5,-587.7 224.1,-169.4 505.1,-287.4 782.9,-245.3" /></g><path
         id="path332"
         style="fill:#f5f8fd;fill-opacity:1;fill-rule:nonzero;stroke:none"
         d="m 14519.4,15105.4 c -202.9,-115.9 -438.2,-157.4 -664,-217.5 -162.8,-43.3 -328.3,-101.3 -464.1,-197.3 24.6,-55 50.2,-109.5 77.2,-163.4 60.2,-120.3 127.3,-237.5 205.1,-347.3 71.9,-101.3 155.4,-219.4 267,-279.3 49.8,-26.7 104.7,-43.7 160.5,-52.1 126.1,-19 279.8,-12.6 390.3,56 221.9,137.9 406.5,335.5 531.8,564.9 -197.7,186.1 -368.1,401 -503.8,636" /><path
         id="path334"
         style="fill:#95c3b9;fill-opacity:1;fill-rule:nonzero;stroke:none"
         d="m 14519.4,15105.4 c -45.9,-26.2 -93.5,-48.4 -142.2,-68.1 l 2.4,-6 c 83.6,-105.3 166,-213.3 222,-335.5 55.9,-122.2 84,-261.2 54,-392.3 -25,-109.7 -88.6,-206.6 -157.3,-295.7 -42.8,-55.4 -91,-110.4 -145,-156 49.6,10.2 96.8,27.1 138.1,52.7 221.9,137.9 406.5,335.5 531.8,564.9 -197.7,186.1 -368.1,401 -503.8,636" /><g
         transform="scale(1.03924)"
         id="g336"><path
           id="path338"
           style="fill:#ef2e4e;fill-opacity:1;fill-rule:nonzero;stroke:none"
           d="m 15979.5,12728.3 c -190.1,326.3 -494.2,575.3 -906.6,504.7 -487.6,-83.5 -813.1,-551.8 -1266.6,-749.5 -472.9,-206.2 -1023.7,-92.9 -1504.8,93.1 -481.1,186.1 -941.8,443.4 -1450.8,528.2 -184.4,30.7 -373.1,38.2 -554.3,85 -35.7,9.3 -72.6,20.1 -109,13.7 -55.9,-9.9 -96.4,-57.5 -130.1,-103.1 -159.29,-215 -281.78,-457.2 -360.69,-712.9 -22.71,-73.3 -33.58,-170.4 31.76,-210.7 44.64,-27.6 105.55,-12.8 151.45,-38.3 43.4,-23.9 61.01,-75.7 85.16,-119 81.12,-145.4 251.22,-210.1 393.22,-297.3 328.3,-201.8 619.9,-483.6 884,-753.6 438.4,-448.3 921,-795.9 1534.4,-913.5 989.4,-189.71 2400,-48.2 3099.1,768.1 362.8,423.7 424.3,1017.8 262.5,1540.1 -38.3,124.2 -91.4,249.4 -158.7,365" /></g><path
         id="path340"
         style="fill:#b42352;fill-opacity:1;fill-rule:nonzero;stroke:none"
         d="m 10670.6,13433.7 c 45.8,86 93.1,173 156.2,246.7 -42.4,7.5 -84.6,16.2 -126.4,27 -37.1,9.6 -75.4,20.8 -113.2,14.2 -58.1,-10.3 -100.2,-59.7 -135.3,-107.2 -165.5,-223.4 -292.8,-475.1 -374.8,-740.8 -23.6,-76.2 -34.9,-177.1 33,-219 46.4,-28.7 109.7,-13.3 157.4,-39.7 0.6,-0.3 1.1,-0.7 1.6,-1 23.4,79.5 60.7,156.2 97.8,230.7 98.6,197.7 199.8,394.1 303.7,589.1" /><g
         transform="scale(1.02242)"
         id="g342"><path
           id="path344"
           style="fill:#b42352;fill-opacity:1;fill-rule:nonzero;stroke:none"
           d="m 12812.5,10932.4 c -191.9,40.5 -383.7,87.8 -562.1,168.9 -403.6,183.5 -712.4,526.7 -1097,747.1 -355.9,203.9 -778.8,304.5 -1073.8,589.4 l -186.47,-63.2 c 44.89,-24.4 104.16,-11.3 149.27,-36.3 44.1,-24.4 62,-77 86.5,-121 82.5,-147.9 255.4,-213.6 399.7,-302.3 333.7,-205.1 630.2,-491.5 898.5,-765.9 445.6,-455.7 936.2,-809 1559.7,-928.5 1005.7,-192.9 2439.5,-49 3150.1,780.7 63.3,73.9 117.4,153.1 163.1,236 -281.7,-243.3 -665.5,-348.1 -1037.2,-405.2 -812.3,-124.7 -1646.1,-69.1 -2450.3,100.3" /></g><path
         id="path346"
         style="fill:#b42352;fill-opacity:1;fill-rule:nonzero;stroke:none"
         d="m 12637.1,12371.8 c 82.9,-83.6 71,-222.5 129.4,-324.7 14.9,-26.1 42.7,-52.3 71,-42.5 34.3,11.9 32.8,59.8 28.8,95.8 -10.6,95.7 9.1,194.5 55.5,278.9 10.4,18.8 26.6,39.4 48,37.6 11.7,-1 21.7,-8.7 30.2,-16.8 49.9,-48.1 69.6,-120.5 70.2,-189.8 0.6,-69.3 -15.8,-137.4 -27.8,-205.6 -16.3,-92.3 -24.8,-186 -25.4,-279.8 -1.4,-221.5 -270.9,-34.4 -334.6,55.9 -57.7,81.9 -98.4,179 -108.6,278.8 -3.3,32.7 53.1,322.5 63.3,312.2" /><path
         id="path348"
         style="fill:#317388;fill-opacity:1;fill-rule:nonzero;stroke:none"
         d="m 6091.51,3390.5 c -128.2,263.7 -134.33,583.8 -16.32,852.2 26.95,-110.2 53.9,-220.4 80.86,-330.7 9.55,-39 29.79,-86.9 69.99,-86.4 39.95,0.6 59.01,48.5 67.78,87.5 12.49,55.6 24.99,111.2 37.49,166.8 10.77,47.9 39.92,108.6 87.99,98.5 48.32,-10.2 50.1,-78.3 38.79,-126.3 -62.88,-267.2 -167.96,-543.7 -93.17,-807.8 2.8,-9.9 5.76,-21 0.92,-30.1 -2.92,-5.5 -8.26,-9.3 -13.68,-12.3 -103.57,-58.2 -223.74,112.7 -260.65,188.6" /><path
         id="path350"
         style="fill:#d36f4d;fill-opacity:1;fill-rule:nonzero;stroke:none"
         d="m 14221.1,2447.8 h -1502.8 c -126.2,0 -228.6,102.4 -228.6,228.6 v 882.8 c 0,126.3 102.4,228.6 228.6,228.6 h 1502.8 c 126.3,0 228.7,-102.3 228.7,-228.6 v -882.8 c 0,-126.2 -102.4,-228.6 -228.7,-228.6" /><path
         id="path352"
         style="fill:#b44d36;fill-opacity:1;fill-rule:nonzero;stroke:none"
         d="m 13799.1,2748.3 c -305.6,68.8 -611.4,167.2 -863.7,352.9 -188.3,138.5 -343.9,332.5 -416.5,552 -18.6,-35.2 -29.2,-75.3 -29.2,-117.9 v -835 c 0,-139.5 113,-252.5 252.5,-252.5 h 1455.1 c 120,0 220.4,83.8 246.1,196 -216.6,21.9 -431.9,56.7 -644.3,104.5" /><path
         id="path354"
         style="fill:#f36488;fill-opacity:1;fill-rule:nonzero;stroke:none"
         d="m 15764.8,13285.7 c 130.3,40.4 296.6,50.9 379,-57.9 56.2,-74.2 49.7,-182.3 5.7,-264.3 -44.1,-82.1 -119.3,-142.6 -196.4,-194.8 -476.6,-322.9 -1157.4,-454.2 -1726.7,-419.2 575.5,197.9 947.5,752.8 1538.4,936.2" /><path
         id="path356"
         style="fill:#95c3b9;fill-opacity:1;fill-rule:nonzero;stroke:none"
         d="m 4684.01,4845.2 c 307.28,-123.7 606.21,-276.5 930.43,-344.5 -47.14,-70.3 -131.92,-106.3 -215.09,-122.3 -264.76,-51 -529.81,61.4 -782.97,154.2 -142.07,52 -286.18,98.6 -431.86,139.5 -80.68,22.6 -274.82,22.5 -237.95,128.6 27.09,77.9 204.48,125.3 273.8,135.8 159.25,24.1 318.21,-32.7 463.64,-91.3" /></g></g></svg>