<?xml version="1.0" encoding="UTF-8" standalone="no"?>
<svg
   xmlns:dc="http://purl.org/dc/elements/1.1/"
   xmlns:cc="http://creativecommons.org/ns#"
   xmlns:rdf="http://www.w3.org/1999/02/22-rdf-syntax-ns#"
   xmlns:svg="http://www.w3.org/2000/svg"
   xmlns="http://www.w3.org/2000/svg"
   viewBox="0 0 2829.3333 2829.3333"
   height="2829.3333"
   width="2829.3333"
   xml:space="preserve"
   id="svg2"
   version="1.1"><metadata
     id="metadata8"><rdf:RDF><cc:Work
         rdf:about=""><dc:format>image/svg+xml</dc:format><dc:type
           rdf:resource="http://purl.org/dc/dcmitype/StillImage" /></cc:Work></rdf:RDF></metadata><defs
     id="defs6" /><g
     transform="matrix(1.3333333,0,0,-1.3333333,0,2829.3333)"
     id="g10"><g
       transform="scale(0.1)"
       id="g12"><g
         transform="scale(1.30184)"
         id="g14"><path
           id="path16"
           style="fill:#99def9;fill-opacity:1;fill-rule:nonzero;stroke:none"
           d="M 0.0360068,5.299 H 16294.7 V 16300 H 0.0360068 V 5.299" /></g><g
         transform="scale(1.25182)"
         id="g18"><path
           id="path20"
           style="fill:#cceffc;fill-opacity:1;fill-rule:nonzero;stroke:none"
           d="M 13134.7,3710.99 C 12697.6,2823.4 12822,2117.4 13230.8,1263.92 13451.1,803.869 13657.1,402.295 13783.5,5.43271 H 2962.3 C 2443.97,661.758 1923.72,1559.81 2103.3,2413.76 c 199.58,948.86 939.95,1500.46 845.42,2572.81 -81.65,925.7 -782.91,1749.13 -1011.99,2622.42 -111.74,426.1 -71.85,966.27 -51.69,1410.8 25.39,558.76 232.23,755.34 675.8,1073.31 833.74,597.8 2005.23,737.7 2763.47,1453.6 818.09,772.5 148.98,2331.6 779.8,3223.5 690.24,976 1975.72,1422.4 3125.8,1474.5 1220.99,55.3 2620.29,-650 2671.29,-1996.7 37,-974.5 -404.8,-2043.2 -179.4,-3012.2 C 12181,9261.78 16090.5,8639.41 15104.2,6359.45 14664.1,5341.82 13618.4,4692.92 13134.7,3710.99" /></g><path
         id="path22"
         style="fill:#d5cceb;fill-opacity:1;fill-rule:nonzero;stroke:none"
         d="m 11492.4,11851.8 -741.9,405.3 -185.9,-698.2 764.7,-91.9 163.1,384.8" /><path
         id="path24"
         style="fill:#d5cceb;fill-opacity:1;fill-rule:nonzero;stroke:none"
         d="m 7967.33,12137.3 588.55,165.7 c 0,0 -137.49,-565.7 -137.49,-581.1 0,-15.2 -397.46,-234.5 -397.46,-234.5 l -53.6,649.9" /><path
         id="path26"
         style="fill:#d5cceb;fill-opacity:1;fill-rule:nonzero;stroke:none"
         d="m 7491.82,10958.5 379.83,-3217.7 c 0,0 3563.75,-1085.9 3592.25,-1085.9 28.5,0 1403,2101.3 1358.1,2151.8 -45.1,50.3 -106.3,1486.3 -152.2,1540.6 -45.7,54.3 -1020.5,757.5 -1020.5,757.5 l -4236.9,-146.3" /><path
         id="path28"
         style="fill:#ef2e32;fill-opacity:1;fill-rule:nonzero;stroke:none"
         d="m 12191.3,7442.4 c 0,0 -338.9,3317.5 169.1,3544.4 0,0 843.7,-107.8 1769.3,-1854.4 144.8,-273.9 1436.8,-3228 1417.7,-3863.8 0,0 -161.9,-310.9 -1080.6,-553.3 -623.4,-164.7 -2226.1,2571.4 -2275.5,2727.1" /><path
         id="path30"
         style="fill:#f14624;fill-opacity:1;fill-rule:nonzero;stroke:none"
         d="m 15082.7,7213.2 -237.4,259.8 c 0,0 -519.8,-619.2 -715.6,-2034.9 l 953,1775.1" /><g
         transform="scale(1.05812)"
         id="g32"><path
           id="path34"
           style="fill:#ef2e32;fill-opacity:1;fill-rule:nonzero;stroke:none"
           d="m 13177.8,4693.53 c 0,0 558.2,1473.09 1011.6,2253.44 520.2,896.12 737,2235.1 838.1,2748.27 0,0 477.6,222.38 1272.5,-298.45 0,0 -29.4,-2538.38 -593.3,-3977.07 C 15157.6,4017.9 14434.9,3536.1 13177.8,4693.53" /></g><g
         transform="scale(1.07273)"
         id="g36"><path
           id="path38"
           style="fill:#bc6095;fill-opacity:1;fill-rule:nonzero;stroke:none"
           d="m 15104,9399.94 v 237.34 c 0,0 -247.2,348.46 -255.3,734.02 -8,385.6 79.7,763.7 71.6,1008.5 0,0 55.9,207.7 183.7,152 0,0 454.4,-57.2 510.3,-41.6 55.7,15.7 398.7,-392.2 542.1,-555.3 143.6,-163.2 37.7,-1166.09 -302.8,-1433.81 l -32,-338.39 c 0,0 -438.8,-7.46 -717.6,237.24" /></g><g
         transform="scale(1.28833)"
         id="g40"><path
           id="path42"
           style="fill:#3871c1;fill-opacity:1;fill-rule:nonzero;stroke:none"
           d="m 16207.9,7632.97 c -92.2,-287.19 -297,-470.06 -457.6,-408.43 0,0 -2584.5,1074.26 -3453.9,1407.32 -848.9,325.27 -3418.95,1228.17 -3418.95,1228.17 -160.52,61.56 -216.09,344.27 -124.03,631.47 92.13,287.3 297.05,470.1 457.8,408.5 0,0 2522.78,-1050.06 3371.38,-1375.79 869.5,-333.64 3501.2,-1259.72 3501.2,-1259.72 160.7,-61.55 216.2,-344.32 124.1,-631.52" /></g><g
         transform="scale(1.28396)"
         id="g44"><path
           id="path46"
           style="fill:#2a51aa;fill-opacity:1;fill-rule:nonzero;stroke:none"
           d="m 15719.8,7869.66 c -79.4,-247.21 -31.4,-490.67 106.8,-543.71 138.1,-52.97 314.5,104.52 394,351.72 79.4,247.28 31.6,490.59 -106.7,543.71 -138.3,53.12 -314.8,-104.36 -394.1,-351.72" /></g><g
         transform="scale(1.01178)"
         id="g48"><path
           id="path50"
           style="fill:#f79590;fill-opacity:1;fill-rule:nonzero;stroke:none"
           d="m 15710.7,11643.6 c -83.3,-160.3 -190.9,-358 -226.8,-588.6 -18.8,-121.5 258.9,-731.7 545.7,-828.2 0,0 -92.6,833.7 -1.4,1043.7 271.8,626.2 -14.3,956 -317.5,373.1" /></g><path
         id="path52"
         style="fill:#161a26;fill-opacity:1;fill-rule:nonzero;stroke:none"
         d="M 13120.5,6.80078 13039.3,902.199 10911.1,1307.2 10631.5,158 9927.66,87 9919.57,6.80078 h 3200.93" /><path
         id="path54"
         style="fill:#343a4f;fill-opacity:1;fill-rule:nonzero;stroke:none"
         d="M 10393.9,6.80078 10434.4,224.199 6170.13,562.301 V 6.80078 h 4223.77" /><path
         id="path56"
         style="fill:#161a26;fill-opacity:1;fill-rule:nonzero;stroke:none"
         d="M 9395.63,6.80078 6170.13,209 V 6.80078 Z" /><path
         id="path58"
         style="fill:#f14624;fill-opacity:1;fill-rule:nonzero;stroke:none"
         d="m 6403.98,209 c 0,0 167.41,-85.199 463.83,-202.19922 H 13133.9 C 13075,727.5 12796.7,4160.8 12822,4386.5 c 252.7,2268.4 254.8,5250.8 0,6473.9 l -977.8,298.1 c 0,0 358.2,-2887.7 -1161,-3050.8 -2211.22,-237.4 -2526.44,1804.6 -3024.95,3077.5 0,0 -1368.07,-163.5 -1714.58,-444.7 -346.69,-281.1 -833.99,-1906.4 448.62,-6473.9 L 6403.98,209" /><path
         id="path60"
         style="fill:#bc6095;fill-opacity:1;fill-rule:nonzero;stroke:none"
         d="m 8444.75,14259.4 c 0,0 50.42,-1464.6 40.09,-1758.9 -33.32,-954.5 -1019.33,-1231.6 -1070.97,-1260.4 -52.18,-28.7 1654.55,-1254.9 3068.63,-1101.1 1218.4,132.6 1361.7,1019.5 1361.7,1019.5 0,0 -1210.9,164.4 -1220.5,1021.2 -1.2,108.9 -56.8,432.2 -56.8,432.2 l -2122.15,1647.5" /><g
         transform="scale(1.05249)"
         id="g62"><path
           id="path64"
           style="fill:#f79590;fill-opacity:1;fill-rule:nonzero;stroke:none"
           d="m 11222,15081.4 c 0,0 353.9,-1004.9 -48.8,-2143.5 0,0 -282.2,-809.5 -428.9,-1282 -151,-485 -1052.32,-534.4 -1675.69,-88.9 -711.58,508.4 -1140.41,866.6 -1434.64,2003.5 -294.04,1136.7 52.86,2511.9 1550.46,2616.2 C 10810.5,16300 11222,15081.4 11222,15081.4" /></g><g
         transform="scale(1.00495)"
         id="g66"><path
           id="path68"
           style="fill:#371c13;fill-opacity:1;fill-rule:nonzero;stroke:none"
           d="m 11991.7,15780.5 c 0,0 168.5,-429.9 609.3,-400.5 0,0 -859.6,-728.5 -2357.6,95.7 -1497.35,824.3 1748.3,304.8 1748.3,304.8" /></g><g
         transform="scale(1.05068)"
         id="g70"><path
           id="path72"
           style="fill:#e97584;fill-opacity:1;fill-rule:nonzero;stroke:none"
           d="m 9200.22,16214.5 c 1226.18,85.5 1763.08,-585.1 1953.38,-922 -659.2,158 -1004.2,21.1 -1183.32,-184.3 3.71,-14.9 -0.67,-30.3 -14.38,-46.2 -207.1,-237.5 -51.01,-564.6 -51.01,-564.6 0,0 12.66,-185.1 -112.21,-236.1 -124.97,-51 -46.64,-398.9 -64.25,-447.8 -17.89,-49.1 231.47,-125.7 231.47,-125.7 l -493.79,-387.4 c -496.54,-301.2 -243.82,-1542.4 -175.37,-1838.5 -71.14,36.2 -140.69,77.7 -206.55,125 -614.3,439 -1018.1,766.6 -1306.7,1577.7 l 9.17,114.6 c -14.84,-3.3 -29.95,-6.6 -45.07,-9.7 -33.01,100.7 -64.22,208.2 -94.51,324.3 -294.54,1138.7 52.96,2516.2 1553.14,2620.7" /></g><g
         transform="scale(1.05633)"
         id="g74"><path
           id="path76"
           style="fill:#371c13;fill-opacity:1;fill-rule:nonzero;stroke:none"
           d="m 10760.8,14932.3 -2075.53,159.9 -282.13,-1056.7 -376.82,-235 32.47,-549.7 -160.42,28.3 -459.56,592.6 13.1,1300.9 312.61,378.3 353.03,595.2 2883.05,153.9 406.2,-748.3 -225.6,-525.1 -420.4,-94.3" /></g><path
         id="path78"
         style="fill:#e97584;fill-opacity:1;fill-rule:nonzero;stroke:none"
         d="m 8487.18,13472.5 c 0,0 -263.29,-57.2 -472.49,192.9 -354.3,423 -353.42,970.6 70.55,1032 423.77,61.5 571.4,-994.5 401.94,-1224.9" /><path
         id="path80"
         style="fill:#bc6095;fill-opacity:1;fill-rule:nonzero;stroke:none"
         d="m 8358.56,13670.8 c 0,0 -159.03,239.2 -11.89,295.9 0,0 -8.48,512.2 -282.24,576.9 -273.76,64.6 -209.98,-371 -170.76,-451.2 39.36,-80.2 297.29,-265.1 297.29,-265.1 0,0 -61.19,-93.9 167.6,-156.5" /><path
         id="path82"
         style="fill:#e97584;fill-opacity:1;fill-rule:nonzero;stroke:none"
         d="m 11012.1,13425.3 c 0,0 378.6,-89 561.4,-39.7 0,0 -195.6,719 -187.3,970.8 0,0 308.9,-926.6 303.9,-941.8 -5.4,-15.2 36.3,-75.2 -64.8,-95.2 -101.2,-19.8 -514.4,37.9 -613.2,105.9" /><path
         id="path84"
         style="fill:#ffffff;fill-opacity:1;fill-rule:nonzero;stroke:none"
         d="m 11535.5,14224 c 0,0 223.6,-35.2 313,33.5 0,0 28.8,74.1 40.3,167.4 0,0 32.8,120.3 -340.2,26.2 -41.7,-10.4 -13.1,-227.1 -13.1,-227.1" /><path
         id="path86"
         style="fill:#cbc1e6;fill-opacity:1;fill-rule:nonzero;stroke:none"
         d="m 11548.6,14451.1 c 370.9,93.8 340.2,-26.2 340.2,-26.2 0,-0.9 -0.2,-1.7 -0.2,-2.7 -40.5,0.6 -80.8,-5.8 -122.4,-12.2 -51.5,-4.3 -98.9,-22.3 -132.4,-66.2 -26.7,-35.7 -42.3,-79.8 -49.5,-125.4 -29.5,2.6 -48.8,5.6 -48.8,5.6 0,0 -28.6,216.6 13.1,227.1" /><path
         id="path88"
         style="fill:#ffffff;fill-opacity:1;fill-rule:nonzero;stroke:none"
         d="m 10795.7,14426.8 c 0,0 -730.8,63.4 -899.95,-99.4 -102.95,-98.7 27.13,-310.8 38.63,-329.7 11.69,-18.8 804.92,80.2 834.12,104.5 29.5,24.5 60.8,296.5 27.2,324.6" /><path
         id="path90"
         style="fill:#cbc1e6;fill-opacity:1;fill-rule:nonzero;stroke:none"
         d="m 9895.75,14327.4 c 169.15,162.8 899.95,99.4 899.95,99.4 4.3,-3.6 7.6,-11.1 9.9,-21.4 -183.8,13.7 -380.3,-10.3 -541.6,-100.1 -109.6,-61.2 -210.3,-180.2 -254.4,-307.2 -44.72,-3.3 -73.18,-3.8 -75.22,-0.4 -11.5,18.9 -141.58,231 -38.63,329.7" /><path
         id="path92"
         style="fill:#1c4256;fill-opacity:1;fill-rule:nonzero;stroke:none"
         d="m 11794.2,14231.3 c 0,0 21,92 21.7,110.4 0.5,18.4 -32,121.9 -109.3,24.8 -31.5,-39.2 -57.3,-151.5 -57.3,-151.5 0,0 70.2,-6.7 144.9,16.3" /><path
         id="path94"
         style="fill:#371c13;fill-opacity:1;fill-rule:nonzero;stroke:none"
         d="m 11523.6,14796.9 c 0,0 -54.2,21.2 -59.6,85.6 -5.3,64.6 204.2,349.7 301.3,391.5 97.2,41.7 193.8,-250.8 169.8,-282.5 -24,-31.8 -104.9,-10.2 -411.5,-194.6" /><path
         id="path96"
         style="fill:#371c13;fill-opacity:1;fill-rule:nonzero;stroke:none"
         d="m 10811.5,14731 c 0,0 63.5,76.1 -5.9,211.5 -47,91.3 -305.6,324 -423.2,350.7 -117.7,26.8 -618.74,17.7 -851.82,-274.8 -52.66,-65.9 -18.12,-136.6 7.89,-152.9 7.99,-5 56.79,3.8 134.74,12.7 172.87,19.7 489.19,39.4 822.09,-92.3 0,0 231.2,-114.1 316.2,-54.9" /><path
         id="path98"
         style="fill:#1c4256;fill-opacity:1;fill-rule:nonzero;stroke:none"
         d="m 10658.9,14077.9 c 0,0 60.9,226.4 6.2,270 -55,43.4 -187.9,32.2 -248.1,-304.4 l 241.9,34.4" /><path
         id="path100"
         style="fill:#29658a;fill-opacity:1;fill-rule:nonzero;stroke:none"
         d="m 11679.8,14214.3 c 7.8,35.2 29.9,121.4 56.9,147.2 22.2,21.1 51.6,33.3 68.6,15.6 7.4,-14.1 10.6,-29.4 10.6,-35.4 -0.7,-18.4 -21.7,-110.4 -21.7,-110.4 -44.6,-13.6 -87.1,-16.8 -114.4,-17" /><path
         id="path102"
         style="fill:#29658a;fill-opacity:1;fill-rule:nonzero;stroke:none"
         d="m 10466.7,14050.6 c 12.8,56.6 51.3,207.2 103.4,245.6 38,27.9 83.5,21.1 114.8,10.7 14.2,-79.4 -26,-229 -26,-229 l -192.2,-27.3" /><path
         id="path104"
         style="fill:#f14624;fill-opacity:1;fill-rule:nonzero;stroke:none"
         d="m 6376.46,8376.5 c 0,0 964.57,2340.1 473.96,2601.8 0,0 -1419.48,278.3 -2407.19,-1867.8 -129.55,-281.4 -2214.8,-3508.7 -2240.33,-4144.2 0,0 294.18,-589.7 1193.85,-896.1 610.37,-207.6 2919.15,4154.5 2979.71,4306.3" /><g
         transform="scale(1.10233)"
         id="g106"><path
           id="path108"
           style="fill:#f9a72b;fill-opacity:1;fill-rule:nonzero;stroke:none"
           d="m 11125.6,14119 c 0,0 -781.8,-563.7 -3133.22,139.2 0,0 -781.33,128.5 -898.37,295.3 0,0 -87.56,130.4 46.14,198.9 0,0 133.66,1547.6 2120.73,1499.4 0,0 1891.52,-132 1749.32,-1858.4 0,0 392,-114.7 115.4,-274.4" /></g><g
         transform="scale(1.10223)"
         id="g110"><path
           id="path112"
           style="fill:#f68712;fill-opacity:1;fill-rule:nonzero;stroke:none"
           d="m 7173.09,14743.4 c -11.53,3.9 -21.97,9.4 -31.86,14.8 9.27,89.7 194.39,1541.8 2120.46,1495 0,0 14.16,-1 38.11,-3.7 -9.98,-6.9 -19.42,-13.6 -30.67,-20.6 -651.03,-400.6 -869.65,-1333.2 -589.95,-1636.8 279.98,-303.3 1674.32,-284.5 1674.32,-284.5 -1925.65,-135.3 -3180.41,435.8 -3180.41,435.8" /></g><path
         id="path114"
         style="fill:#fab74e;fill-opacity:1;fill-rule:nonzero;stroke:none"
         d="m 10199.7,15489.8 c 204.3,-40.5 1289.3,-15.5 1639.9,84.3 350.6,99.6 297.2,292.1 297.2,292.1 0,0 432.1,-126.4 127.2,-302.4 0,0 -212.5,-152.8 -742.5,-212.3 -801.5,-60.6 -1460.2,165.6 -1321.8,138.3" /><g
         transform="scale(1.11694)"
         id="g116"><path
           id="path118"
           style="fill:#f9a72b;fill-opacity:1;fill-rule:nonzero;stroke:none"
           d="m 10679.2,14155.3 c 0,0 217.4,2144.7 -1978.85,1949.4 0,0 -525.18,-42.3 -642.83,-244.2 0,0 17.67,-32 65.4,-14.3 47.54,17.8 644.87,192.3 1096.56,-210.6 451.41,-402.9 661.63,-1533.1 651.51,-1533.5 -10.3,-0.2 622.81,-42.8 808.21,53.2" /></g><g
         transform="scale(1.12041)"
         id="g120"><path
           id="path122"
           style="fill:#f68712;fill-opacity:1;fill-rule:nonzero;stroke:none"
           d="m 8097.76,15797.1 c -47.58,-17.6 -65.19,14.3 -65.19,14.3 5,8.2 11.35,16 17.79,23.8 1293.36,464.8 1691.79,-849.8 1771.22,-1074.3 73.91,-208.7 123.53,-646.3 129.96,-708.4 -94.43,6.5 -114.6,5.9 -111.12,5.9 10.08,0.4 -199.48,1127.2 -649.5,1528.8 -450.29,401.6 -1045.77,227.7 -1093.16,209.9" /></g><g
         transform="scale(1.09578)"
         id="g124"><path
           id="path126"
           style="fill:#fab74e;fill-opacity:1;fill-rule:nonzero;stroke:none"
           d="m 10889.2,14458.7 c 0,0 -172.6,-92.9 -434.7,-18.2 0,0 -131.6,1531.7 -865.17,1806.8 0,0 28.56,52.7 242.29,16.9 213.88,-35.9 994.88,-367.1 1057.58,-1805.5" /></g><path
         id="path128"
         style="fill:#bc6095;fill-opacity:1;fill-rule:nonzero;stroke:none"
         d="m 4954.06,6.80078 h 632.1 L 5638.44,74.1016 5599.7,942 5454.42,1272.9 c 0,0 -395.95,-238.2 -523.84,-508.998 -68.31,-144.703 52.61,-412.699 23.48,-757.10122" /><path
         id="path130"
         style="fill:#f79590;fill-opacity:1;fill-rule:nonzero;stroke:none"
         d="m 5578.27,173.801 c 0,0 -218.17,9.199 -249.84,-31.199 -8.87,-11 -33.13,-64.3989 -63.53,-135.80122 h 971.97 C 6236.19,421 6229.28,1029.1 6253.44,1405.6 c 4.97,80.5 -147.82,302.8 -147.82,302.8 l -694.95,-335 26.5,-60.5 C 5034.06,762.402 5578.27,173.801 5578.27,173.801" /><path
         id="path132"
         style="fill:#f14624;fill-opacity:1;fill-rule:nonzero;stroke:none"
         d="m 3133.95,6913.7 c 0,0 2480.47,-4373.3 3004.99,-5185.7 0,0 -28.55,-31.6 -78.58,-81.5 -186.84,-184.7 -673.85,-619.8 -1127.93,-624.8 -34.5,-0.5 -2879.39,3076.4 -2891.38,3788.5 l 1092.9,2103.5" /><path
         id="path134"
         style="fill:#ef2e32;fill-opacity:1;fill-rule:nonzero;stroke:none"
         d="m 4392.31,4708.1 c 0,0 -1248.37,474.2 -2104.73,137.7 0,0 930.46,916 2008.02,31 l 96.71,-168.7" /><path
         id="path136"
         style="fill:#fbc8c3;fill-opacity:1;fill-rule:nonzero;stroke:none"
         d="m 10080.3,13479.8 v 0 0 0 m 0.1,0 c 755.5,0 1045.1,377.5 1236.7,447.6 -191.6,-70.1 -481.1,-447.6 -1236.7,-447.6 m -138.49,4 c -0.81,0.1 -1.57,0.1 -2.38,0.2 0.81,-0.1 1.57,-0.1 2.38,-0.2 m -2.8,0.2 c -1.56,0.1 -3.17,0.2 -4.73,0.3 1.56,-0.1 3.17,-0.2 4.73,-0.3" /><path
         id="path138"
         style="fill:#e6f7fd;fill-opacity:1;fill-rule:nonzero;stroke:none"
         d="m 11893.7,14107.2 c 32.5,165.5 51.8,325.5 61.3,476.9 36.2,-141.1 -1.7,-323.7 -61.3,-476.9" /><path
         id="path140"
         style="fill:#95aade;fill-opacity:1;fill-rule:nonzero;stroke:none"
         d="m 11800.9,13740.8 v 0 c 11.6,1.6 23.5,4 35.6,7.2 -12.2,-3.2 -24,-5.6 -35.6,-7.2" /><path
         id="path142"
         style="fill:#fbc8c3;fill-opacity:1;fill-rule:nonzero;stroke:none"
         d="m 10154.9,13568.2 c -41,0 -83.7,1.2 -127.9,3.9 -123.68,7.5 -227.92,41.3 -313.77,93.3 49.22,134 123.81,243.1 232.65,309.1 l 27.18,21.3 c 120.34,5.1 490.44,50.1 680.64,81.4 l 5.2,0.7 v 0 0 c 0,0.1 0,0.1 0,0.1 0,0 0,0 0,0 0,0 0,0.1 0,0.1 61.6,10.2 103.3,18.9 109.6,24.1 25.7,21.4 52.9,231.6 36.9,303.2 0.1,0 0.1,0 0.2,0 -2.3,10.3 -5.6,17.8 -9.9,21.4 v 0 c 0,0 0,0 -0.1,0 -2.1,0.1 -141.4,12.1 -311.8,12.1 -0.1,0 -0.1,0 -0.1,0 v 0 0 c -0.1,0 -0.3,0 -0.4,0 -52.3,0 -107.4,-1.1 -162.5,-4 -57.3,25.2 -107.9,55 -99.3,78.7 11.2,31 -14.5,176.8 -7.5,299.2 117,-9.5 228.2,-28.2 332.6,-49.6 51.7,-21 132.8,-49.3 197.1,-49.3 6.6,0 13,0.3 19.1,1 150.8,-35.2 283.5,-65.7 395.4,-65.7 67.2,0 126.8,11 178.5,38.5 195.9,104.4 294.7,122.7 339.9,122.7 24.3,0 33.1,-5.3 33.1,-5.3 143.5,-25.9 217,-110.8 245.3,-221 -9.5,-151.4 -28.8,-311.4 -61.3,-476.9 -62.9,-161.6 -150,-290.6 -199.9,-303.9 -21.5,-5.7 -41.8,-8.1 -61,-8.1 -10.6,0 -20.7,0.7 -30.6,2 43,-33 97.5,-58.8 163.4,-58.8 11.4,0 23.2,0.8 35.3,2.4 v 0 c -12.1,-1.7 -23.9,-2.5 -35.4,-2.5 -91.6,0.1 -161.3,49.9 -208,99.5 -81.8,250.3 -171.3,518.6 -171.3,518.6 -3.1,-95.2 22.9,-257.1 56.4,-421.8 l -113,-3 78.6,2.2 c -13.3,20 -20.2,34 -20.2,34 l -138.7,-3.8 c -167.5,-50.4 -417.9,-395.8 -1094.4,-395.8 m 1494.5,646.8 c -0.1,0 -0.1,0 -0.1,0 0,0 9.5,-0.9 25.2,-0.9 23.7,0 61.6,2.1 102.5,12.4 27.6,6.6 52.6,16.5 71.5,31 0,0 28.2,72.6 39.9,164.7 0.1,0 0.1,0 0.2,0 0,1 0.2,1.8 0.2,2.7 v 0 c 0,0 16.9,62.2 -112.1,62.2 -19.3,0 -41.8,-1.4 -68.1,-4.6 -42.6,-5.1 -95.2,-15 -160,-31.4 v 0 c -17.6,-4.4 -22.7,-45.5 -22.7,-91.6 0.1,-63.1 9.6,-135.5 9.6,-135.5 v 0 c 0.5,-0.1 51.2,-8.1 113.9,-9" /><path
         id="path144"
         style="fill:#f4b8bb;fill-opacity:1;fill-rule:nonzero;stroke:none"
         d="m 9713.23,13665.4 c -451.01,272.9 -394.5,1045.5 9.8,1123.4 113.53,21.8 223.2,30.7 328.67,30.7 55.3,0 109.4,-2.4 162.3,-6.7 -7,-122.4 18.7,-268.2 7.5,-299.2 -8.6,-23.7 42,-53.5 99.3,-78.7 -177,-9.5 -352.56,-37.7 -425.05,-107.5 -28.86,-27.7 -39.41,-64.2 -39.39,-103 0.04,-99.5 69.74,-213.1 78.02,-226.7 0.43,-0.7 2.05,-1.3 4.75,-1.7 3.3,-0.4 8.22,-0.7 14.61,-0.7 5.42,0 11.89,0.2 19.32,0.5 l -27.18,-21.3 c -108.84,-66 -183.43,-175.1 -232.65,-309.1" /><path
         id="path146"
         style="fill:#f4b8bb;fill-opacity:1;fill-rule:nonzero;stroke:none"
         d="m 11557.5,13837.8 c -46.2,49.2 -69.9,98.1 -69.9,98.1 l -45,-1.3 c -33.5,164.7 -59.5,326.6 -56.4,421.8 0,0 89.5,-268.3 171.3,-518.6" /><path
         id="path148"
         style="fill:#ffffff;fill-opacity:1;fill-rule:nonzero;stroke:none"
         d="m 11649.4,14215 c -62.7,0.9 -113.4,8.9 -113.9,9 0.3,-0.1 19.6,-3.1 48.8,-5.6 7.2,45.6 22.8,89.7 49.5,125.4 33.5,43.9 80.9,61.9 132.4,66.2 39.5,6.1 77.9,12.2 116.4,12.2 1.9,0 3.9,0 5.8,0 -11.7,-92.1 -39.9,-164.7 -39.9,-164.7 -18.9,-14.5 -43.9,-24.4 -71.5,-31 5.7,1.4 11.5,3 17.2,4.8 v 0 c 0,0 21,92 21.7,110.4 v 0 0 c 0.3,12.7 -15,65.8 -49.9,65.8 -15.7,0 -35.3,-10.8 -59.4,-41 -31.1,-38.8 -56.7,-149.1 -57.2,-151.5 m -123.5,144.5 c 0,46.1 5.1,87.2 22.7,91.6 v 0 0 c -17.6,-4.4 -22.7,-45.5 -22.7,-91.6 m 362.9,65.4 c 0,0 15.9,62.1 -113.1,62.1 -19,0 -41.2,-1.4 -67.1,-4.5 26.3,3.2 48.8,4.6 68.1,4.6 129,0 112.1,-62.2 112.1,-62.2" /><path
         id="path150"
         style="fill:#e5dff2;fill-opacity:1;fill-rule:nonzero;stroke:none"
         d="m 11584.3,14218.4 c -29.2,2.5 -48.5,5.5 -48.8,5.6 v 0 c 0,0 -9.5,72.4 -9.6,135.5 0,46.1 5.1,87.2 22.7,91.6 v 0 c 64.8,16.4 117.4,26.3 160,31.4 25.9,3.1 48.1,4.5 67.1,4.5 129,0 113.1,-62.1 113.1,-62.1 v 0 c 0,-0.9 -0.2,-1.7 -0.2,-2.7 -0.1,0 -0.1,0 -0.2,0 -1.9,0 -3.9,0 -5.8,0 -38.5,0 -76.9,-6.1 -116.4,-12.2 -51.5,-4.3 -98.9,-22.3 -132.4,-66.2 -26.7,-35.7 -42.3,-79.8 -49.5,-125.4" /><path
         id="path152"
         style="fill:#ffffff;fill-opacity:1;fill-rule:nonzero;stroke:none"
         d="m 9953.74,13995.3 c -6.39,0 -11.31,0.3 -14.61,0.7 3.24,-0.4 8.05,-0.6 14.26,-0.6 13.06,0 32.31,0.9 56.21,2.7 44.1,127 144.8,246 254.4,307.2 133.7,74.5 291.7,103.7 446.5,103.7 31.8,0 63.6,-1.3 94.9,-3.6 16,-71.6 -11.2,-281.8 -36.9,-303.2 -6.3,-5.2 -48,-13.9 -109.6,-24.1 v 0 c 0,0.1 0,0.1 0.1,0.3 0,0 0,0 0,0 0,0.1 0.1,0.3 0.1,0.5 0,0 0,0 0,0 0,0.1 0,0.1 0,0.1 0,0.1 0.1,0.1 0.1,0.1 0,0.1 0,0.1 0,0.1 0,0 0,0.1 0,0.1 0,0.1 0,0.1 0.1,0.2 0,0.1 0,0.3 0.1,0.4 0,0 0,0 0,0 0,0.1 0,0.2 0,0.3 0,0 0.1,0.1 0.1,0.1 0,0 0,0 0,0 0,0.1 0,0.2 0,0.3 v 0 c 0.1,0.1 0.1,0.2 0.1,0.2 0,0.1 0,0.1 0,0.1 0,0 0.1,0.1 0.1,0.1 5.6,21.8 38.2,153.3 25.2,225.9 0,0 -0.1,0 -0.1,0 -3.3,18.3 -9.5,32.8 -19.7,41 -13.6,10.7 -31.9,18.1 -52.6,18.1 -63.5,0 -150.1,-68.9 -195.5,-322.5 l 236.7,33.7 c -190.2,-31.3 -560.3,-76.3 -680.64,-81.4 -7.43,-0.3 -13.9,-0.5 -19.32,-0.5 m -97.38,229.1 c -0.02,38.8 10.53,75.3 39.39,103 72.49,69.8 248.05,98 425.05,107.5 55.1,2.9 110.2,4 162.5,4 -220.3,0 -492.51,-20 -587.55,-111.5 -28.86,-27.7 -39.41,-64.2 -39.39,-103 m 627.44,214.5 c -0.1,0 -0.1,0 -0.1,0 v 0 c 0,0 0,0 0.1,0" /><path
         id="path154"
         style="fill:#e5dff2;fill-opacity:1;fill-rule:nonzero;stroke:none"
         d="m 9953.39,13995.4 c -6.21,0 -11.02,0.2 -14.26,0.6 -2.7,0.4 -4.32,1 -4.75,1.7 -8.28,13.6 -77.98,127.2 -78.02,226.7 -0.02,38.8 10.53,75.3 39.39,103 95.04,91.5 367.25,111.5 587.55,111.5 0.1,0 0.3,0 0.4,0 v 0 c 0,0 0,0 0.1,0 170.4,0 309.7,-12 311.8,-12.1 0.1,0 0.1,0 0.1,0 v 0 c 4.3,-3.6 7.6,-11.1 9.9,-21.4 -0.1,0 -0.1,0 -0.2,0 -31.3,2.3 -63.1,3.6 -94.9,3.6 -154.8,0 -312.8,-29.2 -446.5,-103.7 -109.6,-61.2 -210.3,-180.2 -254.4,-307.2 -23.9,-1.8 -43.15,-2.7 -56.21,-2.7" /><path
         id="path156"
         style="fill:#758695;fill-opacity:1;fill-rule:nonzero;stroke:none"
         d="m 11674.5,14214.1 c -15.7,0 -25.2,0.9 -25.2,0.9 0,0 0,0 0.1,0 0.5,2.4 26.1,112.7 57.2,151.5 24.1,30.2 43.7,41 59.4,41 34.9,0 50.2,-53.1 49.9,-65.8 v 0 c 0,6 -3.2,21.3 -10.6,35.4 -5.7,5.9 -12.8,8.5 -20.6,8.5 -15.3,0 -33.3,-10.1 -48,-24.1 -27,-25.8 -49.1,-112 -56.9,-147.2 27.3,0.2 69.8,3.4 114.4,17 -5.7,-1.8 -11.5,-3.4 -17.2,-4.8 -40.9,-10.3 -78.8,-12.4 -102.5,-12.4" /><path
         id="path158"
         style="fill:#876a59;fill-opacity:1;fill-rule:nonzero;stroke:none"
         d="m 10743.7,14713.9 c -64.3,0 -145.4,28.3 -197.1,49.3 45.4,-9.2 89.5,-19.1 132.3,-28.9 28.6,-6.5 56.5,-13 83.9,-19.4 -6.1,-0.7 -12.5,-1 -19.1,-1" /><path
         id="path160"
         style="fill:#758695;fill-opacity:1;fill-rule:nonzero;stroke:none"
         d="m 10417,14043.5 c 45.4,253.6 132,322.5 195.5,322.5 20.7,0 39,-7.4 52.6,-18.1 10.2,-8.2 16.4,-22.7 19.7,-41 -14.8,4.9 -32.8,9 -51.7,9 -21,0 -43,-5 -63,-19.7 -52.1,-38.4 -90.6,-189 -103.4,-245.6 l 192.2,27.3 -5.2,-0.7 -236.7,-33.7 m 241.9,34.4 v 0 0 m 0,0.1 c 0,0 0,0 0,0 0,0 0,0 0,0 m 0,0.1 c 0,0.1 0,0.1 0.1,0.3 -0.1,-0.2 -0.1,-0.2 -0.1,-0.3 m 0.1,0.3 c 0,0.1 0.1,0.3 0.1,0.5 0,-0.2 -0.1,-0.4 -0.1,-0.5 m 0.1,0.5 c 0,0.1 0,0.1 0,0.1 0,0 0,0 0,-0.1 m 0.1,0.2 c 0,0.1 0,0.1 0,0.1 0,0 0,0 0,-0.1 m 0,0.2 c 0,0.1 0,0.1 0.1,0.2 -0.1,-0.1 -0.1,-0.1 -0.1,-0.2 m 0.2,0.6 c 0,0 0,0 0,0 0,0 0,0 0,0 m 0,0.3 c 0,0 0.1,0.1 0.1,0.1 0,0 -0.1,-0.1 -0.1,-0.1 m 0.1,0.1 c 0,0.1 0,0.2 0,0.3 0,-0.1 0,-0.2 0,-0.3 m 0,0.3 c 0.1,0.1 0.1,0.1 0.1,0.2 0,0 0,-0.1 -0.1,-0.2 m 0.1,0.3 c 0,0 0.1,0.1 0.1,0.1 0,0 -0.1,-0.1 -0.1,-0.1" /><path
         id="path162"
         style="fill:#87a0b9;fill-opacity:1;fill-rule:nonzero;stroke:none"
         d="m 11679.8,14214.3 c 7.8,35.2 29.9,121.4 56.9,147.2 14.7,14 32.7,24.1 48,24.1 7.8,0 14.9,-2.6 20.6,-8.5 7.4,-14.1 10.6,-29.4 10.6,-35.4 v 0 c -0.7,-18.4 -21.7,-110.4 -21.7,-110.4 v 0 c -44.6,-13.6 -87.1,-16.8 -114.4,-17" /><path
         id="path164"
         style="fill:#87a0b9;fill-opacity:1;fill-rule:nonzero;stroke:none"
         d="m 10466.7,14050.6 c 12.8,56.6 51.3,207.2 103.4,245.6 20,14.7 42,19.7 63,19.7 18.9,0 36.9,-4.1 51.7,-9 0,0 0.1,0 0.1,0 13,-72.6 -19.6,-204.1 -25.2,-225.9 0,0 -0.1,-0.1 -0.1,-0.1 0,0 0,0 0,-0.1 0,-0.1 0,-0.1 -0.1,-0.2 v 0 c 0,-0.1 0,-0.2 0,-0.3 0,0 0,0 0,0 0,0 -0.1,-0.1 -0.1,-0.1 0,-0.1 0,-0.2 0,-0.3 0,0 0,0 0,0 -0.1,-0.1 -0.1,-0.3 -0.1,-0.4 -0.1,-0.1 -0.1,-0.1 -0.1,-0.2 0,0 0,-0.1 0,-0.1 0,0 0,0 0,-0.1 0,0 -0.1,0 -0.1,-0.1 0,0 0,0 0,-0.1 0,0 0,0 0,0 0,-0.2 -0.1,-0.4 -0.1,-0.5 0,0 0,0 0,0 -0.1,-0.2 -0.1,-0.2 -0.1,-0.3 v 0 c 0,0 0,-0.1 0,-0.1 0,0 0,0 0,0 0,0 0,0 0,-0.1 v 0 0 l -192.2,-27.3" /><path
         id="path166"
         style="fill:#876a59;fill-opacity:1;fill-rule:nonzero;stroke:none"
         d="m 9551.2,14864.1 c 11.71,3.4 23.73,6.4 35.99,8.7 129.63,25 254.88,35.1 375.28,35.1 -120.38,0 -245.68,-10.1 -375.28,-35.1 -12.26,-2.3 -24.28,-5.3 -35.99,-8.7 v 0" /><path
         id="path168"
         style="fill:#fbc8c3;fill-opacity:1;fill-rule:nonzero;stroke:none"
         d="m 11265.2,14714.7 c 60.6,3.7 115.4,16.8 163.9,42.7 v 0 0 c -48.5,-25.9 -103.3,-39 -163.9,-42.7 m 165.5,43.6 c 30.2,16 58.3,30.3 84.5,42.9 v 0 c -26.2,-12.6 -54.3,-26.9 -84.5,-42.9 m 156.4,75.8 h 0.1 c 115.9,49.7 185.1,62.3 224,63.4 -38.9,-1.2 -108,-13.7 -224.1,-63.4" /><path
         id="path170"
         style="fill:#876a59;fill-opacity:1;fill-rule:nonzero;stroke:none"
         d="m 11515.2,14801.2 v 0 c 25.8,12.5 49.7,23.3 72,32.9 h -0.1 c -22.2,-9.6 -46.1,-20.5 -71.9,-32.9" /><path
         id="path172"
         style="fill:#fbc8c3;fill-opacity:1;fill-rule:nonzero;stroke:none"
         d="m 11811.6,14897.5 c 0.4,0 0.7,0 1.1,0 -0.4,0 -0.7,0 -1.1,0 m 5.7,0.1 v 0 0 0" /><path
         id="path174"
         style="fill:#fbc8c3;fill-opacity:1;fill-rule:nonzero;stroke:none"
         d="m 10080.3,13479.8 v 0 c 0.1,0 0.1,0 0.1,0 0,0 0,0 -0.1,0 m 0,0 c -44.5,0 -90.6,1.3 -138.39,4 47.73,-2.7 93.89,-4 138.39,-4 m -140.77,4.2 c -0.16,0 -0.26,0 -0.42,0 0.16,0 0.26,0 0.42,0" /><path
         id="path176"
         style="fill:#fbc8c3;fill-opacity:1;fill-rule:nonzero;stroke:none"
         d="m 11317.1,13927.4 h 0.1 -0.1 m 0.2,0.1 c 0.3,0.1 0.7,0.2 1.1,0.4 -0.4,-0.2 -0.8,-0.3 -1.1,-0.4 m 10.2,3.4 c 0.3,0.1 0.6,0.2 0.9,0.3 -0.3,-0.1 -0.6,-0.2 -0.9,-0.3 m -101.9,782.6 c -113.3,0 -245.2,27.3 -393.6,61.6 v 0 c 148.5,-34.3 280.3,-61.6 393.6,-61.6 13.4,0 26.6,0.4 39.6,1.2 -13,-0.8 -26.2,-1.2 -39.6,-1.2" /><path
         id="path178"
         style="fill:#876a59;fill-opacity:1;fill-rule:nonzero;stroke:none"
         d="m 10832,14775.1 c -49.3,11.3 -100.5,23.5 -153.5,35.6 53,-12.1 104.2,-24.3 153.5,-35.6 v 0" /><path
         id="path180"
         style="fill:#876a59;fill-opacity:1;fill-rule:nonzero;stroke:none"
         d="m 10678.5,14810.7 c -3.6,0.8 -7.2,1.7 -10.9,2.5 3.7,-0.8 7.3,-1.7 10.9,-2.5 m -12.9,3 c -208.9,47.6 -444.7,94.2 -702.83,94.2 258.13,0 493.93,-46.6 702.83,-94.2" /><path
         id="path182"
         style="fill:#fbc8c3;fill-opacity:1;fill-rule:nonzero;stroke:none"
         d="m 11854.9,14891.6 c -0.3,0.2 -10.4,6 -37.6,6 27.2,0 37.3,-5.8 37.6,-6 m -43.7,5.9 c 0.2,0 0.3,0 0.4,0 -0.1,0 -0.2,0 -0.4,0 m 1.5,0 c 1.6,0.1 3.1,0.1 4.6,0.1 v 0 c -1.5,0 -3,0 -4.6,-0.1" /><path
         id="path184"
         style="fill:#fde3e0;fill-opacity:1;fill-rule:nonzero;stroke:none"
         d="m 10080.3,13479.8 v 0 c -44.5,0 -90.66,1.3 -138.39,4 -0.81,0.1 -1.57,0.1 -2.38,0.2 -0.16,0 -0.26,0 -0.42,0 -1.56,0.1 -3.17,0.2 -4.73,0.3 v 0 c -96.33,5.8 -182.28,25.6 -258.31,56.5 10.34,43.4 22.63,85.1 37.16,124.6 85.85,-52 190.09,-85.8 313.77,-93.3 44.2,-2.7 86.9,-3.9 127.9,-3.9 676.5,0 926.9,345.4 1094.4,395.8 l 138.7,3.8 c 0,0 6.9,-14 20.2,-34 l -78.6,-2.2 v 0 c -0.4,-0.1 -0.8,-0.2 -1.2,-0.4 -0.3,-0.1 -0.6,-0.2 -0.9,-0.3 -3,-0.9 -6.1,-1.9 -9.1,-3 -0.4,-0.2 -0.8,-0.3 -1.1,-0.4 -0.1,-0.1 -0.1,-0.1 -0.1,-0.1 h -0.1 c -191.6,-70.1 -481.2,-447.6 -1236.7,-447.6 0,0 0,0 -0.1,0 m 466.3,1283.4 c -104.4,21.4 -215.6,40.1 -332.6,49.6 1,18 2.7,35.5 5.4,52 88.7,-16.4 181.7,-41.6 275.9,-78.9 0,0 20.4,-10.1 51.3,-22.7" /><path
         id="path186"
         style="fill:#fadbdb;fill-opacity:1;fill-rule:nonzero;stroke:none"
         d="m 9676.07,13540.8 c -223.41,90.6 -360.91,276.1 -422.61,481.1 l 0.48,-0.3 v 0.5 c -88.66,294.8 -20.85,628.8 174.13,778.1 l 0.19,1.2 c 36.59,27.9 77.63,49.3 122.94,62.7 20.48,0.7 62.84,7.4 122.01,14.1 62.34,7.1 143.33,14.2 237.03,14.2 92.56,0 197.46,-6.9 309.16,-27.6 -2.7,-16.5 -4.4,-34 -5.4,-52 -52.9,4.3 -107,6.7 -162.3,6.7 -105.47,0 -215.14,-8.9 -328.67,-30.7 -404.3,-77.9 -460.81,-850.5 -9.8,-1123.4 -14.53,-39.5 -26.82,-81.2 -37.16,-124.6" /><path
         id="path188"
         style="fill:#f3fbfe;fill-opacity:1;fill-rule:nonzero;stroke:none"
         d="m 12014.9,13981.3 c -68.3,28.4 -114.9,47.8 -135.6,56.4 5,23.3 9.8,46.4 14.4,69.5 59.6,153.2 97.5,335.8 61.3,476.9 5.9,94.8 8,186.3 7.2,273.8 138.5,-66.4 188.9,-202.6 188.8,-357.7 0,-173.2 -62.9,-369.9 -136.1,-518.9" /><path
         id="path190"
         style="fill:#c8d1ee;fill-opacity:1;fill-rule:nonzero;stroke:none"
         d="m 11800.9,13740.8 c 31.3,100.4 57.2,199.6 78.4,296.9 20.7,-8.6 67.3,-28 135.6,-56.4 -63,-128.4 -133.7,-221.3 -178.4,-233.3 v 0 c -12.1,-3.2 -24,-5.6 -35.6,-7.2" /><path
         id="path192"
         style="fill:#fde3e0;fill-opacity:1;fill-rule:nonzero;stroke:none"
         d="m 11765.6,13738.4 c -65.9,0 -120.4,25.8 -163.4,58.8 9.9,-1.3 20,-2 30.6,-2 19.2,0 39.5,2.4 61,8.1 49.9,13.3 137,142.3 199.9,303.9 -4.6,-23.1 -9.4,-46.2 -14.4,-69.5 -21.2,-97.3 -47.1,-196.5 -78.4,-296.9 -12.1,-1.6 -23.9,-2.4 -35.3,-2.4 m 189.4,845.7 c -28.3,110.2 -101.8,195.1 -245.3,221 0,0 -8.8,5.3 -33.1,5.3 -45.2,0 -144,-18.3 -339.9,-122.7 -51.7,-27.5 -111.3,-38.5 -178.5,-38.5 -111.9,0 -244.6,30.5 -395.4,65.7 18.8,1.9 35.5,6.9 48.7,16.1 0,0 12.7,15.2 20.5,44.1 148.4,-34.3 280.3,-61.6 393.6,-61.6 13.4,0 26.6,0.4 39.6,1.2 60.6,3.7 115.4,16.8 163.9,42.7 v 0 c 0.6,0.3 1.1,0.6 1.6,0.9 30.2,16 58.3,30.3 84.5,42.9 5.1,-2.9 8.4,-4.3 8.4,-4.3 22.4,13.5 43.5,25.8 63.5,37.2 116.1,49.7 185.2,62.2 224.1,63.4 0.2,0 0.3,0 0.4,0 0.4,0 0.7,0 1.1,0 1.6,0.1 3.1,0.1 4.6,0.1 v 0 c 27.2,0 37.3,-5.8 37.6,-6 v 0 c 40.5,-7.3 76.1,-18.7 107.3,-33.7 0.8,-87.5 -1.3,-179 -7.2,-273.8" /><path
         id="path194"
         style="fill:#beaa9d;fill-opacity:1;fill-rule:nonzero;stroke:none"
         d="m 11523.6,14796.9 c 0,0 -3.3,1.4 -8.4,4.3 25.8,12.4 49.7,23.3 71.9,32.9 -20,-11.4 -41.1,-23.7 -63.5,-37.2" /><path
         id="path196"
         style="fill:#beaa9d;fill-opacity:1;fill-rule:nonzero;stroke:none"
         d="m 10762.8,14714.9 c -27.4,6.4 -55.3,12.9 -83.9,19.4 -42.8,9.8 -86.9,19.7 -132.3,28.9 -30.9,12.6 -51.3,22.7 -51.3,22.7 -94.2,37.3 -187.2,62.5 -275.9,78.9 -111.7,20.7 -216.6,27.6 -309.16,27.6 -93.7,0 -174.69,-7.1 -237.03,-14.2 -59.17,-6.7 -101.53,-13.4 -122.01,-14.1 11.71,3.4 23.73,6.4 35.99,8.7 129.6,25 254.9,35.1 375.28,35.1 0.05,0 0.06,0 0.11,0 0.07,0 0.12,0 0.19,0 258.13,0 493.93,-46.6 702.83,-94.2 0.7,-0.2 1.3,-0.3 2,-0.5 3.7,-0.8 7.3,-1.7 10.9,-2.5 v 0 0 c 53,-12.1 104.2,-24.3 153.5,-35.6 -7.8,-28.9 -20.5,-44.1 -20.5,-44.1 -13.2,-9.2 -29.9,-14.2 -48.7,-16.1" /><path
         id="path198"
         style="fill:#f4b8bb;fill-opacity:1;fill-rule:nonzero;stroke:none"
         d="m 9253.46,14021.9 -764.28,373.6 -10.77,182.3 398.05,248.2 25.9,97.1 525.91,-121.7 h -0.01 c -138.46,-105.7 -213.1,-304.9 -213.19,-517.1 -0.04,-87.1 12.52,-176.5 38.39,-262.4" /><path
         id="path200"
         style="fill:#876a59;fill-opacity:1;fill-rule:nonzero;stroke:none"
         d="m 8489.18,14395.5 -57.09,28 c -72.81,161.2 -177.17,276.5 -311.64,276.5 -11.51,0 -23.26,-0.9 -35.21,-2.6 -49.38,-7.2 -93.03,-20.9 -131.03,-40.3 l -90.65,44.3 16.07,458.2 1022.73,-236.5 -25.9,-97.1 -398.05,-248.2 10.77,-182.3" /><path
         id="path202"
         style="fill:#f4b8bb;fill-opacity:1;fill-rule:nonzero;stroke:none"
         d="m 8432.09,14423.5 -477.88,233.6 c 38,19.4 81.65,33.1 131.03,40.3 11.95,1.7 23.7,2.6 35.21,2.6 134.47,0 238.83,-115.3 311.64,-276.5" /><path
         id="path204"
         style="fill:#fdeded;fill-opacity:1;fill-rule:nonzero;stroke:none"
         d="m 9253.94,14021.6 -0.48,0.3 c -25.87,85.9 -38.43,175.3 -38.39,262.4 0.09,212.2 74.73,411.4 213.19,517.1 l -0.19,-1.2 c -194.98,-149.3 -262.79,-483.3 -174.13,-778.1 v -0.5" /><path
         id="path206"
         style="fill:#ffffff;fill-opacity:1;fill-rule:nonzero;stroke:none"
         d="m 11251.9,13158 c 0,0 -226.8,2.5 -280.2,-84.2 -53.7,-86.6 193.7,35.7 280.2,84.2" /><path
         id="path208"
         style="fill:#d5cceb;fill-opacity:1;fill-rule:nonzero;stroke:none"
         d="m 10253.5,10065.2 -499.68,1396.6 -1645.59,458.8 -616.41,-757.7 c 0,0 1416.12,-1118.9 2761.68,-1097.7" /><path
         id="path210"
         style="fill:#ffffff;fill-opacity:1;fill-rule:nonzero;stroke:none"
         d="m 7171.53,11112.5 795.8,1024.8 1792.44,-691.2 L 9513.05,9981 c 0,0 -1516.29,279 -2341.52,1131.5" /><path
         id="path212"
         style="fill:#d5cceb;fill-opacity:1;fill-rule:nonzero;stroke:none"
         d="m 10383.9,10084.3 366.6,1441.4 696.1,149.5 397.6,-516.7 c 0,0 -149.9,-1079.6 -1460.3,-1074.2" /><path
         id="path214"
         style="fill:#e5e0f3;fill-opacity:1;fill-rule:nonzero;stroke:none"
         d="m 11492.4,11851.8 -741.9,-326.1 357.4,-1460.5 c 0,0 780.2,269.9 1094.5,968.5 l -180.9,183.9 -529.1,634.2" /><path
         id="path216"
         style="fill:#ef2e32;fill-opacity:1;fill-rule:nonzero;stroke:none"
         d="m 7934.01,9708.4 c 0,0 718.92,-2192 2676.59,-1906.6 0,0 840.4,112.2 1108.3,795.3 0,0 -44.4,-1025.5 -1601,-1042.9 -1556.47,-17.4 -2183.89,2154.2 -2183.89,2154.2" /><path
         id="path218"
         style="fill:#722a18;fill-opacity:1;fill-rule:nonzero;stroke:none"
         d="m 5581.68,6.80078 h 317.56 C 5802.09,135.703 5671.42,235.301 5495.1,281.203 c 0,0 -136.56,55.598 -43.31,-74.504 0,0 62.26,-59.699 129.89,-199.89822" /></g></g></svg>