<?xml version="1.0" encoding="UTF-8" standalone="no"?>
<svg
   xmlns:dc="http://purl.org/dc/elements/1.1/"
   xmlns:cc="http://creativecommons.org/ns#"
   xmlns:rdf="http://www.w3.org/1999/02/22-rdf-syntax-ns#"
   xmlns:svg="http://www.w3.org/2000/svg"
   xmlns="http://www.w3.org/2000/svg"
   viewBox="0 0 2829.3333 2829.3333"
   height="2829.3333"
   width="2829.3333"
   xml:space="preserve"
   id="svg2"
   version="1.1"><metadata
     id="metadata8"><rdf:RDF><cc:Work
         rdf:about=""><dc:format>image/svg+xml</dc:format><dc:type
           rdf:resource="http://purl.org/dc/dcmitype/StillImage" /></cc:Work></rdf:RDF></metadata><defs
     id="defs6" /><g
     transform="matrix(1.3333333,0,0,-1.3333333,0,2829.3333)"
     id="g10"><g
       transform="scale(0.1)"
       id="g12"><g
         transform="scale(1.11502)"
         id="g14"><path
           id="path16"
           style="fill:#243043;fill-opacity:1;fill-rule:nonzero;stroke:none"
           d="M 10906.7,10552.9 H 16300 v 574.8 h -5393.3 v -574.8" /></g><path
         id="path18"
         style="fill:#6884b2;fill-opacity:1;fill-rule:nonzero;stroke:none"
         d="M 11383.3,13346.7 H 9655.16 v 614.1 h 1728.14 v -614.1" /><path
         id="path20"
         style="fill:#dd6958;fill-opacity:1;fill-rule:nonzero;stroke:none"
         d="m 7070.12,14222.3 c 0,0 549.57,-1093.8 393.18,-1206.2 -276.68,-198.9 -462.29,-28.5 -902.85,1009.8 -338.32,797.3 509.67,196.4 509.67,196.4" /><path
         id="path22"
         style="fill:#f78e73;fill-opacity:1;fill-rule:nonzero;stroke:none"
         d="m 3716.06,14590.9 c 0,0 -592.25,-1574.7 -313.12,-4366.5 h 288.53 c 0,0 58.5,2587.9 414.23,3729.2 l -389.64,637.3" /><path
         id="path24"
         style="fill:#dd6958;fill-opacity:1;fill-rule:nonzero;stroke:none"
         d="m 3397.78,13016.1 520.36,60.7 c 28.93,188.7 61.43,368.8 97.9,533.3 l -498.55,207.3 c -43.05,-221.7 -85.76,-489.5 -119.71,-801.3" /><path
         id="path26"
         style="fill:#acbacf;fill-opacity:1;fill-rule:nonzero;stroke:none"
         d="m 5745.68,5287.9 c 0,0 -149.34,-416.5 -114.62,-651 0,0 27.92,-214.1 453.57,-178.9 0,0 265.55,25.4 529.92,-6.6 235.73,-28.5 480.46,-23.2 712.25,132.1 0,0 22.17,237.9 -119.28,345.5 -111.44,84.8 -602.9,106.5 -702.29,176.2 -99.4,69.8 -160,225.5 -160,225.5 l -599.55,-42.8" /><path
         id="path28"
         style="fill:#2743a0;fill-opacity:1;fill-rule:nonzero;stroke:none"
         d="m 7011.77,4994.1 c -187.71,38.2 -438.63,63.5 -506.54,111.1 -99.4,69.8 -160,225.5 -160,225.5 l -599.55,-42.8 c 0,0 -106.95,-298.4 -118.77,-532.2 32.75,-0.5 83.87,-6.9 141.48,-35 98.77,-48.1 222.86,-169.5 341.43,-156 118.57,13.6 474.28,54.2 566.71,24.5 92.43,-29.7 243.94,-32.2 299,-13.2 42.59,14.7 -61.87,281.8 36.24,418.1" /><path
         id="path30"
         style="fill:#243365;fill-opacity:1;fill-rule:nonzero;stroke:none"
         d="m 6736.37,4808.4 c 0,0 -431.11,142.2 -534.68,352.9 0,0 -53.69,53.4 -55.54,-19.1 -1.79,-72.6 257.04,-326.5 577.4,-391.7 0,0 63.75,26.9 12.82,57.9" /><path
         id="path32"
         style="fill:#acbacf;fill-opacity:1;fill-rule:nonzero;stroke:none"
         d="m 6286.71,5321.9 c -57.09,56.5 -457.57,-11.5 -539.15,0 -17.77,-53.8 -51.67,-163.1 -76.76,-282.9 16.4,-14.1 46.2,-27.6 85.2,5.6 60.84,51.8 41.73,117.1 89.95,106.3 48.21,-10.7 281.27,-80.9 371.99,-46.1 90.7,34.7 130.36,156.2 68.77,217.1" /><path
         id="path34"
         style="fill:#acbacf;fill-opacity:1;fill-rule:nonzero;stroke:none"
         d="m 6853.44,5022.1 c 0,0 -133.35,-58.4 -195.21,-250.9 0,0 -22.88,-62.7 -51.57,-58.9 -28.7,3.8 -57.48,17.7 -22.07,103.6 35.4,85.8 113.01,201.3 176.72,223.5 0,0 52.88,50 92.13,-17.3" /><path
         id="path36"
         style="fill:#acbacf;fill-opacity:1;fill-rule:nonzero;stroke:none"
         d="m 6703.73,5049.2 c 0,0 -133.36,-58.4 -195.22,-251 0,0 -22.88,-62.6 -51.56,-58.9 -28.71,3.8 -57.49,17.8 -22.07,103.6 35.4,85.9 113,201.4 176.71,223.6 0,0 52.89,49.9 92.14,-17.3" /><path
         id="path38"
         style="fill:#acbacf;fill-opacity:1;fill-rule:nonzero;stroke:none"
         d="m 6548.42,5082.5 c 0,0 -133.35,-58.3 -195.22,-250.9 0,0 -22.88,-62.7 -51.58,-58.9 -28.68,3.8 -57.47,17.7 -22.08,103.6 35.43,85.9 113.03,201.4 176.73,223.6 0,0 52.89,49.9 92.15,-17.4" /><path
         id="path40"
         style="fill:#ef303e;fill-opacity:1;fill-rule:nonzero;stroke:none"
         d="m 5564.95,10357.6 c 0,0 91.98,-1835 91.98,-2447.8 0,-873.7 -120.38,-2494.4 -102.6,-2539.3 52.45,-132.7 703.54,-184.8 922.61,-15.8 0,0 124.22,1871.2 154.02,2344.4 32.49,515.6 32.49,748.5 32.49,1321.5 0,480.3 -115.97,1785 -88.97,1864.1 27,79.2 -530.96,-212.6 -1009.53,-527.1" /><path
         id="path42"
         style="fill:#acbacf;fill-opacity:1;fill-rule:nonzero;stroke:none"
         d="m 4362.42,5134.6 c 0,0 -149.33,-416.4 -114.61,-650.9 0,0 27.91,-214.2 453.56,-178.9 0,0 265.53,25.3 529.92,-6.7 235.74,-28.5 480.46,-23.2 712.25,132.2 0,0 22.16,237.9 -119.27,345.5 -111.44,84.7 -602.9,106.4 -702.31,176.2 -99.39,69.7 -160,225.5 -160,225.5 l -599.54,-42.9" /><path
         id="path44"
         style="fill:#2743a0;fill-opacity:1;fill-rule:nonzero;stroke:none"
         d="m 5628.5,4840.9 c -187.7,38.2 -438.61,63.4 -506.54,111.1 -99.39,69.7 -160,225.5 -160,225.5 l -599.54,-42.9 c 0,0 -106.96,-298.3 -118.75,-532.2 32.72,-0.5 83.85,-6.9 141.45,-34.9 98.78,-48.1 222.87,-169.6 341.45,-156 118.55,13.5 474.29,54.1 566.71,24.4 92.42,-29.7 243.91,-32.1 298.98,-13.1 42.59,14.6 -61.87,281.7 36.24,418.1" /><path
         id="path46"
         style="fill:#243365;fill-opacity:1;fill-rule:nonzero;stroke:none"
         d="m 5353.12,4655.2 c 0,0 -431.1,142.1 -534.67,352.9 0,0 -53.73,53.3 -55.55,-19.2 -1.81,-72.5 257.03,-326.5 577.41,-391.7 0,0 63.72,27 12.81,58" /><path
         id="path48"
         style="fill:#acbacf;fill-opacity:1;fill-rule:nonzero;stroke:none"
         d="m 4885.69,5172 c -57.09,56.5 -453.68,-29.1 -535.26,-17.6 -17.75,-53.8 -51.66,-163.1 -76.75,-283 16.41,-14 46.19,-27.6 85.19,5.7 60.85,51.8 41.74,117.1 89.95,106.3 48.2,-10.7 248.83,-52.8 339.54,-18.1 90.72,34.8 158.91,145.8 97.33,206.7" /><path
         id="path50"
         style="fill:#acbacf;fill-opacity:1;fill-rule:nonzero;stroke:none"
         d="m 5470.17,4868.8 c 0,0 -133.34,-58.3 -195.21,-250.9 0,0 -22.88,-62.7 -51.57,-58.9 -28.69,3.8 -57.46,17.7 -22.06,103.6 35.39,85.9 113,201.4 176.71,223.5 0,0 52.89,50 92.13,-17.3" /><path
         id="path52"
         style="fill:#acbacf;fill-opacity:1;fill-rule:nonzero;stroke:none"
         d="m 5320.46,4895.9 c 0,0 -133.34,-58.4 -195.2,-250.9 0,0 -22.88,-62.7 -51.58,-58.9 -28.7,3.8 -57.47,17.7 -22.06,103.6 35.4,85.8 113,201.4 176.71,223.5 0,0 52.88,50 92.13,-17.3" /><path
         id="path54"
         style="fill:#acbacf;fill-opacity:1;fill-rule:nonzero;stroke:none"
         d="m 5165.15,4929.3 c 0,0 -133.35,-58.4 -195.2,-251 0,0 -22.89,-62.6 -51.58,-58.8 -28.7,3.8 -57.48,17.7 -22.09,103.6 35.42,85.8 113.02,201.4 176.74,223.5 0,0 52.88,50 92.13,-17.3" /><path
         id="path56"
         style="fill:#ef303e;fill-opacity:1;fill-rule:nonzero;stroke:none"
         d="m 4236.18,10782.9 c 0,0 108.47,-2248.3 121.91,-2770.6 10.51,-409.3 -204.8,-2750.1 -187,-2795.1 52.44,-132.7 703.53,-184.8 922.59,-15.7 0,0 249.35,1792.5 279.17,2265.7 32.46,515.6 200.92,3195.8 227.91,3275 27.01,79.1 -886.01,355.3 -1364.58,40.7" /><path
         id="path58"
         style="fill:#b6d5e3;fill-opacity:1;fill-rule:nonzero;stroke:none"
         d="m 6577.25,15014.7 c 0,0 109.97,-46.1 302.96,-165.8 193.03,-119.8 487.7,-876.7 488.37,-875.2 0.71,1.4 -878.96,-233.7 -878.96,-233.7 l 87.63,1274.7" /><path
         id="path60"
         style="fill:#ef303e;fill-opacity:1;fill-rule:nonzero;stroke:none"
         d="m 6660.54,11520 c 0,0 105.73,-1106.8 -955.47,-1606.8 -187.42,-88.3 -509.66,-15.9 -545.91,3.7 -36.25,19.7 -846.09,694.6 -922.98,866 -76.89,171.5 5.6,831.1 5.6,831.1 l 2418.76,-94" /><path
         id="path62"
         style="fill:#b6d5e3;fill-opacity:1;fill-rule:nonzero;stroke:none"
         d="m 4900.62,15270.4 c 0,0 -275.61,-113.6 -769.84,-189.3 -95.43,-14.6 -95.16,-514.6 -73.11,-876.2 22.07,-361.5 99.78,-814.3 98.1,-1063.5 -1.67,-249.3 -87.3,-1758.1 -17.37,-1922.3 69.92,-164.1 440.11,-66.2 639.69,-132.6 199.56,-66.5 561.05,-263.5 901.81,-122.9 340.77,140.6 482.71,120.6 671.89,84.1 189.18,-36.6 358.69,36.4 407.03,180.6 48.33,144.1 -153.84,1771.4 -162.71,2031.8 -8.84,260.4 48.51,822.1 83.29,1082.9 34.77,260.8 89.29,470.6 -38.26,621.3 -127.53,150.8 -749.32,255.6 -840.16,284.7 -90.81,29 -900.36,21.4 -900.36,21.4" /><path
         id="path64"
         style="fill:#ef303e;fill-opacity:1;fill-rule:nonzero;stroke:none"
         d="m 4370.59,15123.7 c 0,0 756.61,-1997.2 -228.87,-2384.9 0,0 -135.5,-1548 104.9,-2174 l 2338.15,-78.3 c 0,0 200.19,604 181.5,893.6 -18.68,289.7 -108.82,2405.6 -150.74,2474.6 -41.91,69.1 -35.01,1032.6 -193.8,1230.4 l -232.78,72 c 0,0 147.57,-1078 -63.97,-1233.3 0,0 -885.71,-53.5 -1101.66,97.1 -187.95,131 -398.31,1167 -398.31,1167 l -254.42,-64.2" /><g
         transform="scale(1.00921)"
         id="g66"><path
           id="path68"
           style="fill:#1a2444;fill-opacity:1;fill-rule:nonzero;stroke:none"
           d="m 5960.07,16241.1 c 0,0 -81.69,-199.3 0,-318.2 0,0 -65.8,-28.7 -85.05,0 0,0 41.86,-86.4 120.34,-99.5 0,0 -209.52,-70.8 -322.05,44.7 -112.54,115.4 183.81,431.9 183.81,431.9 l 102.95,-58.9" /></g><g
         transform="scale(1.00921)"
         id="g70"><path
           id="path72"
           style="fill:#1a2444;fill-opacity:1;fill-rule:nonzero;stroke:none"
           d="m 4622.91,16225.4 c 0,0 72.24,-299.2 -40.09,-402 0,0 89.16,-23.6 152.02,31.8 0,0 -30.07,-76.1 -89.49,-95.8 0,0 177.91,-7.4 248.44,137.2 70.55,144.6 -155.47,403.4 -155.47,403.4 l -115.41,-74.6" /></g><path
         id="path74"
         style="fill:#f78e73;fill-opacity:1;fill-rule:nonzero;stroke:none"
         d="m 5646.04,16061.7 h -611.66 c 0,0 19.43,-728.1 -368.91,-873.8 0,0 273.2,-271.8 674.74,-271.8 325.25,9.7 674.73,271.8 674.73,271.8 -388.33,145.7 -368.9,873.8 -368.9,873.8" /><path
         id="path76"
         style="fill:#dd6958;fill-opacity:1;fill-rule:nonzero;stroke:none"
         d="m 5646.01,16026 c -197.22,8.2 -413.3,17.2 -611.48,25.4 0.44,-67.2 -4.33,-451.2 -164.31,-692 458.68,-90 726.17,61 855.32,174.8 -68.28,194.4 -78.36,408.7 -79.53,491.8" /><g
         transform="scale(1.07055)"
         id="g78"><path
           id="path80"
           style="fill:#f78e73;fill-opacity:1;fill-rule:nonzero;stroke:none"
           d="m 4379.15,15492.9 c 0,-445.7 325.96,-807.1 609.12,-807.1 283.16,0 609.1,361.4 609.1,807.1 0,445.7 -156.53,807.1 -609.1,807.1 -452.56,0 -609.12,-361.4 -609.12,-807.1" /></g><g
         transform="scale(1.02787)"
         id="g82"><path
           id="path84"
           style="fill:#f78e73;fill-opacity:1;fill-rule:nonzero;stroke:none"
           d="m 4356.89,16058.9 c 24.08,-105.1 107.47,-175.7 186.28,-157.7 78.83,18.1 123.2,117.9 99.14,223.1 -24.08,105.1 -107.48,175.7 -186.31,157.6 -78.8,-18 -123.18,-117.8 -99.11,-223" /></g><g
         transform="scale(1.02787)"
         id="g86"><path
           id="path88"
           style="fill:#f78e73;fill-opacity:1;fill-rule:nonzero;stroke:none"
           d="m 6033.91,16058.9 c -24.1,-105.1 -107.49,-175.7 -186.28,-157.7 -78.84,18.1 -123.22,117.9 -99.15,223.1 24.07,105.1 107.47,175.7 186.28,157.6 78.83,-18 123.21,-117.8 99.15,-223" /></g><g
         transform="scale(1.024)"
         id="g90"><path
           id="path92"
           style="fill:none;stroke:#c1574d;stroke-width:28.4428997;stroke-linecap:round;stroke-linejoin:miter;stroke-miterlimit:10;stroke-dasharray:none;stroke-opacity:1"
           d="m 5981.43,16279.4 c 0,0 -88.52,20.6 -145.39,-214.9" /></g><g
         transform="scale(1.024)"
         id="g94"><path
           id="path96"
           style="fill:none;stroke:#c1574d;stroke-width:28.4428997;stroke-linecap:round;stroke-linejoin:miter;stroke-miterlimit:10;stroke-dasharray:none;stroke-opacity:1"
           d="m 4451.83,16279.4 c 0,0 88.51,20.6 145.39,-214.9" /></g><g
         transform="scale(1.03387)"
         id="g98"><path
           id="path100"
           style="fill:#1a2444;fill-opacity:1;fill-rule:nonzero;stroke:none"
           d="m 4962.52,16229.8 c -12.53,9 -32.11,18 -50.16,22.5 -18.6,4.8 -38.2,6.7 -57.72,4.4 -19.33,-2.5 -39.27,-7.2 -57.39,-16.8 -18.69,-8.7 -35.53,-21.4 -51.96,-34.9 l -0.38,-0.4 c -3.09,-2.5 -7.64,-2.1 -10.17,1 -2.29,2.8 -2.16,6.8 0.12,9.4 14.67,16.8 30.43,33.3 49.57,46.3 18.49,14.1 40.52,23.5 63.43,30.3 23.09,6.6 47.74,8.4 71.99,6.2 24.82,-2.5 47.14,-7.6 72.57,-19.7 14.2,-6.9 20.2,-23.9 13.37,-38.1 -6.81,-14.2 -23.84,-20.2 -38.03,-13.4 -1.48,0.7 -2.87,1.6 -4.16,2.5 l -1.08,0.7" /></g><g
         transform="scale(1.03336)"
         id="g102"><path
           id="path104"
           style="fill:#1a2444;fill-opacity:1;fill-rule:nonzero;stroke:none"
           d="m 5348.27,16287.6 c 25.91,9.1 47.71,11.5 71.62,12.1 23.36,0.3 46.62,-2.3 68.69,-8.7 21.97,-6.4 43.22,-14.8 62.08,-26.9 19.32,-11.3 36.12,-25.7 51.96,-40.6 2.92,-2.7 3.07,-7.3 0.32,-10.2 -2.44,-2.6 -6.37,-3 -9.26,-1.1 l -0.39,0.3 c -17.31,11.4 -34.89,22.1 -53.85,29.2 -18.52,8 -38.26,12 -57.61,14.4 -19.44,2.2 -38.99,1 -57.78,-2.3 -18.22,-3.2 -38.31,-10 -51.44,-17.4 l -0.85,-0.5 c -13.71,-7.8 -31.12,-3 -38.91,10.7 -7.77,13.7 -2.97,31.1 10.73,38.9 1.47,0.8 3.15,1.6 4.69,2.1" /></g><g
         transform="scale(1.02273)"
         id="g106"><path
           id="path108"
           style="fill:#561826;fill-opacity:1;fill-rule:nonzero;stroke:none"
           d="m 4882.81,16246.1 c 0,-29.7 24.15,-53.9 53.92,-53.9 29.76,0 53.9,24.2 53.9,53.9 0,29.8 -24.14,53.9 -53.9,53.9 -29.77,0 -53.92,-24.1 -53.92,-53.9" /></g><g
         transform="scale(1.02273)"
         id="g110"><path
           id="path112"
           style="fill:#561826;fill-opacity:1;fill-rule:nonzero;stroke:none"
           d="m 5438.82,16246.1 c 0,-29.7 24.15,-53.9 53.91,-53.9 29.77,0 53.89,24.2 53.89,53.9 0,29.8 -24.12,53.9 -53.89,53.9 -29.76,0 -53.91,-24.1 -53.91,-53.9" /></g><g
         transform="scale(1.01473)"
         id="g114"><path
           id="path116"
           style="fill:#f57868;fill-opacity:1;fill-rule:nonzero;stroke:none"
           d="m 4776.5,16152.6 c 0,-81.4 66,-147.4 147.41,-147.4 81.4,0 147.41,66 147.41,147.4 0,81.4 -66.01,147.4 -147.41,147.4 -81.41,0 -147.41,-66 -147.41,-147.4" /></g><g
         transform="scale(1.01473)"
         id="g118"><path
           id="path120"
           style="fill:#f57868;fill-opacity:1;fill-rule:nonzero;stroke:none"
           d="m 5442.95,16152.6 c 0,-81.4 66,-147.4 147.4,-147.4 81.42,0 147.41,66 147.41,147.4 0,81.4 -65.99,147.4 -147.41,147.4 -81.4,0 -147.4,-66 -147.4,-147.4" /></g><g
         transform="scale(1.024)"
         id="g122"><path
           id="path124"
           style="fill:none;stroke:#c1574d;stroke-width:28.44300079;stroke-linecap:round;stroke-linejoin:miter;stroke-miterlimit:10;stroke-dasharray:none;stroke-opacity:1"
           d="m 5325.44,16300 c 0,0 -67.85,-177.2 -44.23,-252.8 23.7,-75.9 85.31,-145.4 79,-161.2 l -79,-66.4" /></g><path
         id="path126"
         style="fill:#f78e73;fill-opacity:1;fill-rule:nonzero;stroke:none"
         d="m 5509.86,16103 c 0,0 -148.04,-12.2 -213.58,0 -65.53,12.1 -128.17,9.2 -150.24,-29.1 -22.08,-38.3 -70.63,-191.8 19.19,-225.8 89.79,-33.9 133.95,-9.7 174.98,17 41.03,26.7 65.3,24.3 94.42,12.2 29.12,-12.2 31.41,-60.1 88.51,-45.8 57.13,14.2 122.65,40.9 112.94,106.4 -9.7,65.5 -70.31,168.6 -126.22,165.1" /><path
         id="path128"
         style="fill:none;stroke:#c1574d;stroke-width:29.12549973;stroke-linecap:round;stroke-linejoin:miter;stroke-miterlimit:10;stroke-dasharray:none;stroke-opacity:1"
         d="m 5539.24,16095.8 c 0,0 -164.22,-119 -334.06,0.1" /><g
         transform="scale(1.09397)"
         id="g130"><path
           id="path132"
           style="fill:#1a2444;fill-opacity:1;fill-rule:nonzero;stroke:none"
           d="m 4285.42,15274 c 0,0 -0.49,-88.4 67.03,-92.7 67.51,-4.3 55.67,-5.5 43.83,92.7 -11.83,98.2 -26.12,226.5 34.26,283.6 60.41,57.2 155.68,104.5 161.29,151.8 0,0 467.04,-340.3 730.35,-264.8 0,0 -236.5,130.3 -258.75,173.9 0,0 313.9,-166.5 388.38,-173.9 0,0 -22.18,-194.1 -38.53,-256.4 -16.36,-62.3 89.5,14.8 121.96,111.2 32.49,96.5 227.73,258.2 53.09,563.9 -148.79,260.4 -476.84,436.7 -706.83,414.1 -360.92,-35.5 -922.55,-327.5 -694.72,-979.2 l 98.64,-24.2" /></g><g
         transform="scale(1.00973)"
         id="g134"><path
           id="path136"
           style="fill:#cee5e9;fill-opacity:1;fill-rule:nonzero;stroke:none"
           d="m 5886.23,16156.5 c -43.51,61.6 -158.42,-47.1 -296.27,34.6 -137.84,81.7 -290.86,108.9 -290.86,108.9 0,0 -152.98,-27.2 -290.82,-108.9 -137.87,-81.7 -252.77,27 -296.28,-34.6 -43.49,-61.6 0,-503.9 587.1,-566.4 587.13,62.5 630.64,504.8 587.13,566.4" /></g><g
         transform="scale(1.02461)"
         id="g138"><path
           id="path140"
           style="fill:#cee5e9;fill-opacity:1;fill-rule:nonzero;stroke:none"
           d="m 4592.5,16300 c 0,0 179.48,-351.1 188.41,-406.8 l 65.02,32.7 c 0,0 -180.8,332.3 -253.43,374.1" /></g><g
         transform="scale(1.00425)"
         id="g142"><path
           id="path144"
           style="fill:#cee5e9;fill-opacity:1;fill-rule:nonzero;stroke:none"
           d="m 4692.39,16300 63.81,-119.2 v -66.8 c 0,0 -63.81,80.1 -63.81,186" /></g><g
         transform="scale(1.02541)"
         id="g146"><path
           id="path148"
           style="fill:#cee5e9;fill-opacity:1;fill-rule:nonzero;stroke:none"
           d="m 5826.82,16300 c 0,0 -97.6,-363.5 -106.52,-419.1 l -63.07,4.9 c 0,0 97.02,372.4 169.59,414.2" /></g><g
         transform="scale(1.00425)"
         id="g150"><path
           id="path152"
           style="fill:#cee5e9;fill-opacity:1;fill-rule:nonzero;stroke:none"
           d="m 5942.82,16300 -63.8,-119.2 v -66.8 c 0,0 63.8,80.1 63.8,186" /></g><g
         transform="scale(1.00973)"
         id="g154"><path
           id="path156"
           style="fill:#bde0ef;fill-opacity:1;fill-rule:nonzero;stroke:none"
           d="m 5589.96,16191.1 c -137.84,81.7 -290.86,108.9 -290.86,108.9 0,0 -1.5,-0.3 -4.29,-0.8 24.1,-36 43.6,-97.1 4.29,-171.8 -61.27,-116.6 18.05,-402.6 -87.72,-444.9 -59.62,-23.9 -214.62,24.7 -338.57,71.6 91.88,-78.4 228.07,-142.9 426.29,-164 587.13,62.5 630.64,504.8 587.13,566.4 -43.51,61.6 -158.42,-47.1 -296.27,34.6" /></g><path
         id="path158"
         style="fill:#b6d5e3;fill-opacity:1;fill-rule:nonzero;stroke:none"
         d="m 4130.78,15081.1 c 0,0 365.38,-189.2 330.35,-582.4 -35.06,-393.2 -326.31,-1106.7 -413.67,-1135.8 -87.36,-29.2 -553.36,131 -684.41,276.6 -131.06,145.6 472.48,1529 767.73,1441.6" /><path
         id="path160"
         style="fill:#f78e73;fill-opacity:1;fill-rule:nonzero;stroke:none"
         d="m 3416.36,10389.5 c 0,0 -184.47,-136 -213.59,-213.7 0,0 -33.97,-315.5 14.56,-402.9 0,0 51.77,-53.3 125.4,0 0,0 93.04,-100.8 175.58,-23.7 0,0 87.36,-73.3 150.48,9.2 0,0 82.51,-72.8 121.35,9.7 0,0 -17.83,270 38.82,295.9 43.7,20 122.54,-60.1 124.01,20 2.6,140.4 -187.1,247.2 -289.03,276.3 -101.95,29.2 -247.58,29.2 -247.58,29.2" /><path
         id="path162"
         style="fill:none;stroke:#38498c;stroke-width:29.12549973;stroke-linecap:round;stroke-linejoin:miter;stroke-miterlimit:10;stroke-dasharray:none;stroke-opacity:1"
         d="m 4170.03,13521.1 c 0,0 681.02,1084.4 57.67,1493.6" /><path
         id="path164"
         style="fill:#f78e73;fill-opacity:1;fill-rule:nonzero;stroke:none"
         d="m 7335.25,13346.7 1705.89,-478.6 -80.05,-239.7 c 0,0 -1458.96,167.7 -1668.2,232 -209.24,64.4 -276.78,393.6 42.36,486.3" /><g
         transform="scale(1.10199)"
         id="g166"><path
           id="path168"
           style="fill:#ef303e;fill-opacity:1;fill-rule:nonzero;stroke:none"
           d="m 4118.58,15608.1 c 0,0 1183.85,76 1466.79,62.4 0,0 -78.47,629.5 -655.43,603.1 0,0 -450.76,-52.9 -584.33,-70.5 -133.59,-17.6 -285.23,-370.7 -227.03,-595" /></g><g
         transform="scale(1.08659)"
         id="g170"><path
           id="path172"
           style="fill:#d02129;fill-opacity:1;fill-rule:nonzero;stroke:none"
           d="m 4263.89,15834.8 c 0,0 676.47,-161.5 1074.82,-143.6 398.35,17.9 697.86,13 653.19,138.1 -44.69,125.1 -355.01,183.5 -355.01,183.5 0,0 -710.71,287.2 -1373,-178" /></g><path
         id="path174"
         style="fill:#f78e73;fill-opacity:1;fill-rule:nonzero;stroke:none"
         d="m 8971.61,12837.2 c 0,0 106.8,97.9 368.92,0 262.13,-97.9 611.63,-379.4 553.39,-447.4 -58.25,-67.9 -446.6,38.9 -601.93,97.1 0,0 126.2,-145.6 87.37,-174.7 -38.83,-29.2 -184.46,145.6 -252.43,184.4 -67.94,38.9 -232.99,126.2 -271.82,213.6" /><g
         transform="scale(1.14031)"
         id="g176"><path
           id="path178"
           style="fill:#5166aa;fill-opacity:1;fill-rule:nonzero;stroke:none"
           d="M 16300,3757.5 H 2303.06 v 6299.6 H 16300 V 3757.5" /></g><path
         id="path180"
         style="fill:#3f5796;fill-opacity:1;fill-rule:nonzero;stroke:none"
         d="M 4391.93,9612.1 V 6140.8 H 7007.67 V 9612.1 L 6665.63,9582 c 0,0 166.69,-1314.8 -861.04,-1343.9 0,0 -1229.63,-77.5 -1172.35,1374 h -240.31" /><g
         transform="scale(1.14031)"
         id="g182"><path
           id="path184"
           style="fill:#3f5796;fill-opacity:1;fill-rule:nonzero;stroke:none"
           d="M 2303.06,7870.86 16300,9073.09 v 984.01 H 2303.06 V 7870.86" /></g><g
         transform="scale(1.17128)"
         id="g186"><path
           id="path188"
           style="fill:#6878c4;fill-opacity:1;fill-rule:nonzero;stroke:none"
           d="M 16300,9304.3 H 1811.17 v 973.8 H 16300 v -973.8" /></g><path
         id="path190"
         style="fill:#92acd0;fill-opacity:1;fill-rule:nonzero;stroke:none"
         d="M 11771.6,12038.6 H 8855.11 v 1320.8 h 2916.49 v -1320.8" /><path
         id="path192"
         style="fill:#6884b2;fill-opacity:1;fill-rule:nonzero;stroke:none"
         d="m 9377.73,12038.6 h -522.62 v 1320.8 h 522.62 v -1320.8" /><path
         id="path194"
         style="fill:#6884b2;fill-opacity:1;fill-rule:nonzero;stroke:none"
         d="m 9655.16,12837.2 h 1941.74 v 255.6 H 9655.16 v -255.6" /><path
         id="path196"
         style="fill:#4f6e96;fill-opacity:1;fill-rule:nonzero;stroke:none"
         d="M 9655.16,13359.4 H 9247.4 v 601.4 h 407.76 v -601.4" /><path
         id="path198"
         style="fill:#4f6e96;fill-opacity:1;fill-rule:nonzero;stroke:none"
         d="m 10179.4,14776.4 h 339.8 v -815.6 h -339.8 v 815.6" /><path
         id="path200"
         style="fill:#3c5a7c;fill-opacity:1;fill-rule:nonzero;stroke:none"
         d="m 10179.4,13960.8 h -155.3 v 815.6 h 155.3 v -815.6" /><path
         id="path202"
         style="fill:#3c5a7c;fill-opacity:1;fill-rule:nonzero;stroke:none"
         d="m 9575.51,14439.4 h 1475.69 v 575.3 H 9575.51 v -575.3" /><path
         id="path204"
         style="fill:#28435e;fill-opacity:1;fill-rule:nonzero;stroke:none"
         d="m 9761.96,14439.4 h -186.45 v 575.3 h 186.45 v -575.3" /><path
         id="path206"
         style="fill:#54b5e9;fill-opacity:1;fill-rule:nonzero;stroke:none"
         d="m 9859.05,14572.4 h 1087.35 v 343.7 H 9859.05 v -343.7" /><path
         id="path208"
         style="fill:#7bb6c1;fill-opacity:1;fill-rule:nonzero;stroke:none"
         d="M 11840.3,9514.4 H 3518.31 v 234.8 h 8321.99 v -234.8" /><path
         id="path210"
         style="fill:#b6d5e3;fill-opacity:1;fill-rule:nonzero;stroke:none"
         d="M 4712.34,9749.2 V 6278 h 2615.73 v 3471.2 l -342.05,-30 c 0,0 166.69,-1314.9 -861.04,-1344 0,0 -1229.59,-77.4 -1172.36,1374 h -240.28" /><path
         id="path212"
         style="fill:#587a28;fill-opacity:1;fill-rule:nonzero;stroke:none"
         d="m 10245.2,7001.9 c 0,0 253.4,1068.9 -396.21,1223.1 -361.31,85.7 -977.34,-637.7 -639.1,-1138.6 338.23,-500.9 1035.31,-84.5 1035.31,-84.5" /><path
         id="path214"
         style="fill:#ee2250;fill-opacity:1;fill-rule:nonzero;stroke:none"
         d="m 8598.77,7943.8 c 0,0 72.67,279.4 40.69,333.5 -31.97,54.1 -306.72,33.8 -341.91,0 -35.21,-33.9 -120.72,-543.3 -64.44,-596.5 56.3,-53.2 300.54,0 300.54,0 l 65.12,263" /><path
         id="path216"
         style="fill:#f57832;fill-opacity:1;fill-rule:nonzero;stroke:none"
         d="m 8290.08,7466.2 c 0,0 3.65,770.5 -165.99,811.1 0,0 -261.03,-30.5 -240.73,-101.5 20.3,-71.1 176.37,-758.7 314.73,-805 138.35,-46.3 91.99,95.4 91.99,95.4" /><path
         id="path218"
         style="fill:#72a82c;fill-opacity:1;fill-rule:nonzero;stroke:none"
         d="m 8061.27,8225 c 0,0 -47.24,295.9 0,377.1 0,0 118.37,-20.3 108.21,50.8 0,0 97.69,55.8 0.62,96.4 0,0 -23.28,81.2 -103.33,40.6 0,0 -120.65,60.9 -151.1,-35.5 0,0 -142.11,86.3 -167.47,-45.7 0,0 -121.82,50.8 -121.82,-71.1 0,0 -131.97,-33.3 -45.7,-120.7 0,0 -11.67,-92.4 103.28,-72.1 0,0 38.84,-55.8 99.75,5.1 0,0 44.83,-25.4 98.55,30.4 0,0 99.39,-258.9 104.48,-294.4 5.07,-35.5 47.6,22.3 74.53,39.1" /><path
         id="path220"
         style="fill:#bf6a47;fill-opacity:1;fill-rule:nonzero;stroke:none"
         d="m 8724.19,7038.3 c 0,0 712.29,951.6 620.91,1245.9 -91.34,294.4 -1086.14,-182.7 -1228.25,-915.2 -142.1,-732.5 462.7,-534.3 607.34,-330.7" /><path
         id="path222"
         style="fill:#e78965;fill-opacity:1;fill-rule:nonzero;stroke:none"
         d="m 8167.9,7543.1 c 140.68,-89.2 364.78,-229.4 434.09,-262.2 89.39,-42.4 -286.21,27.1 -477.9,122 11.12,48 25.95,94.7 43.81,140.2" /><path
         id="path224"
         style="fill:#e78965;fill-opacity:1;fill-rule:nonzero;stroke:none"
         d="m 8639.46,8135.6 131.9,89.2 c 0.14,0.1 0.22,0.1 0.32,0.2 0.27,-0.3 309.51,-335.5 309.51,-364.9 0,-29.4 -355.6,154.2 -441.73,275.5" /><path
         id="path226"
         style="fill:#e78965;fill-opacity:1;fill-rule:nonzero;stroke:none"
         d="m 8426.17,7943.8 c 84.55,-94.6 298.36,-328.8 345.51,-332.2 56.25,-4 -330.53,8.9 -481.6,161.5 40.98,60.6 86.9,117.7 136.09,170.7" /><path
         id="path228"
         style="fill:#ee2250;fill-opacity:1;fill-rule:nonzero;stroke:none"
         d="m 9040.59,6950.1 c 0,0 541.38,74.4 331.59,514.3 0,0 -47.38,115.1 -223.31,88 0,0 -87.98,-25.6 -155.66,4.1 -67.67,29.8 -216.53,85.7 -297.74,34.1 -81.21,-51.7 -284.24,-552.5 345.12,-640.5" /><path
         id="path230"
         style="fill:#a5b338;fill-opacity:1;fill-rule:nonzero;stroke:none"
         d="m 9463.15,6998.4 c 0,0 91.74,-297.9 -79.63,-289.3 -254.61,12.8 -1259.43,241 -1259.43,241 0,0 10.35,-286.7 -192.97,-241 0,0 -203.32,-212.1 -309.9,-7.1 0,0 -365.42,37.6 -228.39,296.4 0,0 -274.65,167.2 -30.73,281.5 0,0 -75.83,396.8 228.67,331.7 0,0 261.98,323.2 458.32,7.2 0,0 253.87,-72.6 149,-338.9 0,0 112.64,-30.7 15,-180.1 l 1250.06,-101.4" /><path
         id="path232"
         style="fill:#f57832;fill-opacity:1;fill-rule:nonzero;stroke:none"
         d="m 7326.89,7294.3 c 0,0 148.15,-35.6 123.78,-273.8 -24.37,-238.2 -300.59,-488.1 -477.38,-338.3 -176.83,149.9 -221.91,544.2 -54.98,646.8 166.94,102.5 408.58,-34.7 408.58,-34.7" /><path
         id="path234"
         style="fill:#ee2250;fill-opacity:1;fill-rule:nonzero;stroke:none"
         d="m 10994.4,7943.8 c 0,0 72.7,279.4 40.7,333.5 -32,54.1 -306.7,33.8 -341.9,0 -35.2,-33.9 -120.8,-543.3 -64.5,-596.5 56.3,-53.2 300.6,0 300.6,0 l 65.1,263" /><path
         id="path236"
         style="fill:#f57832;fill-opacity:1;fill-rule:nonzero;stroke:none"
         d="m 10685.7,7466.2 c 0,0 3.7,770.5 -166,811.1 0,0 -261,-30.5 -240.7,-101.5 20.3,-71.1 176.3,-758.7 314.7,-805 138.4,-46.3 92,95.4 92,95.4" /><path
         id="path238"
         style="fill:#72a82c;fill-opacity:1;fill-rule:nonzero;stroke:none"
         d="m 10456.9,8225 c 0,0 -47.3,295.9 0,377.1 0,0 118.4,-20.3 108.2,50.8 0,0 97.7,55.8 0.6,96.4 0,0 -23.2,81.2 -103.3,40.6 0,0 -120.7,60.9 -151.1,-35.5 0,0 -142.1,86.3 -167.5,-45.7 0,0 -121.8,50.8 -121.8,-71.1 0,0 -131.95,-33.3 -45.67,-120.7 0,0 -11.7,-92.4 103.27,-72.1 0,0 38.8,-55.8 99.7,5.1 0,0 44.8,-25.4 98.6,30.4 0,0 99.4,-258.9 104.4,-294.4 5.1,-35.5 47.6,22.3 74.6,39.1" /><path
         id="path240"
         style="fill:#bf6a47;fill-opacity:1;fill-rule:nonzero;stroke:none"
         d="m 11119.8,7038.3 c 0,0 712.3,951.6 620.9,1245.9 -91.3,294.4 -1086.1,-182.7 -1228.2,-915.2 -142.1,-732.5 462.7,-534.3 607.3,-330.7" /><path
         id="path242"
         style="fill:#e78965;fill-opacity:1;fill-rule:nonzero;stroke:none"
         d="m 10563.5,7543.1 c 140.7,-89.2 364.8,-229.4 434.1,-262.2 89.4,-42.4 -286.2,27.1 -477.9,122 11.1,48 26,94.7 43.8,140.2" /><path
         id="path244"
         style="fill:#e78965;fill-opacity:1;fill-rule:nonzero;stroke:none"
         d="m 11035.1,8135.6 131.9,89.2 c 0.1,0.1 0.2,0.1 0.3,0.2 0.3,-0.3 309.5,-335.5 309.5,-364.9 0,-29.4 -355.6,154.2 -441.7,275.5" /><path
         id="path246"
         style="fill:#e78965;fill-opacity:1;fill-rule:nonzero;stroke:none"
         d="m 10821.8,7943.8 c 84.6,-94.6 298.3,-328.8 345.5,-332.2 56.3,-4 -330.5,8.9 -481.6,161.5 41,60.6 86.9,117.7 136.1,170.7" /><path
         id="path248"
         style="fill:#ee2250;fill-opacity:1;fill-rule:nonzero;stroke:none"
         d="m 11436.2,6950.1 c 0,0 541.4,74.4 331.6,514.3 0,0 -47.4,115.1 -223.3,88 0,0 -88,-25.6 -155.6,4.1 -67.7,29.8 -216.6,85.7 -297.8,34.1 -81.2,-51.7 -284.3,-552.5 345.1,-640.5" /><path
         id="path250"
         style="fill:#f78e73;fill-opacity:1;fill-rule:nonzero;stroke:none"
         d="m 14340.9,13271.3 -441.5,-715.6 -2146.8,-1621.6 c 0,0 60.2,-112 197.8,-167.3 0,0 2177.4,1210.4 2390.5,1408.4 213.2,197.9 425.8,662.2 425.8,662.2 l -425.8,433.9" /><path
         id="path252"
         style="fill:#b91646;fill-opacity:1;fill-rule:nonzero;stroke:none"
         d="m 14790,14322 c 0,0 -613,-713.3 -734.9,-1135.6 0,0 481.1,-564.5 798.9,-564.5 317.8,0 203.9,1451.3 -64,1700.1" /><g
         transform="scale(1.14345)"
         id="g254"><path
           id="path256"
           style="fill:#acbacf;fill-opacity:1;fill-rule:nonzero;stroke:none"
           d="m 15930.1,4280.36 c 0,0 269.2,-301.8 320.2,-512.48 0,0 49.7,-191.17 -323.2,-307.14 0,0 -233.8,-69.52 -447,-187.24 -190,-105.03 -399.3,-184.35 -649.1,-132.14 0,0 -100.3,194.06 -17.3,333.81 65.5,110.02 474.7,296.82 535.1,390.05 60.3,93.23 58.3,246.01 58.3,246.01 l 523,169.13" /></g><g
         transform="scale(1.13736)"
         id="g258"><path
           id="path260"
           style="fill:#ef2a48;fill-opacity:1;fill-rule:nonzero;stroke:none"
           d="m 15037.6,3616.72 c 146.8,97.25 352,205.21 393.5,269.22 60.6,93.73 58.6,247.33 58.6,247.33 l 525.8,170.04 c 0,0 193.9,-217.34 284.5,-412.62 -27.7,-11.69 -69,-34.82 -108.5,-78.51 -67.6,-75 -131.5,-221.31 -237.2,-250.67 -105.8,-29.28 -422.9,-117.2 -491.5,-174.35 -68.5,-57.24 -196.8,-111.49 -250.2,-114.3 -41.4,-2.12 -44.4,261.48 -175,343.86" /></g><g
         transform="scale(1.09904)"
         id="g262"><path
           id="path264"
           style="fill:#a11a34;fill-opacity:1;fill-rule:nonzero;stroke:none"
           d="m 15871,3677.22 c 0,0 329.5,279.15 345.7,501.99 0,0 28.4,66.14 55.8,2.91 27.5,-63.33 -110.3,-379.7 -369.6,-551.49 0,0 -65.8,1.1 -31.9,46.59" /></g><g
         transform="scale(1.13043)"
         id="g266"><path
           id="path268"
           style="fill:#acbacf;fill-opacity:1;fill-rule:nonzero;stroke:none"
           d="m 15695.5,4053.42 c 29.3,68.2 374.6,212.04 440.6,250.25 33.9,-40.07 100.8,-121.98 163.9,-216.11 -9.2,-17.69 -30.1,-39.63 -75,-24.68 -70.2,23.36 -76.4,85.99 -114,60.07 -37.6,-25.92 -213.1,-166.93 -303,-168.52 -89.8,-1.68 -144.2,25.47 -112.5,98.99" /></g><g
         transform="scale(1.08313)"
         id="g270"><path
           id="path272"
           style="fill:#acbacf;fill-opacity:1;fill-rule:nonzero;stroke:none"
           d="m 15922,3880.15 c 0,0 140.4,-4.06 265.5,-154 0,0 43.2,-47.73 67.4,-33.97 24.4,13.75 45.1,36.65 -17.7,100.63 -62.7,64.07 -173.9,139.32 -239,136.09 0,0 -65.4,25.66 -76.2,-48.75" /></g><g
         transform="scale(1.09138)"
         id="g274"><path
           id="path276"
           style="fill:#acbacf;fill-opacity:1;fill-rule:nonzero;stroke:none"
           d="m 15924.9,3928.6 c 0,0 139.4,-4.03 263.5,-152.74 0,0 42.8,-47.55 67,-33.81 24.1,13.65 44.6,36.38 -17.6,99.87 -62.3,63.59 -172.7,138.27 -237.2,135.15 0,0 -65,25.38 -75.7,-48.47" /></g><g
         transform="scale(1.09982)"
         id="g278"><path
           id="path280"
           style="fill:#acbacf;fill-opacity:1;fill-rule:nonzero;stroke:none"
           d="m 15927.8,3983.21 c 0,0 138.3,-4 261.5,-151.57 0,0 42.4,-47.1 66.3,-33.55 24,13.55 44.4,36.1 -17.4,99.2 -61.8,63.01 -171.3,137.2 -235.4,134.02 0,0 -64.4,25.19 -75,-48.1" /></g><g
         transform="scale(1.12516)"
         id="g282"><path
           id="path284"
           style="fill:#1f2637;fill-opacity:1;fill-rule:nonzero;stroke:none"
           d="m 13201.7,8953.49 c 0,0 914.6,-3545.37 2321.6,-4961.97 0,0 471.1,-81.32 776.7,423.94 0,0 -877.5,1736.38 -953.6,1950.84 -76,214.37 -228,2179.95 -285,2308.47 -57,128.52 -1859.7,278.72 -1859.7,278.72" /></g><path
         id="path286"
         style="fill:none;stroke:#161f26;stroke-width:150.89399719;stroke-linecap:round;stroke-linejoin:miter;stroke-miterlimit:10;stroke-dasharray:none;stroke-opacity:1"
         d="m 10108.2,9282.2 971,1352.5" /><path
         id="path288"
         style="fill:none;stroke:#161f26;stroke-width:150.89399719;stroke-linecap:round;stroke-linejoin:miter;stroke-miterlimit:10;stroke-dasharray:none;stroke-opacity:1"
         d="m 12136.6,9171.8 578.6,1177.5" /><path
         id="path290"
         style="fill:#161f26;fill-opacity:1;fill-rule:nonzero;stroke:none"
         d="m 13053.6,10264.9 -2196.8,326.8 c 0,0 -132.3,89.1 -10.5,165.3 l 2259.7,-82.7 -52.4,-409.4" /><path
         id="path292"
         style="fill:#acbacf;fill-opacity:1;fill-rule:nonzero;stroke:none"
         d="m 14593.1,4367.3 c 0,0 -0.3,-462.5 -117.5,-681 0,0 -103.2,-200.8 -509.5,-15.6 0,0 -252.3,118.9 -523.8,180.9 -242,55.3 -480.9,147.1 -654,382 0,0 62.3,241.9 239.5,297.7 139.6,44 630.9,-108.5 753.3,-75 122.5,33.5 237.2,165.3 237.2,165.3 l 574.8,-254.3" /><path
         id="path294"
         style="fill:#ef2a48;fill-opacity:1;fill-rule:nonzero;stroke:none"
         d="m 13243.5,4526.1 c 198.2,-28.8 454,-92.7 537.6,-69.8 122.5,33.5 237.2,165.3 237.2,165.3 l 574.8,-254.3 c 0,0 -0.3,-331.3 -71.4,-565.5 -32.4,11 -84.9,22.8 -151.5,15.6 -114.2,-12.4 -279.3,-88 -391.2,-32.8 -111.8,55.3 -447.5,221.1 -548.9,224.5 -101.5,3.5 -251.4,54.6 -298.9,92.8 -36.7,29.5 160.6,255.4 112.3,424.2" /><path
         id="path296"
         style="fill:#a11a34;fill-opacity:1;fill-rule:nonzero;stroke:none"
         d="m 13448.7,4246 c 0,0 474.5,-12.6 650.9,158.2 0,0 71.8,33.4 47.9,-38.6 -23.8,-72 -368.4,-230.3 -706.7,-181.2 0,0 -53.1,49.1 7.9,61.6" /><path
         id="path298"
         style="fill:#acbacf;fill-opacity:1;fill-rule:nonzero;stroke:none"
         d="m 14032.5,4449.4 c 76.2,35.4 475.6,-103.4 559.9,-121 -1.5,-59.2 -6.8,-178.7 -24.5,-305.5 -21.1,-8 -55.2,-10.8 -81.8,35.6 -41.6,72.5 0.3,130 -50.9,136.5 -51.3,6.5 -305.4,19.9 -382.4,86.2 -77,66.2 -102.4,130.1 -20.3,168.2" /><path
         id="path300"
         style="fill:#acbacf;fill-opacity:1;fill-rule:nonzero;stroke:none"
         d="m 13409.1,4497.6 c 0,0 110.6,-104.6 103.4,-315.9 0,0 0.3,-69.8 29.9,-76.2 29.6,-6.4 62.8,-2.9 58.3,94.1 -4.4,97.1 -40,238.2 -94.8,282.5 0,0 -34.4,67.9 -96.8,15.5" /><path
         id="path302"
         style="fill:#acbacf;fill-opacity:1;fill-rule:nonzero;stroke:none"
         d="m 13566,4471.3 c 0,0 110.6,-104.6 103.3,-315.9 0,0 0.4,-69.8 30,-76.2 29.5,-6.4 62.8,-2.9 58.3,94.1 -4.5,97.1 -39.9,238.1 -94.8,282.5 0,0 -34.4,67.9 -96.8,15.5" /><path
         id="path304"
         style="fill:#acbacf;fill-opacity:1;fill-rule:nonzero;stroke:none"
         d="m 13730.6,4449.3 c 0,0 110.6,-104.7 103.4,-316 0,0 0.3,-69.7 29.9,-76.2 29.6,-6.4 62.8,-2.9 58.3,94.2 -4.4,97 -39.9,238.1 -94.8,282.4 0,0 -34.3,67.9 -96.8,15.6" /><g
         transform="scale(1.07127)"
         id="g306"><path
           id="path308"
           style="fill:#323951;fill-opacity:1;fill-rule:nonzero;stroke:none"
           d="m 13787.1,10007.5 c 0,0 -103.2,-1080.25 932.5,-1568.27 183,-86.16 495.3,-10.73 532.9,3.65 849.2,326.06 955.6,678.63 1007.2,907.24 40.3,178.85 6.8,759.58 6.8,759.58 l -2479.4,-102.2" /></g><g
         transform="scale(1.0512)"
         id="g310"><path
           id="path312"
           style="fill:#323951;fill-opacity:1;fill-rule:nonzero;stroke:none"
           d="m 14727,9583.46 c 0,0 -751.1,-1970.61 -1016.1,-2761.42 -265.2,-790.72 -568.2,-2369.02 -568.2,-2369.02 0,0 206.7,-575.25 863.3,-359.87 0,0 675.9,2457.86 823.8,2641.56 147.8,183.79 1470.2,2349.6 1461.5,2558.7 -8.5,209.19 -1564.3,290.05 -1564.3,290.05" /></g><g
         transform="scale(1.07822)"
         id="g314"><path
           id="path316"
           style="fill:#dc1c50;fill-opacity:1;fill-rule:nonzero;stroke:none"
           d="m 15404.9,13579.9 c 0,0 663.1,-141.3 746.5,-183.6 83.5,-42.4 92.3,-499.1 70.9,-849.7 -21.4,-350.6 -96.8,-789.7 -95.2,-1031.4 1.7,-241.7 172.9,-1895.37 105.1,-2054.52 -67.8,-159.15 -496.9,0 -799,0 -193.6,-64.46 -453.6,-193.56 -784.1,-57.23 -330.4,136.25 -468.1,116.96 -651.5,81.53 -216.9,69.93 -347.8,35.33 -394.6,175.1 -47,139.86 149.1,1717.82 157.7,1970.32 8.6,252.5 -47,797.2 -80.8,1050.1 -33.7,252.9 -86.6,456.3 37.1,602.5 123.7,146.2 799.9,268.7 887.9,296.9 88.1,28.2 800,0 800,0" /></g><g
         transform="scale(1.05658)"
         id="g318"><path
           id="path320"
           style="fill:#f78e73;fill-opacity:1;fill-rule:nonzero;stroke:none"
           d="m 16300,12560.7 c 0,0 -596.6,-1272.8 -727.5,-1460.1 -130.9,-187.4 -2777.6,-997.9 -2777.6,-997.9 l -86.5,273.9 c 0,0 2325.4,1045.7 2394.8,1103.3 69.4,57.6 494.6,1080.8 494.6,1080.8 h 702.2" /></g><g
         transform="scale(1.0561)"
         id="g322"><path
           id="path324"
           style="fill:#dd6958;fill-opacity:1;fill-rule:nonzero;stroke:none"
           d="m 15910.1,11737.1 c -162,137.4 -339.5,313 -468.2,445.1 90.2,209.2 162.9,384.1 162.9,384.1 h 650.2 l 45,-15.6 c -37.9,-80.6 -216.8,-460.5 -389.9,-813.6" /></g><path
         id="path326"
         style="fill:#1a2444;fill-opacity:1;fill-rule:nonzero;stroke:none"
         d="m 15364,15838.6 c 0,0 -0.1,-81.3 37.2,-140 37.3,-58.8 27,-36.6 42.3,-105.2 15.3,-68.6 64.7,-216 157.4,-205.3 92.6,10.7 145.2,7.1 145.2,7.1 l -191.1,443.4 h -191" /><g
         transform="scale(1.04034)"
         id="g328"><path
           id="path330"
           style="fill:#1a2444;fill-opacity:1;fill-rule:nonzero;stroke:none"
           d="m 16288.6,15193.9 c 0,0 11.4,-98 -55.2,-161.8 -66.6,-63.8 -101.9,-125.1 -146.1,-175.7 -44.1,-50.7 -115.7,-78.8 -161.2,-58.3 -45.6,20.6 161.2,426.3 161.2,426.3 l 201.3,-30.5" /></g><g
         transform="scale(1.03402)"
         id="g332"><path
           id="path334"
           style="fill:#f78e73;fill-opacity:1;fill-rule:nonzero;stroke:none"
           d="m 15308.4,14985 h 309.3 309.2 c 0,0 -19.6,-736.3 373.1,-883.6 0,0 -276.3,-274.9 -682.3,-274.9 -328.9,9.9 -682.3,274.9 -682.3,274.9 392.7,147.3 373,883.6 373,883.6" /></g><g
         transform="scale(1.02088)"
         id="g336"><path
           id="path338"
           style="fill:#dd6958;fill-opacity:1;fill-rule:nonzero;stroke:none"
           d="m 15505.4,15141.2 c 202,8.4 423.4,17.6 626.3,26 -0.5,-68.8 4.4,-462.1 168.3,-708.7 -469.8,-92.2 -743.8,62.5 -876,179 69.9,199.1 80.2,418.6 81.4,503.7" /></g><g
         transform="scale(1.03965)"
         id="g340"><path
           id="path342"
           style="fill:#f78e73;fill-opacity:1;fill-rule:nonzero;stroke:none"
           d="m 16188.9,15431 c 0,-479.9 -351,-869 -655.8,-869 -304.9,0 -655.8,389.1 -655.8,869 0,479.9 168.5,869 655.8,869 487.3,0 655.8,-389.1 655.8,-869" /></g><g
         transform="scale(1.04761)"
         id="g344"><path
           id="path346"
           style="fill:#f78e73;fill-opacity:1;fill-rule:nonzero;stroke:none"
           d="m 16275.3,15234.6 c -24.6,-107.9 -110.3,-180.3 -191.1,-161.8 -80.9,18.5 -126.4,121 -101.7,228.8 24.7,107.9 110.3,180.3 191.1,161.8 80.9,-18.6 126.4,-121 101.7,-228.8" /></g><path
         id="path348"
         style="fill:#f78e73;fill-opacity:1;fill-rule:nonzero;stroke:none"
         d="m 15247.8,15959.8 c 25.9,-112.9 115.5,-188.8 200.2,-169.4 84.7,19.4 132.4,126.7 106.5,239.7 -25.8,113 -115.4,188.8 -200.2,169.4 -84.7,-19.4 -132.4,-126.7 -106.5,-239.7" /><path
         id="path350"
         style="fill:none;stroke:#c1574d;stroke-width:30.45280075;stroke-linecap:round;stroke-linejoin:miter;stroke-miterlimit:10;stroke-dasharray:none;stroke-opacity:1"
         d="m 15328.4,16130.9 c 0,0 94.8,22 155.7,-230.1" /><g
         transform="scale(1.04087)"
         id="g352"><path
           id="path354"
           style="fill:none;stroke:#c1574d;stroke-width:29.25720024;stroke-linecap:round;stroke-linejoin:miter;stroke-miterlimit:10;stroke-dasharray:none;stroke-opacity:1"
           d="m 16300,15497.5 c 0,0 -91,21.2 -149.5,-221" /></g><g
         transform="scale(1.01945)"
         id="g356"><path
           id="path358"
           style="fill:#1a2444;fill-opacity:1;fill-rule:nonzero;stroke:none"
           d="m 16024.1,15986.3 c 26.9,13 50.6,18.3 77,21 25.7,2.3 51.8,0.4 76.3,-6.6 24.3,-7.2 47.7,-17.2 67.3,-32.1 20.3,-13.8 37,-31.4 52.5,-49.2 2.8,-3.1 2.4,-8 -0.7,-10.8 -2.9,-2.5 -7.1,-2.5 -9.9,-0.1 l -0.4,0.3 c -17.5,14.4 -35.3,27.9 -55.2,37 -19.2,10.3 -40.3,15.2 -60.8,17.9 -20.7,2.4 -41.5,0.4 -61.2,-4.7 -19.1,-4.8 -39.9,-14.3 -53.2,-23.8 l -1,-0.7 c -13.6,-9.8 -32.5,-6.7 -42.2,6.9 -9.7,13.6 -6.6,32.5 7,42.2 1.3,1 3,2 4.5,2.7" /></g><g
         transform="scale(1.00076)"
         id="g360"><path
           id="path362"
           style="fill:#1a2444;fill-opacity:1;fill-rule:nonzero;stroke:none"
           d="m 15915.7,16231.3 c -14.2,8 -35.9,15.3 -55.6,18.8 -20.3,3.6 -41.3,4.9 -62.3,2.5 -20.9,-2.5 -42.2,-6.9 -62.2,-15.5 -20.5,-7.7 -39.5,-19.2 -58.1,-31.6 l -0.4,-0.3 c -3.6,-2.3 -8.5,-1.4 -10.8,2.2 -2.2,3.3 -1.6,7.5 1.1,10.1 17.1,15.9 35.2,31.6 56.1,43.8 20.3,13 43.3,22.1 67,29 23.9,6.9 48.9,9.7 74.1,9.4 25.9,-0.6 49.4,-3.3 77.4,-13 16,-5.7 24.5,-23.2 18.9,-39.3 -5.5,-16 -23.1,-24.5 -39.2,-18.9 -1.7,0.6 -3.4,1.3 -4.9,2.2 l -1.1,0.6" /></g><g
         transform="scale(1.01296)"
         id="g364"><path
           id="path366"
           style="fill:#561826;fill-opacity:1;fill-rule:nonzero;stroke:none"
           d="m 16300,15868.1 c 0,-31.4 -25.6,-56.9 -57,-56.9 -31.4,0 -56.8,25.5 -56.8,56.9 0,31.4 25.4,56.9 56.8,56.9 31.4,0 57,-25.5 57,-56.9" /></g><path
         id="path368"
         style="fill:#561826;fill-opacity:1;fill-rule:nonzero;stroke:none"
         d="m 15916.6,16073.7 c 0,-31.8 -25.8,-57.7 -57.7,-57.7 -31.8,0 -57.6,25.9 -57.6,57.7 0,31.8 25.8,57.6 57.6,57.6 31.9,0 57.7,-25.8 57.7,-57.6" /><g
         transform="scale(1.02238)"
         id="g370"><path
           id="path372"
           style="fill:#f57868;fill-opacity:1;fill-rule:nonzero;stroke:none"
           d="m 16300,15491.8 c 0,-84.4 -68.5,-152.9 -153,-152.9 -84.5,0 -153,68.5 -153,152.9 0,84.5 68.5,153 153,153 84.5,0 153,-68.5 153,-153" /></g><path
         id="path374"
         style="fill:#f57868;fill-opacity:1;fill-rule:nonzero;stroke:none"
         d="m 15957.7,15838.6 c 0,-86.4 -70,-156.4 -156.4,-156.4 -86.4,0 -156.4,70 -156.4,156.4 0,86.3 70,156.4 156.4,156.4 86.4,0 156.4,-70.1 156.4,-156.4" /><path
         id="path376"
         style="fill:none;stroke:#c1574d;stroke-width:30.45280075;stroke-linecap:round;stroke-linejoin:miter;stroke-miterlimit:10;stroke-dasharray:none;stroke-opacity:1"
         d="m 16030.8,16152.9 c 0,0 72.6,-189.8 47.4,-270.8 -25.4,-81.2 -91.4,-155.6 -84.6,-172.5 l 84.6,-71.1" /><g
         transform="scale(1.00772)"
         id="g378"><path
           id="path380"
           style="fill:#f78e73;fill-opacity:1;fill-rule:nonzero;stroke:none"
           d="m 15849.3,15418.9 c 0,0 153.6,-12.6 221.6,0 67.9,12.5 132.9,9.5 155.9,-30.3 22.9,-39.7 73.2,-198.9 -20,-234.2 -93.2,-35.2 -138.9,-10 -181.5,17.7 -42.6,27.7 -67.8,25.2 -98,12.6 -30.2,-12.6 -32.6,-62.3 -91.8,-47.6 -59.3,14.8 -127.2,42.5 -117.2,110.5 10.1,68 72.9,174.9 131,171.3" /></g><path
         id="path382"
         style="fill:none;stroke:#c1574d;stroke-width:30.45280075;stroke-linecap:round;stroke-linejoin:miter;stroke-miterlimit:10;stroke-dasharray:none;stroke-opacity:1"
         d="m 15940.9,15530.4 c 0,0 171.7,-124.5 349.3,0.1" /><g
         transform="scale(1.0705)"
         id="g384"><path
           id="path386"
           style="fill:#1a2444;fill-opacity:1;fill-rule:nonzero;stroke:none"
           d="m 15827.8,15132.7 c 0,0 -149.7,-173.8 -174.2,-117.6 0,0 -103.9,75.9 -86.3,170.4 17.7,94.4 31.6,151.3 -22.8,208.2 -54.4,56.9 -149.3,75.9 -174.6,145.4 -25.2,69.6 -46,126.5 -152.5,126.5 -106.6,0 -265.2,6.3 -277.5,56.9 0,0 -127.7,-106.7 -259,-158.1 0,0 -101.1,-69.5 -101.1,-139.1 0,-69.5 -3.9,-175.7 -43,-201.6 0,0 44.6,-112.9 -50.3,-154.7 -94.8,-41.8 -179,83.8 -210.4,20.1 0,0 -72,-3.9 -39,134.6 33,138.4 70.9,119.8 51.9,252.4 -18.9,132.6 -79.2,227.4 29.9,296.9 109.2,69.6 193.8,107.5 217.9,221.3 24.1,113.8 126.8,214.9 277.7,170.7 151,-44.3 258.8,-23 312.3,10.6 53.5,33.6 180.1,124.4 297,0 116.9,-124.4 139.5,-137.1 210.3,-143.4 70.9,-6.3 177.3,-34.5 193.7,-150 16.3,-115.5 63,-203.5 106.1,-260.7 43,-57.1 80.9,-95 55.7,-183.5 -25.4,-88.5 -67.2,-75.9 -55.7,-170.7 11.4,-94.8 -5.4,-162.7 -25.4,-198.3 0,0 -21.2,55.6 -80.7,63.7" /></g><g
         transform="scale(1.03091)"
         id="g388"><path
           id="path390"
           style="fill:#cee5e9;fill-opacity:1;fill-rule:nonzero;stroke:none"
           d="m 15052.8,15280.6 c 44.7,63 162.3,-48.3 303.5,35.4 141.2,83.7 297.9,111.5 297.9,111.5 0,0 156.6,-27.8 297.9,-111.5 141.1,-83.7 258.8,27.6 303.4,-35.4 44.5,-63.1 0,-516 -601.3,-580 -601.4,64 -645.9,516.9 -601.4,580" /></g><g
         transform="scale(1.03145)"
         id="g392"><path
           id="path394"
           style="fill:#cee5e9;fill-opacity:1;fill-rule:nonzero;stroke:none"
           d="m 16300,15665.3 c 0,0 -186.4,-364.7 -195.7,-422.5 l -67.5,34 c 0,0 187.8,345 263.2,388.5" /></g><g
         transform="scale(1.03101)"
         id="g396"><path
           id="path398"
           style="fill:#cee5e9;fill-opacity:1;fill-rule:nonzero;stroke:none"
           d="m 16300,15335.3 -65.1,-121.3 v -68.1 c 0,0 65.1,81.6 65.1,189.4" /></g><path
         id="path400"
         style="fill:#cee5e9;fill-opacity:1;fill-rule:nonzero;stroke:none"
         d="m 15485.4,16171.5 c 0,0 104.6,-389.7 114.2,-449.4 l 67.6,5.3 c 0,0 -104,399.2 -181.8,444.1" /><path
         id="path402"
         style="fill:#cee5e9;fill-opacity:1;fill-rule:nonzero;stroke:none"
         d="m 15492.5,15810.9 67,-125.1 v -70.2 c 0,0 -67,84.1 -67,195.3" /><g
         transform="scale(1.01767)"
         id="g404"><path
           id="path406"
           style="fill:#bde0ef;fill-opacity:1;fill-rule:nonzero;stroke:none"
           d="m 15555.9,15515.1 c 143.1,84.8 301.8,113 301.8,113 0,0 1.6,-0.3 4.5,-0.8 -25,-37.3 -45.3,-100.7 -4.5,-178.2 63.6,-120.9 -18.7,-417.7 91,-461.6 61.9,-24.7 222.7,25.6 351.3,74.3 -95.3,-81.4 -236.6,-148.2 -442.3,-170.1 -609.1,64.8 -654.2,523.7 -609.1,587.6 45.2,63.8 164.4,-48.9 307.3,35.8" /></g><g
         transform="scale(1.09371)"
         id="g408"><path
           id="path410"
           style="fill:#ee2654;fill-opacity:1;fill-rule:nonzero;stroke:none"
           d="m 15975.1,13211.1 c 0,0 -337,140.6 -570.3,-156 -233.3,-296.6 -498.3,-984 -456.6,-1061.6 41.7,-77.5 470.9,-271.5 657.6,-256 186.7,15.4 694.2,1297.3 369.3,1473.6" /></g><g
         transform="scale(1.05658)"
         id="g412"><path
           id="path414"
           style="fill:none;stroke:#941924;stroke-width:28.82209969;stroke-linecap:round;stroke-linejoin:miter;stroke-miterlimit:10;stroke-dasharray:none;stroke-opacity:1"
           d="m 15473.5,12415 c 0,0 240.5,1268.5 826.5,1293.3" /></g><g
         transform="scale(1.07155)"
         id="g416"><path
           id="path418"
           style="fill:none;stroke:#941924;stroke-width:28.41950035;stroke-linecap:round;stroke-linejoin:miter;stroke-miterlimit:10;stroke-dasharray:none;stroke-opacity:1"
           d="m 15928.6,11980.2 c 0,0 135,16.6 371.4,651.4" /></g><path
         id="path420"
         style="fill:#f78e73;fill-opacity:1;fill-rule:nonzero;stroke:none"
         d="m 13716.7,10819 c 0,0 -27.6,-235.7 -332.1,-250.9 0,0 -185.7,9.1 -353.2,78.7 0,0 -397.4,-352.9 -458.3,-170.1 -60.9,182.7 135.3,494 412.8,602.2 243.6,94.9 669.9,-60.9 669.9,-60.9" /><path
         id="path422"
         style="fill:none;stroke:#c1574d;stroke-width:30.45280075;stroke-linecap:round;stroke-linejoin:miter;stroke-miterlimit:10;stroke-dasharray:none;stroke-opacity:1"
         d="m 12634,10439.3 c 0,0 263.9,329.6 385.8,379.7 121.8,50.2 453.4,-85.2 453.4,-85.2" /><path
         id="path424"
         style="fill:none;stroke:#c1574d;stroke-width:30.45280075;stroke-linecap:round;stroke-linejoin:miter;stroke-miterlimit:10;stroke-dasharray:none;stroke-opacity:1"
         d="m 12603.6,10510.5 c 0,0 299.4,406 416.2,421.3 116.7,15.2 380.6,-50.8 380.6,-50.8" /><path
         id="path426"
         style="fill:none;stroke:#c1574d;stroke-width:30.45280075;stroke-linecap:round;stroke-linejoin:miter;stroke-miterlimit:10;stroke-dasharray:none;stroke-opacity:1"
         d="m 12603.6,10634.7 c 0,0 213.1,327.5 334.9,363 121.9,35.6 436.5,25.4 436.5,25.4" /><path
         id="path428"
         style="fill:#f78e73;fill-opacity:1;fill-rule:nonzero;stroke:none"
         d="m 12136.6,10951.8 c 0,0 -1.5,-205.3 -262,-247.1 0,0 -160.6,-9.6 -311.2,34.5 0,0 -308.6,-340.9 -378.1,-189.5 -69.6,151.5 69.9,437.7 298.4,556.8 200.5,104.6 581.8,10.7 581.8,10.7" /><path
         id="path430"
         style="fill:none;stroke:#c1574d;stroke-width:26.34799957;stroke-linecap:round;stroke-linejoin:miter;stroke-miterlimit:10;stroke-dasharray:none;stroke-opacity:1"
         d="m 11241.1,10523.4 c 0,0 196.1,308.2 296.1,362.8 100,54.6 398,-30.6 398,-30.6" /><path
         id="path432"
         style="fill:none;stroke:#c1574d;stroke-width:26.34799957;stroke-linecap:round;stroke-linejoin:miter;stroke-miterlimit:10;stroke-dasharray:none;stroke-opacity:1"
         d="m 11208.3,10581.7 c 0,0 219.3,377.4 318.3,401.5 99,24.1 332.2,-7.9 332.2,-7.9" /><path
         id="path434"
         style="fill:none;stroke:#c1574d;stroke-width:26.34799957;stroke-linecap:round;stroke-linejoin:miter;stroke-miterlimit:10;stroke-dasharray:none;stroke-opacity:1"
         d="m 11196.6,10688.6 c 0,0 152.5,301.7 254,343.7 101.4,42 373,62.9 373,62.9" /><path
         id="path436"
         style="fill:none;stroke:#577796;stroke-width:150.89399719;stroke-linecap:round;stroke-linejoin:miter;stroke-miterlimit:10;stroke-dasharray:none;stroke-opacity:1"
         d="M 6381.43,6548.4 H 12182.6 V 9171.8 L 8415.29,8674.9 H 6381.43 Z" /><path
         id="path438"
         style="fill:none;stroke:#577796;stroke-width:150.89399719;stroke-linecap:round;stroke-linejoin:miter;stroke-miterlimit:10;stroke-dasharray:none;stroke-opacity:1"
         d="M 8415.29,8674.9 V 6548.4" /><path
         id="path440"
         style="fill:none;stroke:#577796;stroke-width:150.89399719;stroke-linecap:round;stroke-linejoin:miter;stroke-miterlimit:10;stroke-dasharray:none;stroke-opacity:1"
         d="M 12182.6,9171.8 10108.2,9282.2 6381.43,8674.9" /><path
         id="path442"
         style="fill:none;stroke:#577796;stroke-width:150.89399719;stroke-linecap:round;stroke-linejoin:miter;stroke-miterlimit:10;stroke-dasharray:none;stroke-opacity:1"
         d="M 12182.6,6548.4 V 4932.7 c 0,-306.3 -250.6,-556.9 -556.9,-556.9 H 6658.76" /><path
         id="path444"
         style="fill:none;stroke:#577796;stroke-width:150.89399719;stroke-linecap:round;stroke-linejoin:miter;stroke-miterlimit:10;stroke-dasharray:none;stroke-opacity:1"
         d="M 11177.2,6548.4 V 4932.7 c 0,-306.3 -250.6,-556.9 -556.9,-556.9 H 6658.76" /><path
         id="path446"
         style="fill:#161f26;fill-opacity:1;fill-rule:nonzero;stroke:none"
         d="m 11122.3,3697.1 c 0,-223.5 181.1,-404.6 404.6,-404.6 223.4,0 404.5,181.1 404.5,404.6 0,223.4 -181.1,404.6 -404.5,404.6 -223.5,0 -404.6,-181.2 -404.6,-404.6" /><path
         id="path448"
         style="fill:#acbacf;fill-opacity:1;fill-rule:nonzero;stroke:none"
         d="m 11274.6,3697.1 c 0,-139.3 112.9,-252.3 252.3,-252.3 139.3,0 252.2,113 252.2,252.3 0,139.3 -112.9,252.3 -252.2,252.3 -139.4,0 -252.3,-113 -252.3,-252.3" /><path
         id="path450"
         style="fill:#577796;fill-opacity:1;fill-rule:nonzero;stroke:none"
         d="m 11654.6,4316.9 c 0.9,-5.7 1.5,-11.5 1.5,-17.5 v -448.1 c 0,-58.3 -47.1,-105.4 -105.4,-105.4 h -52.7 c -58.2,0 -105.4,47.1 -105.4,105.4 v 448.1 c 0,6 0.6,11.8 1.5,17.5 h 260.5" /><path
         id="path452"
         style="fill:#161f26;fill-opacity:1;fill-rule:nonzero;stroke:none"
         d="m 6760.27,3697.1 c 0,-223.5 181.14,-404.6 404.57,-404.6 223.45,0 404.58,181.1 404.58,404.6 0,223.4 -181.13,404.6 -404.58,404.6 -223.43,0 -404.57,-181.2 -404.57,-404.6" /><path
         id="path454"
         style="fill:#acbacf;fill-opacity:1;fill-rule:nonzero;stroke:none"
         d="m 6912.57,3697.1 c 0,-139.3 112.95,-252.3 252.27,-252.3 139.34,0 252.29,113 252.29,252.3 0,139.3 -112.95,252.3 -252.29,252.3 -139.32,0 -252.27,-113 -252.27,-252.3" /><path
         id="path456"
         style="fill:#577796;fill-opacity:1;fill-rule:nonzero;stroke:none"
         d="m 7292.55,4316.9 c 0.97,-5.7 1.58,-11.5 1.58,-17.5 v -448.1 c 0,-58.3 -47.18,-105.4 -105.42,-105.4 h -52.72 c -58.24,0 -105.43,47.1 -105.43,105.4 v 448.1 c 0,6 0.61,11.8 1.57,17.5 h 260.42" /><path
         id="path458"
         style="fill:#161f26;fill-opacity:1;fill-rule:nonzero;stroke:none"
         d="m 7685.47,3697.1 c 0,-223.5 181.16,-404.6 404.6,-404.6 223.44,0 404.57,181.1 404.57,404.6 0,223.4 -181.13,404.6 -404.57,404.6 -223.44,0 -404.6,-181.2 -404.6,-404.6" /><path
         id="path460"
         style="fill:#acbacf;fill-opacity:1;fill-rule:nonzero;stroke:none"
         d="m 7837.76,3697.1 c 0,-139.3 112.95,-252.3 252.31,-252.3 139.32,0 252.26,113 252.26,252.3 0,139.3 -112.94,252.3 -252.26,252.3 -139.36,0 -252.31,-113 -252.31,-252.3" /><path
         id="path462"
         style="fill:#577796;fill-opacity:1;fill-rule:nonzero;stroke:none"
         d="m 8217.76,4316.9 c 0.96,-5.7 1.59,-11.5 1.59,-17.5 v -448.1 c 0,-58.3 -47.21,-105.4 -105.43,-105.4 h -52.72 c -58.25,0 -105.44,47.1 -105.44,105.4 v 448.1 c 0,6 0.64,11.8 1.58,17.5 h 260.42" /><path
         id="path464"
         style="fill:#161f26;fill-opacity:1;fill-rule:nonzero;stroke:none"
         d="m 10174.4,3697.1 c 0,-223.5 181.2,-404.6 404.6,-404.6 223.5,0 404.6,181.1 404.6,404.6 0,223.4 -181.1,404.6 -404.6,404.6 -223.4,0 -404.6,-181.2 -404.6,-404.6" /><path
         id="path466"
         style="fill:#acbacf;fill-opacity:1;fill-rule:nonzero;stroke:none"
         d="m 10326.8,3697.1 c 0,-139.3 112.9,-252.3 252.2,-252.3 139.4,0 252.3,113 252.3,252.3 0,139.3 -112.9,252.3 -252.3,252.3 -139.3,0 -252.2,-113 -252.2,-252.3" /><path
         id="path468"
         style="fill:#577796;fill-opacity:1;fill-rule:nonzero;stroke:none"
         d="m 10706.7,4316.9 c 1,-5.7 1.6,-11.5 1.6,-17.5 v -448.1 c 0,-58.3 -47.2,-105.4 -105.4,-105.4 h -52.7 c -58.2,0 -105.5,47.1 -105.5,105.4 v 448.1 c 0,6 0.7,11.8 1.6,17.5 h 260.4" /><path
         id="path470"
         style="fill:#161f26;fill-opacity:1;fill-rule:nonzero;stroke:none"
         d="m 12897.9,10466.3 c 0,-115 93.2,-208.1 208.1,-208.1 115,0 208.1,93.1 208.1,208.1 0,114.9 -93.1,208 -208.1,208 -114.9,0 -208.1,-93.1 -208.1,-208" /><path
         id="path472"
         style="fill:#f3f9fb;fill-opacity:1;fill-rule:nonzero;stroke:none"
         d="m 12989,10466.3 c 0,-64.7 52.4,-117 117,-117 64.7,0 117,52.3 117,117 0,64.6 -52.3,117 -117,117 -64.6,0 -117,-52.4 -117,-117" /><path
         id="path474"
         style="fill:none;stroke:#941924;stroke-width:30.45280075;stroke-linecap:round;stroke-linejoin:miter;stroke-miterlimit:10;stroke-dasharray:none;stroke-opacity:1"
         d="m 14706.3,14043 c 0,0 151.9,-1097.1 131.6,-1421.1" /><path
         id="path476"
         style="fill:#a5b338;fill-opacity:1;fill-rule:nonzero;stroke:none"
         d="m 11858.8,6998.4 c 0,0 91.7,-297.9 -79.7,-289.3 -254.6,12.8 -1259.4,241 -1259.4,241 0,0 10.4,-286.7 -192.9,-241 0,0 -203.4,-212.1 -309.9,-7.1 0,0 -365.47,37.6 -228.43,296.4 0,0 -274.65,167.2 -30.75,281.5 0,0 -75.84,396.8 228.67,331.7 0,0 262.01,323.2 458.31,7.2 0,0 253.9,-72.6 149,-338.9 0,0 112.7,-30.7 15,-180.1 l 1250.1,-101.4" /><path
         id="path478"
         style="fill:#f57832;fill-opacity:1;fill-rule:nonzero;stroke:none"
         d="m 9722.54,7294.3 c 0,0 148.14,-35.6 123.78,-273.8 -24.4,-238.2 -300.59,-488.1 -477.41,-338.3 -176.83,149.9 -221.93,544.2 -54.97,646.8 166.95,102.5 408.6,-34.7 408.6,-34.7" /><path
         id="path480"
         style="fill:none;stroke:#577796;stroke-width:71.05680084;stroke-linecap:round;stroke-linejoin:miter;stroke-miterlimit:10;stroke-dasharray:none;stroke-opacity:1"
         d="m 11533.5,9086.1 -56.7,-2537.7" /><path
         id="path482"
         style="fill:none;stroke:#577796;stroke-width:71.05680084;stroke-linecap:round;stroke-linejoin:miter;stroke-miterlimit:10;stroke-dasharray:none;stroke-opacity:1"
         d="M 10794.8,8997.2 10610.1,6548.4" /><path
         id="path484"
         style="fill:none;stroke:#577796;stroke-width:71.05680084;stroke-linecap:round;stroke-linejoin:miter;stroke-miterlimit:10;stroke-dasharray:none;stroke-opacity:1"
         d="M 9947.05,8876.9 9848.99,6548.4" /><path
         id="path486"
         style="fill:none;stroke:#577796;stroke-width:71.05680084;stroke-linecap:round;stroke-linejoin:miter;stroke-miterlimit:10;stroke-dasharray:none;stroke-opacity:1"
         d="M 9353.21,8798.6 9281.99,6548.4" /><path
         id="path488"
         style="fill:none;stroke:#577796;stroke-width:71.05680084;stroke-linecap:round;stroke-linejoin:miter;stroke-miterlimit:10;stroke-dasharray:none;stroke-opacity:1"
         d="M 8777.22,8722.6 V 6548.4" /><path
         id="path490"
         style="fill:none;stroke:#577796;stroke-width:71.05680084;stroke-linecap:round;stroke-linejoin:miter;stroke-miterlimit:10;stroke-dasharray:none;stroke-opacity:1"
         d="M 7882.26,8674.9 V 6548.4" /><path
         id="path492"
         style="fill:none;stroke:#577796;stroke-width:71.05680084;stroke-linecap:round;stroke-linejoin:miter;stroke-miterlimit:10;stroke-dasharray:none;stroke-opacity:1"
         d="M 7352.35,8674.9 V 6548.4" /><path
         id="path494"
         style="fill:none;stroke:#577796;stroke-width:71.05680084;stroke-linecap:round;stroke-linejoin:miter;stroke-miterlimit:10;stroke-dasharray:none;stroke-opacity:1"
         d="M 6814.18,8674.9 V 6548.4" /><path
         id="path496"
         style="fill:none;stroke:#577796;stroke-width:71.05680084;stroke-linecap:round;stroke-linejoin:miter;stroke-miterlimit:10;stroke-dasharray:none;stroke-opacity:1"
         d="M 12182.6,8612.3 8415.29,8225 6381.43,8174.6" /><path
         id="path498"
         style="fill:none;stroke:#577796;stroke-width:71.05680084;stroke-linecap:round;stroke-linejoin:miter;stroke-miterlimit:10;stroke-dasharray:none;stroke-opacity:1"
         d="M 12182.6,7819.4 8374.39,7657.1 6381.43,7712.6" /><path
         id="path500"
         style="fill:none;stroke:#577796;stroke-width:71.05680084;stroke-linecap:round;stroke-linejoin:miter;stroke-miterlimit:10;stroke-dasharray:none;stroke-opacity:1"
         d="M 12182.6,7163.1 H 6381.43" /><path
         id="path502"
         style="fill:none;stroke:#577796;stroke-width:150.89399719;stroke-linecap:round;stroke-linejoin:miter;stroke-miterlimit:10;stroke-dasharray:none;stroke-opacity:1"
         d="M 12182.6,6044.1 H 6658.76" /></g></g></svg>