<?xml version="1.0" encoding="UTF-8" standalone="no"?>
<svg
   xmlns:dc="http://purl.org/dc/elements/1.1/"
   xmlns:cc="http://creativecommons.org/ns#"
   xmlns:rdf="http://www.w3.org/1999/02/22-rdf-syntax-ns#"
   xmlns:svg="http://www.w3.org/2000/svg"
   xmlns="http://www.w3.org/2000/svg"
   viewBox="0 0 3122.6667 2562.6667"
   height="2562.6667"
   width="3122.6667"
   xml:space="preserve"
   id="svg2"
   version="1.1"><metadata
     id="metadata8"><rdf:RDF><cc:Work
         rdf:about=""><dc:format>image/svg+xml</dc:format><dc:type
           rdf:resource="http://purl.org/dc/dcmitype/StillImage" /></cc:Work></rdf:RDF></metadata><defs
     id="defs6" /><g
     transform="matrix(1.3333333,0,0,-1.3333333,0,2562.6667)"
     id="g10"><g
       transform="scale(0.1)"
       id="g12"><g
         transform="scale(1.43658)"
         id="g14"><path
           id="path16"
           style="fill:#75c8db;fill-opacity:1;fill-rule:nonzero;stroke:none"
           d="M 16300,1.81094 H 0 V 13379 H 16300 V 1.81094" /></g><g
         transform="scale(1.29977)"
         id="g18"><path
           id="path20"
           style="fill:#ffffff;fill-opacity:1;fill-rule:nonzero;stroke:none"
           d="M 2188.74,1956.35 H 14972.8 c 91.6,69.78 180.5,143.03 263.6,224.27 225.8,220.73 252.9,481.24 216.8,778.91 -29.4,241.97 23.7,347.83 228.8,456.7 163.5,86.86 321.1,184.57 397,361.99 221,516.63 -192.7,1212.37 -419.7,1662.68 -99.6,197.65 -257.5,444.7 -156.4,670.58 128.4,286.97 359.3,479.01 406.2,807.15 92.8,648.42 -529.9,1054.75 -846.4,1534.15 -193.7,293.36 -148.1,579.81 -79.3,904.94 64.5,305.55 96.9,600.74 11.3,905.48 -136.9,487.1 -606,1021.9 -1068.7,1227.4 -212,94.3 -426.3,49 -639.6,-14.5 -239.9,-71.5 -418.5,-20.9 -608.7,139 -294.8,247.8 -468.9,611.3 -724.6,895.1 -293.9,326.2 -698.3,463 -1130.9,420.2 -641.5,-63.5 -1181.24,-581.4 -1843.97,-391.4 -276.05,79.2 -524.33,231.4 -802.77,304.2 -265.04,69.2 -539.76,61.5 -807.67,17.8 -560.26,-91.2 -946.3,-456.8 -1273.97,-890.9 -362.06,-479.7 -723.45,-1008 -1312.04,-1219.6 -266.19,-95.7 -547.17,-146.4 -817.78,-227.5 -274.05,-82.1 -520.41,-228.4 -743.42,-404.2 -450.77,-355.6 -682.08,-851.66 -641.85,-1421.38 45.96,-650.25 150.73,-1329.97 310.62,-1961.29 82.71,-326.67 156.97,-647.96 51.01,-977.71 -66.61,-207.43 -218.23,-379.45 -368.88,-530.64 -325.42,-326.59 -711.06,-584.02 -945.19,-992.41 -234.98,-409.99 -203.16,-883.85 -80.6,-1323.54 101.34,-363.76 303.63,-764.83 643.05,-955.48" /></g><g
         transform="scale(1.35526)"
         id="g22"><path
           id="path24"
           style="fill:#283a7a;fill-opacity:1;fill-rule:nonzero;stroke:none"
           d="M 16300,1775.45 H 978.105 V 1919.7 H 16300 v -144.25" /></g><path
         id="path26"
         style="fill:#a9adde;fill-opacity:1;fill-rule:nonzero;stroke:none"
         d="M 8098.95,3279.8 H 1973.8 v 9528 h 6125.15 v -9528" /><path
         id="path28"
         style="fill:#e6e7f1;fill-opacity:1;fill-rule:nonzero;stroke:none"
         d="m 1973.8,3279.8 h -317.61 v 9528 h 317.61 v -9528" /><path
         id="path30"
         style="fill:#e6e7f1;fill-opacity:1;fill-rule:nonzero;stroke:none"
         d="m 8416.56,3279.8 h -317.61 v 9528 h 317.61 v -9528" /><path
         id="path32"
         style="fill:#e7366b;fill-opacity:1;fill-rule:nonzero;stroke:none"
         d="m 1973.8,10872 h 6125.15 v 363 H 1973.8 v -363" /><path
         id="path34"
         style="fill:#b42152;fill-opacity:1;fill-rule:nonzero;stroke:none"
         d="M 1973.8,11068.5 V 10872 h 6125.15 v 196.5 H 1973.8" /><path
         id="path36"
         style="fill:#8189c9;fill-opacity:1;fill-rule:nonzero;stroke:none"
         d="M 8098.95,10236.7 H 1973.8 v 635.3 h 6125.15 v -635.3" /><path
         id="path38"
         style="fill:#e7366b;fill-opacity:1;fill-rule:nonzero;stroke:none"
         d="m 1973.8,8724.4 h 6125.15 v 362.9 H 1973.8 v -362.9" /><path
         id="path40"
         style="fill:#b42152;fill-opacity:1;fill-rule:nonzero;stroke:none"
         d="M 1973.8,8921 V 8724.4 H 8098.95 V 8921 H 1973.8" /><path
         id="path42"
         style="fill:#8189c9;fill-opacity:1;fill-rule:nonzero;stroke:none"
         d="M 8098.95,8089.2 H 1973.8 v 635.2 h 6125.15 v -635.2" /><path
         id="path44"
         style="fill:#e7366b;fill-opacity:1;fill-rule:nonzero;stroke:none"
         d="m 1973.8,6576.8 h 6125.15 v 363 H 1973.8 v -363" /><path
         id="path46"
         style="fill:#b42152;fill-opacity:1;fill-rule:nonzero;stroke:none"
         d="m 1973.8,6773.4 v -196.6 h 6125.15 v 196.6 H 1973.8" /><path
         id="path48"
         style="fill:#8189c9;fill-opacity:1;fill-rule:nonzero;stroke:none"
         d="M 8098.95,5941.6 H 1973.8 v 635.2 h 6125.15 v -635.2" /><path
         id="path50"
         style="fill:#fafdfb;fill-opacity:1;fill-rule:nonzero;stroke:none"
         d="M 7850.23,5162.8 C 7823.35,4993 7604.55,5009.7 7604.55,5009.7 v 1042.9 c 252.65,26.9 245.68,-134.7 245.68,-134.7 0,0 26.97,-585.3 0,-755.1 z m -245.68,1045.9 -157.11,139.9 h -337.71 l -60.58,-82.4 -251.93,-361.7 V 4786 h 1180.49 v 1004.1 c 0,0 -12.88,406.5 -373.16,418.6" /><path
         id="path52"
         style="fill:#4e96d7;fill-opacity:1;fill-rule:nonzero;stroke:none"
         d="M 7493.31,4888.5 H 6881.8 v 1076.6 h 611.51 V 4888.5" /><path
         id="path54"
         style="fill:#4e96d7;fill-opacity:1;fill-rule:nonzero;stroke:none"
         d="m 7109.73,6348.6 h 337.71 v 121.1 h -337.71 v -121.1" /><path
         id="path56"
         style="fill:#fafdfb;fill-opacity:1;fill-rule:nonzero;stroke:none"
         d="M 6584.85,5162.8 C 6557.9,4993 6339.17,5009.7 6339.17,5009.7 v 1042.9 c 252.59,26.9 245.68,-134.7 245.68,-134.7 0,0 26.93,-585.3 0,-755.1 z m -245.68,1045.9 -157.08,139.9 h -337.75 l -60.57,-82.4 -251.96,-361.7 V 4786 h 1180.48 v 1004.1 c 0,0 -12.87,406.5 -373.12,418.6" /><path
         id="path58"
         style="fill:#4e96d7;fill-opacity:1;fill-rule:nonzero;stroke:none"
         d="m 6227.89,4888.5 h -611.48 v 1076.6 h 611.48 V 4888.5" /><path
         id="path60"
         style="fill:#4e96d7;fill-opacity:1;fill-rule:nonzero;stroke:none"
         d="m 5844.34,6348.6 h 337.75 v 121.1 h -337.75 v -121.1" /><path
         id="path62"
         style="fill:#fafdfb;fill-opacity:1;fill-rule:nonzero;stroke:none"
         d="M 5319.47,5162.8 C 5292.54,4993 5073.75,5009.7 5073.75,5009.7 v 1042.9 c 252.66,26.9 245.72,-134.7 245.72,-134.7 0,0 26.93,-585.3 0,-755.1 z m -245.72,1045.9 -157.1,139.9 h -337.73 l -60.57,-82.4 -251.92,-361.7 V 4786 h 1180.5 v 1004.1 c 0,0 -12.9,406.5 -373.18,418.6" /><path
         id="path64"
         style="fill:#4e96d7;fill-opacity:1;fill-rule:nonzero;stroke:none"
         d="M 4962.5,4888.5 H 4351.03 V 5965.1 H 4962.5 V 4888.5" /><path
         id="path66"
         style="fill:#4e96d7;fill-opacity:1;fill-rule:nonzero;stroke:none"
         d="m 4578.92,6348.6 h 337.73 v 121.1 h -337.73 v -121.1" /><path
         id="path68"
         style="fill:#e7366b;fill-opacity:1;fill-rule:nonzero;stroke:none"
         d="m 1973.8,4429.2 h 6125.15 v 363 H 1973.8 v -363" /><path
         id="path70"
         style="fill:#b42152;fill-opacity:1;fill-rule:nonzero;stroke:none"
         d="m 1973.8,4625.9 v -196.7 h 6125.15 v 196.7 H 1973.8" /><path
         id="path72"
         style="fill:#8189c9;fill-opacity:1;fill-rule:nonzero;stroke:none"
         d="M 8098.95,3794 H 1973.8 v 635.2 H 8098.95 V 3794" /><path
         id="path74"
         style="fill:#e6e7f1;fill-opacity:1;fill-rule:nonzero;stroke:none"
         d="M 8416.56,2947.4 H 1656.19 v 332.4 h 6760.37 v -332.4" /><path
         id="path76"
         style="fill:#38436c;fill-opacity:1;fill-rule:nonzero;stroke:none"
         d="m 2353.77,2610.5 h -521.75 v 336.9 h 782.67 l -260.92,-336.9" /><path
         id="path78"
         style="fill:#38436c;fill-opacity:1;fill-rule:nonzero;stroke:none"
         d="m 7718.97,2610.5 h 521.76 v 336.9 h -782.66 l 260.9,-336.9" /><path
         id="path80"
         style="fill:#5ec9c7;fill-opacity:1;fill-rule:nonzero;stroke:none"
         d="m 2150.51,11235.2 h 750.23 v 983 h -750.23 v -983" /><path
         id="path82"
         style="fill:#fafdfb;fill-opacity:1;fill-rule:nonzero;stroke:none"
         d="m 2094.47,12114.8 h 888.19 v 103.4 h -888.19 v -103.4" /><path
         id="path84"
         style="fill:#fafdfb;fill-opacity:1;fill-rule:nonzero;stroke:none"
         d="m 2900.74,11597.4 h -750.23 v 241.5 h 750.23 v -241.5" /><path
         id="path86"
         style="fill:#5ec9c7;fill-opacity:1;fill-rule:nonzero;stroke:none"
         d="m 3141.33,11235.2 h 750.23 v 983 h -750.23 v -983" /><path
         id="path88"
         style="fill:#fafdfb;fill-opacity:1;fill-rule:nonzero;stroke:none"
         d="m 3085.28,12114.8 h 888.19 v 103.4 h -888.19 v -103.4" /><path
         id="path90"
         style="fill:#fafdfb;fill-opacity:1;fill-rule:nonzero;stroke:none"
         d="m 3891.56,11597.4 h -750.23 v 241.5 h 750.23 v -241.5" /><path
         id="path92"
         style="fill:#5ec9c7;fill-opacity:1;fill-rule:nonzero;stroke:none"
         d="m 4132.14,11235.2 h 750.23 v 983 h -750.23 v -983" /><path
         id="path94"
         style="fill:#fafdfb;fill-opacity:1;fill-rule:nonzero;stroke:none"
         d="m 4076.09,12114.8 h 888.19 v 103.4 h -888.19 v -103.4" /><path
         id="path96"
         style="fill:#fafdfb;fill-opacity:1;fill-rule:nonzero;stroke:none"
         d="m 4882.37,11597.4 h -750.23 v 241.5 h 750.23 v -241.5" /><path
         id="path98"
         style="fill:#4a78a8;fill-opacity:1;fill-rule:nonzero;stroke:none"
         d="m 5097.33,11235.2 h 678.05 l 107.9,1171.2 h -893.83 l 107.88,-1171.2" /><path
         id="path100"
         style="fill:#fafdfb;fill-opacity:1;fill-rule:nonzero;stroke:none"
         d="m 4979.76,12283.1 h 913.27 v 123.3 h -913.27 v -123.3" /><path
         id="path102"
         style="fill:#fafdfb;fill-opacity:1;fill-rule:nonzero;stroke:none"
         d="m 5815.13,11666.7 26.49,287.7 h -810.53 l 26.51,-287.7 h 757.53" /><path
         id="path104"
         style="fill:#fafdfb;fill-opacity:1;fill-rule:nonzero;stroke:none"
         d="m 7153.1,11235.2 h 717.85 l 114.18,1239.9 h -946.2 l 114.17,-1239.9" /><path
         id="path106"
         style="fill:#eb86c8;fill-opacity:1;fill-rule:nonzero;stroke:none"
         d="m 7028.59,12344.6 h 966.84 v 130.5 h -966.84 v -130.5" /><path
         id="path108"
         style="fill:#eb86c8;fill-opacity:1;fill-rule:nonzero;stroke:none"
         d="m 7913.04,11692 27.98,304.5 h -858.01 l 28.03,-304.5 h 802" /><path
         id="path110"
         style="fill:#fafdfb;fill-opacity:1;fill-rule:nonzero;stroke:none"
         d="m 6154.93,11235.2 h 717.84 l 114.17,1239.9 h -946.18 l 114.17,-1239.9" /><path
         id="path112"
         style="fill:#eb86c8;fill-opacity:1;fill-rule:nonzero;stroke:none"
         d="m 6030.42,12344.6 h 966.85 v 130.5 h -966.85 v -130.5" /><path
         id="path114"
         style="fill:#eb86c8;fill-opacity:1;fill-rule:nonzero;stroke:none"
         d="m 6914.86,11692 28.01,304.5 h -858.05 l 28.05,-304.5 h 801.99" /><path
         id="path116"
         style="fill:#244562;fill-opacity:1;fill-rule:nonzero;stroke:none"
         d="m 2131.73,3279.8 h 487.96 V 4375.7 H 2131.73 V 3279.8" /><path
         id="path118"
         style="fill:#172f3f;fill-opacity:1;fill-rule:nonzero;stroke:none"
         d="m 2131.73,4199.7 h 351.96 c 0,0 6.79,-606.5 -311.63,-919.9 h 447.63 v 1095.9 h -487.96 v -176" /><path
         id="path120"
         style="fill:#fafdfb;fill-opacity:1;fill-rule:nonzero;stroke:none"
         d="m 2619.69,4263.7 h -487.96 v 112 h 487.96 v -112" /><path
         id="path122"
         style="fill:#fafdfb;fill-opacity:1;fill-rule:nonzero;stroke:none"
         d="m 2563.68,3559.8 h -375.97 v 473.9 h 375.97 v -473.9" /><path
         id="path124"
         style="fill:#244562;fill-opacity:1;fill-rule:nonzero;stroke:none"
         d="m 2619.69,3279.8 h 487.97 V 4375.7 H 2619.69 V 3279.8" /><path
         id="path126"
         style="fill:#172f3f;fill-opacity:1;fill-rule:nonzero;stroke:none"
         d="m 2619.69,4199.7 h 351.92 c 0,0 6.83,-606.5 -311.59,-919.9 h 447.64 v 1095.9 h -487.97 v -176" /><path
         id="path128"
         style="fill:#fafdfb;fill-opacity:1;fill-rule:nonzero;stroke:none"
         d="m 3107.66,4263.7 h -487.97 v 112 h 487.97 v -112" /><path
         id="path130"
         style="fill:#fafdfb;fill-opacity:1;fill-rule:nonzero;stroke:none"
         d="m 3051.63,3559.8 h -375.99 v 473.9 h 375.99 v -473.9" /><path
         id="path132"
         style="fill:#244562;fill-opacity:1;fill-rule:nonzero;stroke:none"
         d="m 3220.62,3279.8 h 487.96 V 4375.7 H 3220.62 V 3279.8" /><path
         id="path134"
         style="fill:#172f3f;fill-opacity:1;fill-rule:nonzero;stroke:none"
         d="m 3220.62,4199.7 h 351.98 c 0,0 6.78,-606.5 -311.61,-919.9 h 447.59 v 1095.9 h -487.96 v -176" /><path
         id="path136"
         style="fill:#fafdfb;fill-opacity:1;fill-rule:nonzero;stroke:none"
         d="m 3708.58,4263.7 h -487.96 v 112 h 487.96 v -112" /><path
         id="path138"
         style="fill:#fafdfb;fill-opacity:1;fill-rule:nonzero;stroke:none"
         d="m 3652.59,3559.8 h -375.95 v 473.9 h 375.95 v -473.9" /><path
         id="path140"
         style="fill:#244562;fill-opacity:1;fill-rule:nonzero;stroke:none"
         d="m 3708.58,3279.8 h 487.99 V 4375.7 H 3708.58 V 3279.8" /><path
         id="path142"
         style="fill:#172f3f;fill-opacity:1;fill-rule:nonzero;stroke:none"
         d="m 3708.58,4199.7 h 351.96 c 0,0 6.81,-606.5 -311.59,-919.9 h 447.62 v 1095.9 h -487.99 v -176" /><path
         id="path144"
         style="fill:#fafdfb;fill-opacity:1;fill-rule:nonzero;stroke:none"
         d="m 4196.57,4263.7 h -487.99 v 112 h 487.99 v -112" /><path
         id="path146"
         style="fill:#fafdfb;fill-opacity:1;fill-rule:nonzero;stroke:none"
         d="m 4140.55,3559.8 h -375.98 v 473.9 h 375.98 v -473.9" /><path
         id="path148"
         style="fill:#244562;fill-opacity:1;fill-rule:nonzero;stroke:none"
         d="M 4309.54,3279.8 H 4797.5 V 4375.7 H 4309.54 V 3279.8" /><path
         id="path150"
         style="fill:#172f3f;fill-opacity:1;fill-rule:nonzero;stroke:none"
         d="m 4309.54,4199.7 h 351.99 c 0,0 6.78,-606.5 -311.62,-919.9 h 447.59 v 1095.9 h -487.96 v -176" /><path
         id="path152"
         style="fill:#fafdfb;fill-opacity:1;fill-rule:nonzero;stroke:none"
         d="m 4797.5,4263.7 h -487.96 v 112 h 487.96 v -112" /><path
         id="path154"
         style="fill:#fafdfb;fill-opacity:1;fill-rule:nonzero;stroke:none"
         d="m 4741.51,3559.8 h -375.95 v 473.9 h 375.95 v -473.9" /><path
         id="path156"
         style="fill:#244562;fill-opacity:1;fill-rule:nonzero;stroke:none"
         d="m 4797.5,3279.8 h 487.96 V 4375.7 H 4797.5 V 3279.8" /><path
         id="path158"
         style="fill:#172f3f;fill-opacity:1;fill-rule:nonzero;stroke:none"
         d="m 4797.5,4199.7 h 351.95 c 0,0 6.83,-606.5 -311.58,-919.9 h 447.59 V 4375.7 H 4797.5 v -176" /><path
         id="path160"
         style="fill:#fafdfb;fill-opacity:1;fill-rule:nonzero;stroke:none"
         d="M 5285.46,4263.7 H 4797.5 v 112 h 487.96 v -112" /><path
         id="path162"
         style="fill:#fafdfb;fill-opacity:1;fill-rule:nonzero;stroke:none"
         d="m 5229.48,3559.8 h -376.02 v 473.9 h 376.02 v -473.9" /><path
         id="path164"
         style="fill:#b04e3a;fill-opacity:1;fill-rule:nonzero;stroke:none"
         d="m 6015.39,3934 c -17.55,70 -115.07,143.2 -127.73,201.5 -12.63,58.3 -20.47,243 -20.47,243 h -89.66 -89.7 c 0,0 -7.84,-184.7 -20.48,-243 -12.65,-58.3 -110.18,-131.5 -127.73,-201.5 -17.55,-69.9 0,-654.2 0,-654.2 h 237.91 237.86 c 0,0 17.56,584.3 0,654.2" /><path
         id="path166"
         style="fill:#983b2e;fill-opacity:1;fill-rule:nonzero;stroke:none"
         d="m 5777.53,3279.8 h 237.86 c 0,0 17.56,584.3 0,654.2 -17.55,70 -115.07,143.2 -127.73,201.5 -12.63,58.3 -20.47,243 -20.47,243 h -89.66 -89.7 c 0,0 -2.62,-61.6 -7.27,-124.8 h 117.47 c 0,0 -10.56,-149.8 34.42,-264.7 44.99,-114.8 0,-659.2 0,-659.2 l -293.05,-42.5 c 0.12,-4.9 0.22,-7.5 0.22,-7.5 h 237.91" /><path
         id="path168"
         style="fill:#fafdfb;fill-opacity:1;fill-rule:nonzero;stroke:none"
         d="m 5652.64,4293.6 h 249.72 v 84.9 h -249.72 v -84.9" /><path
         id="path170"
         style="fill:#efbc23;fill-opacity:1;fill-rule:nonzero;stroke:none"
         d="m 5995.03,3559.5 h -442.29 v 304.6 h 442.29 v -304.6" /><path
         id="path172"
         style="fill:#b04e3a;fill-opacity:1;fill-rule:nonzero;stroke:none"
         d="m 6525.82,3934 c -17.54,70 -115.05,143.2 -127.74,201.5 -12.63,58.3 -20.47,243 -20.47,243 h -89.67 -89.68 c 0,0 -7.85,-184.7 -20.49,-243 -12.65,-58.3 -110.18,-131.5 -127.72,-201.5 -17.55,-69.9 0,-654.2 0,-654.2 h 237.89 237.88 c 0,0 17.55,584.3 0,654.2" /><path
         id="path174"
         style="fill:#983b2e;fill-opacity:1;fill-rule:nonzero;stroke:none"
         d="m 6287.94,3279.8 h 237.88 c 0,0 17.55,584.3 0,654.2 -17.54,70 -115.05,143.2 -127.74,201.5 -12.63,58.3 -20.47,243 -20.47,243 h -89.67 -89.68 c 0,0 -2.61,-61.6 -7.26,-124.8 h 117.45 c 0,0 -10.55,-149.8 34.42,-264.7 44.99,-114.8 0,-659.2 0,-659.2 l -293.05,-42.5 c 0.13,-4.9 0.23,-7.5 0.23,-7.5 h 237.89" /><path
         id="path176"
         style="fill:#fafdfb;fill-opacity:1;fill-rule:nonzero;stroke:none"
         d="m 6163.07,4293.6 h 249.73 v 84.9 h -249.73 v -84.9" /><path
         id="path178"
         style="fill:#efbc23;fill-opacity:1;fill-rule:nonzero;stroke:none"
         d="m 6505.44,3559.5 h -442.28 v 304.6 h 442.28 v -304.6" /><path
         id="path180"
         style="fill:#b04e3a;fill-opacity:1;fill-rule:nonzero;stroke:none"
         d="m 7036.27,3934 c -17.55,70 -115.07,143.2 -127.73,201.5 -12.64,58.3 -20.48,243 -20.48,243 h -89.68 -89.7 c 0,0 -7.85,-184.7 -20.45,-243 -12.69,-58.3 -110.18,-131.5 -127.74,-201.5 -17.54,-69.9 0,-654.2 0,-654.2 h 237.89 237.89 c 0,0 17.52,584.3 0,654.2" /><path
         id="path182"
         style="fill:#983b2e;fill-opacity:1;fill-rule:nonzero;stroke:none"
         d="m 6798.38,3279.8 h 237.89 c 0,0 17.52,584.3 0,654.2 -17.55,70 -115.07,143.2 -127.73,201.5 -12.64,58.3 -20.48,243 -20.48,243 h -89.68 -89.7 c 0,0 -2.6,-61.6 -7.27,-124.8 h 117.46 c 0,0 -10.52,-149.8 34.43,-264.7 44.98,-114.8 0,-659.2 0,-659.2 l -293.06,-42.5 c 0.16,-4.9 0.25,-7.5 0.25,-7.5 h 237.89" /><path
         id="path184"
         style="fill:#fafdfb;fill-opacity:1;fill-rule:nonzero;stroke:none"
         d="m 6673.52,4293.6 h 249.69 v 84.9 h -249.69 v -84.9" /><path
         id="path186"
         style="fill:#efbc23;fill-opacity:1;fill-rule:nonzero;stroke:none"
         d="m 7015.86,3559.5 h -442.25 v 304.6 h 442.25 v -304.6" /><path
         id="path188"
         style="fill:#b04e3a;fill-opacity:1;fill-rule:nonzero;stroke:none"
         d="m 7546.7,3934 c -17.55,70 -115.08,143.2 -127.74,201.5 -12.63,58.3 -20.47,243 -20.47,243 h -89.7 -89.66 c 0,0 -7.84,-184.7 -20.48,-243 -12.68,-58.3 -110.19,-131.5 -127.73,-201.5 -17.55,-69.9 0,-654.2 0,-654.2 h 237.87 237.91 c 0,0 17.54,584.3 0,654.2" /><path
         id="path190"
         style="fill:#983b2e;fill-opacity:1;fill-rule:nonzero;stroke:none"
         d="m 7308.79,3279.8 h 237.91 c 0,0 17.54,584.3 0,654.2 -17.55,70 -115.08,143.2 -127.74,201.5 -12.63,58.3 -20.47,243 -20.47,243 h -89.7 -89.66 c 0,0 -2.63,-61.6 -7.26,-124.8 h 117.46 c 0,0 -10.55,-149.8 34.42,-264.7 44.96,-114.8 0,-659.2 0,-659.2 l -293.09,-42.5 c 0.17,-4.9 0.26,-7.5 0.26,-7.5 h 237.87" /><path
         id="path192"
         style="fill:#fafdfb;fill-opacity:1;fill-rule:nonzero;stroke:none"
         d="m 7183.95,4293.6 h 249.72 v 84.9 h -249.72 v -84.9" /><path
         id="path194"
         style="fill:#efbc23;fill-opacity:1;fill-rule:nonzero;stroke:none"
         d="m 7526.31,3559.5 h -442.28 v 304.6 h 442.28 v -304.6" /><path
         id="path196"
         style="fill:#b04e3a;fill-opacity:1;fill-rule:nonzero;stroke:none"
         d="m 8057.12,3934 c -17.56,70 -115.08,143.2 -127.74,201.5 -12.63,58.3 -20.47,243 -20.47,243 h -89.69 -89.68 c 0,0 -7.83,-184.7 -20.46,-243 -12.66,-58.3 -110.19,-131.5 -127.74,-201.5 -17.55,-69.9 0,-654.2 0,-654.2 h 237.88 237.9 c 0,0 17.54,584.3 0,654.2" /><path
         id="path198"
         style="fill:#983b2e;fill-opacity:1;fill-rule:nonzero;stroke:none"
         d="m 7819.22,3279.8 h 237.9 c 0,0 17.54,584.3 0,654.2 -17.56,70 -115.08,143.2 -127.74,201.5 -12.63,58.3 -20.47,243 -20.47,243 h -89.69 -89.68 c 0,0 -2.61,-61.6 -7.25,-124.8 h 117.46 c 0,0 -10.55,-149.8 34.43,-264.7 44.95,-114.8 0,-659.2 0,-659.2 l -293.06,-42.5 c 0.13,-4.9 0.22,-7.5 0.22,-7.5 h 237.88" /><path
         id="path200"
         style="fill:#fafdfb;fill-opacity:1;fill-rule:nonzero;stroke:none"
         d="m 7694.37,4293.6 h 249.72 v 84.9 h -249.72 v -84.9" /><path
         id="path202"
         style="fill:#efbc23;fill-opacity:1;fill-rule:nonzero;stroke:none"
         d="m 8036.74,3559.5 h -442.28 v 304.6 h 442.28 v -304.6" /><path
         id="path204"
         style="fill:#eb86c8;fill-opacity:1;fill-rule:nonzero;stroke:none"
         d="M 3905.45,6280 H 3655.14 L 3529.89,5705.4 V 4786 h 250.45 250.32 v 919.4 L 3905.45,6280" /><path
         id="path206"
         style="fill:#d563b8;fill-opacity:1;fill-rule:nonzero;stroke:none"
         d="m 4030.66,4786 v 919.4 L 3905.45,6280 h -250.31 l -41.41,-189.8 c 119.28,-184.1 308.54,-606.6 166.61,-1304.2 h 250.32" /><path
         id="path208"
         style="fill:#fdfde1;fill-opacity:1;fill-rule:nonzero;stroke:none"
         d="m 3618.35,6199.1 h 326.53 v 80.9 h -326.53 v -80.9" /><path
         id="path210"
         style="fill:#fdfde1;fill-opacity:1;fill-rule:nonzero;stroke:none"
         d="m 4007.54,5099.4 h -462.31 v 616.4 h 462.31 v -616.4" /><path
         id="path212"
         style="fill:#efbc23;fill-opacity:1;fill-rule:nonzero;stroke:none"
         d="m 3274.11,6280 h -250.4 l -125.2,-574.6 V 4786 h 250.42 250.35 v 919.4 L 3274.11,6280" /><path
         id="path214"
         style="fill:#d3a01c;fill-opacity:1;fill-rule:nonzero;stroke:none"
         d="m 3399.28,4786 v 919.4 L 3274.11,6280 h -250.4 l -41.34,-189.8 c 119.25,-184.1 308.52,-606.6 166.56,-1304.2 h 250.35" /><path
         id="path216"
         style="fill:#fdfde1;fill-opacity:1;fill-rule:nonzero;stroke:none"
         d="m 2986.93,6199.1 h 326.58 v 80.9 h -326.58 v -80.9" /><path
         id="path218"
         style="fill:#fdfde1;fill-opacity:1;fill-rule:nonzero;stroke:none"
         d="m 3376.16,5099.4 h -462.3 v 616.4 h 462.3 v -616.4" /><path
         id="path220"
         style="fill:#efbc23;fill-opacity:1;fill-rule:nonzero;stroke:none"
         d="M 2688.85,6280 H 2438.5 L 2313.29,5705.4 V 4786 h 250.39 250.37 v 919.4 l -125.2,574.6" /><path
         id="path222"
         style="fill:#d3a01c;fill-opacity:1;fill-rule:nonzero;stroke:none"
         d="m 2814.05,4786 v 919.4 L 2688.85,6280 H 2438.5 l -41.37,-189.8 C 2516.4,5906.1 2705.66,5483.6 2563.68,4786 h 250.37" /><path
         id="path224"
         style="fill:#fdfde1;fill-opacity:1;fill-rule:nonzero;stroke:none"
         d="m 2401.72,6199.1 h 326.5 v 80.9 h -326.5 v -80.9" /><path
         id="path226"
         style="fill:#fdfde1;fill-opacity:1;fill-rule:nonzero;stroke:none"
         d="m 2790.94,5099.4 h -462.31 v 616.4 h 462.31 v -616.4" /><path
         id="path228"
         style="fill:#5ec9c7;fill-opacity:1;fill-rule:nonzero;stroke:none"
         d="m 3104.18,6939.8 h 757.95 v 993.1 h -757.95 v -993.1" /><path
         id="path230"
         style="fill:#fafdfb;fill-opacity:1;fill-rule:nonzero;stroke:none"
         d="m 3047.57,7828.4 h 897.31 v 104.5 h -897.31 v -104.5" /><path
         id="path232"
         style="fill:#fafdfb;fill-opacity:1;fill-rule:nonzero;stroke:none"
         d="m 3862.13,7305.7 h -757.95 v 243.9 h 757.95 v -243.9" /><path
         id="path234"
         style="fill:#4a78a8;fill-opacity:1;fill-rule:nonzero;stroke:none"
         d="m 5148.83,6931.1 h 575.03 l 91.44,993.1 h -757.92 l 91.45,-993.1" /><path
         id="path236"
         style="fill:#fafdfb;fill-opacity:1;fill-rule:nonzero;stroke:none"
         d="m 5049.12,7819.7 h 774.47 v 104.5 h -774.47 v -104.5" /><path
         id="path238"
         style="fill:#fafdfb;fill-opacity:1;fill-rule:nonzero;stroke:none"
         d="m 5757.54,7297 22.49,243.9 h -687.34 l 22.47,-243.9 h 642.38" /><path
         id="path240"
         style="fill:#b84548;fill-opacity:1;fill-rule:nonzero;stroke:none"
         d="m 6007.68,6939 h 810.23 v 379.1 H 6007.68 V 6939" /><path
         id="path242"
         style="fill:#912c30;fill-opacity:1;fill-rule:nonzero;stroke:none"
         d="m 6007.68,7128.6 h 810.23 v 107.7 h -810.23 v -107.7" /><path
         id="path244"
         style="fill:#ffffff;fill-opacity:1;fill-rule:nonzero;stroke:none"
         d="m 5952.18,7236.3 h 921.29 v 81.8 h -921.29 v -81.8" /><path
         id="path246"
         style="fill:#b84548;fill-opacity:1;fill-rule:nonzero;stroke:none"
         d="m 6007.68,7318.1 h 810.23 V 7697 h -810.23 v -378.9" /><path
         id="path248"
         style="fill:#912c30;fill-opacity:1;fill-rule:nonzero;stroke:none"
         d="m 6007.68,7507.5 h 810.23 v 107.8 h -810.23 v -107.8" /><path
         id="path250"
         style="fill:#ffffff;fill-opacity:1;fill-rule:nonzero;stroke:none"
         d="m 5952.18,7615.3 h 921.29 v 81.7 h -921.29 v -81.7" /><path
         id="path252"
         style="fill:#b84548;fill-opacity:1;fill-rule:nonzero;stroke:none"
         d="m 6007.68,7694.8 h 810.23 v 378.9 h -810.23 v -378.9" /><path
         id="path254"
         style="fill:#912c30;fill-opacity:1;fill-rule:nonzero;stroke:none"
         d="m 6007.68,7884.3 h 810.23 v 107.8 h -810.23 v -107.8" /><path
         id="path256"
         style="fill:#ffffff;fill-opacity:1;fill-rule:nonzero;stroke:none"
         d="m 5952.18,7992.1 h 921.29 v 81.6 h -921.29 v -81.6" /><path
         id="path258"
         style="fill:#b84548;fill-opacity:1;fill-rule:nonzero;stroke:none"
         d="m 7005.85,6939 h 810.22 v 379.1 H 7005.85 V 6939" /><path
         id="path260"
         style="fill:#912c30;fill-opacity:1;fill-rule:nonzero;stroke:none"
         d="m 7005.85,7128.6 h 810.22 v 107.7 h -810.22 v -107.7" /><path
         id="path262"
         style="fill:#ffffff;fill-opacity:1;fill-rule:nonzero;stroke:none"
         d="m 6950.34,7236.3 h 921.3 v 81.8 h -921.3 v -81.8" /><path
         id="path264"
         style="fill:#b84548;fill-opacity:1;fill-rule:nonzero;stroke:none"
         d="m 7005.85,7318.1 h 810.22 V 7697 h -810.22 v -378.9" /><path
         id="path266"
         style="fill:#912c30;fill-opacity:1;fill-rule:nonzero;stroke:none"
         d="m 7005.85,7507.5 h 810.22 v 107.8 h -810.22 v -107.8" /><path
         id="path268"
         style="fill:#ffffff;fill-opacity:1;fill-rule:nonzero;stroke:none"
         d="m 6950.34,7615.3 h 921.3 v 81.7 h -921.3 v -81.7" /><path
         id="path270"
         style="fill:#b84548;fill-opacity:1;fill-rule:nonzero;stroke:none"
         d="m 7005.85,7694.8 h 810.22 v 378.9 h -810.22 v -378.9" /><path
         id="path272"
         style="fill:#912c30;fill-opacity:1;fill-rule:nonzero;stroke:none"
         d="m 7005.85,7884.3 h 810.22 v 107.8 h -810.22 v -107.8" /><path
         id="path274"
         style="fill:#ffffff;fill-opacity:1;fill-rule:nonzero;stroke:none"
         d="m 6950.34,7992.1 h 921.3 v 81.6 h -921.3 v -81.6" /><path
         id="path276"
         style="fill:#244562;fill-opacity:1;fill-rule:nonzero;stroke:none"
         d="M 2793.95,8036.8 H 2175.83 L 2054.51,7723.1 V 6939 h 319.22 222.32 319.22 v 784.1 l -121.32,313.7" /><path
         id="path278"
         style="fill:#244562;fill-opacity:1;fill-rule:nonzero;stroke:none"
         d="m 2596.05,8036.8 h -420.22 l -121.32,-313.7 h 860.76 l -121.32,313.7 h -197.9" /><path
         id="path280"
         style="fill:#fafdfb;fill-opacity:1;fill-rule:nonzero;stroke:none"
         d="m 2763.48,7299.1 h -575.04 v 254.1 h 575.04 v -254.1" /><path
         id="path282"
         style="fill:#244562;fill-opacity:1;fill-rule:nonzero;stroke:none"
         d="M 4816.25,8036.8 H 4198.23 L 4076.85,7723.1 V 6939 h 319.28 222.22 319.31 v 784.1 l -121.41,313.7" /><path
         id="path284"
         style="fill:#244562;fill-opacity:1;fill-rule:nonzero;stroke:none"
         d="m 4618.35,8036.8 h -420.12 l -121.38,-313.7 h 860.81 l -121.41,313.7 h -197.9" /><path
         id="path286"
         style="fill:#fafdfb;fill-opacity:1;fill-rule:nonzero;stroke:none"
         d="m 4785.78,7299.1 h -574.94 v 254.1 h 574.94 v -254.1" /><path
         id="path288"
         style="fill:#b04e3a;fill-opacity:1;fill-rule:nonzero;stroke:none"
         d="m 2833.02,10103.9 c -27.13,108.2 -178.12,221.4 -197.71,311.7 -19.56,90.3 -31.73,376.4 -31.73,376.4 h -138.85 -138.87 c 0,0 -12.04,-286.1 -31.63,-376.4 -19.65,-90.3 -170.59,-203.5 -197.77,-311.7 -27.14,-108.33 0,-1013 0,-1013 h 368.27 368.29 c 0,0 27.19,904.67 0,1013" /><path
         id="path290"
         style="fill:#983b2e;fill-opacity:1;fill-rule:nonzero;stroke:none"
         d="m 2464.73,9090.9 h 368.29 c 0,0 27.19,904.67 0,1013 -27.13,108.2 -178.12,221.4 -197.71,311.7 -19.56,90.3 -31.73,376.4 -31.73,376.4 h -138.85 -138.87 c 0,0 -3.98,-95.3 -11.15,-193.3 h 181.75 c 0,0 -16.21,-232 53.34,-409.8 69.65,-177.8 0,-1020.6 0,-1020.6 l -453.68,-65.8 c 0.25,-7.5 0.34,-11.6 0.34,-11.6 h 368.27" /><path
         id="path292"
         style="fill:#fafdfb;fill-opacity:1;fill-rule:nonzero;stroke:none"
         d="m 2271.47,10660.6 h 386.64 v 131.4 h -386.64 v -131.4" /><path
         id="path294"
         style="fill:#efbc23;fill-opacity:1;fill-rule:nonzero;stroke:none"
         d="m 2801.55,9523.89 h -684.72 v 471.68 h 684.72 v -471.68" /><path
         id="path296"
         style="fill:#b04e3a;fill-opacity:1;fill-rule:nonzero;stroke:none"
         d="m 3884.71,10103.9 c -27.16,108.2 -178.11,221.4 -197.68,311.7 -19.63,90.3 -31.75,376.4 -31.75,376.4 h -138.83 -138.87 c 0,0 -12.06,-286.1 -31.69,-376.4 -19.63,-90.3 -170.57,-203.5 -197.75,-311.7 -27.16,-108.33 0,-1013 0,-1013 h 368.31 368.26 c 0,0 27.22,904.67 0,1013" /><path
         id="path298"
         style="fill:#983b2e;fill-opacity:1;fill-rule:nonzero;stroke:none"
         d="m 3516.45,9090.9 h 368.26 c 0,0 27.22,904.67 0,1013 -27.16,108.2 -178.11,221.4 -197.68,311.7 -19.63,90.3 -31.75,376.4 -31.75,376.4 h -138.83 -138.87 c 0,0 -4.04,-95.3 -11.21,-193.3 h 181.78 c 0,0 -16.27,-232 53.34,-409.8 69.6,-177.8 0,-1020.6 0,-1020.6 l -453.71,-65.8 c 0.27,-7.5 0.36,-11.6 0.36,-11.6 h 368.31" /><path
         id="path300"
         style="fill:#fafdfb;fill-opacity:1;fill-rule:nonzero;stroke:none"
         d="m 3323.16,10660.6 h 386.6 v 131.4 h -386.6 v -131.4" /><path
         id="path302"
         style="fill:#efbc23;fill-opacity:1;fill-rule:nonzero;stroke:none"
         d="m 3853.2,9523.89 h -684.7 v 471.68 h 684.7 v -471.68" /><path
         id="path304"
         style="fill:#eb86c8;fill-opacity:1;fill-rule:nonzero;stroke:none"
         d="m 7742.97,10720.3 h -273.64 l -136.81,-628 v -1005 h 273.63 273.64 v 1005 l -136.82,628" /><path
         id="path306"
         style="fill:#d563b8;fill-opacity:1;fill-rule:nonzero;stroke:none"
         d="m 7879.79,9087.3 v 1005 l -136.82,628 h -273.64 l -45.18,-207.4 c 130.32,-201.2 337.22,-663.04 182,-1425.6 h 273.64" /><path
         id="path308"
         style="fill:#fdfde1;fill-opacity:1;fill-rule:nonzero;stroke:none"
         d="m 7429.17,10631.8 h 356.82 v 88.5 h -356.82 v -88.5" /><path
         id="path310"
         style="fill:#fdfde1;fill-opacity:1;fill-rule:nonzero;stroke:none"
         d="m 7854.55,9429.94 h -505.29 v 673.76 h 505.29 v -673.76" /><path
         id="path312"
         style="fill:#efbc23;fill-opacity:1;fill-rule:nonzero;stroke:none"
         d="m 7087.82,10720.3 h -273.63 l -136.85,-628 v -1005 h 273.68 273.7 v 1005 l -136.9,628" /><path
         id="path314"
         style="fill:#d3a01c;fill-opacity:1;fill-rule:nonzero;stroke:none"
         d="m 7224.72,9087.3 v 1005 l -136.9,628 H 6814.19 L 6769,10512.9 c 130.34,-201.2 337.28,-663.04 182.02,-1425.6 h 273.7" /><path
         id="path316"
         style="fill:#fdfde1;fill-opacity:1;fill-rule:nonzero;stroke:none"
         d="m 6774.04,10631.8 h 356.87 v 88.5 h -356.87 v -88.5" /><path
         id="path318"
         style="fill:#fdfde1;fill-opacity:1;fill-rule:nonzero;stroke:none"
         d="m 7199.4,9429.94 h -505.28 v 673.76 h 505.28 v -673.76" /><path
         id="path320"
         style="fill:#eb86c8;fill-opacity:1;fill-rule:nonzero;stroke:none"
         d="m 6472.1,10720.3 h -273.66 l -136.88,-628 v -1005 h 273.69 273.7 v 1005 l -136.85,628" /><path
         id="path322"
         style="fill:#d563b8;fill-opacity:1;fill-rule:nonzero;stroke:none"
         d="m 6608.95,9087.3 v 1005 l -136.85,628 h -273.66 l -45.23,-207.4 c 130.33,-201.2 337.28,-663.04 182.04,-1425.6 h 273.7" /><path
         id="path324"
         style="fill:#fdfde1;fill-opacity:1;fill-rule:nonzero;stroke:none"
         d="m 6158.25,10631.8 h 356.88 v 88.5 h -356.88 v -88.5" /><path
         id="path326"
         style="fill:#fdfde1;fill-opacity:1;fill-rule:nonzero;stroke:none"
         d="m 6583.61,9429.94 h -505.29 v 673.76 h 505.29 v -673.76" /><path
         id="path328"
         style="fill:#efbc23;fill-opacity:1;fill-rule:nonzero;stroke:none"
         d="m 5816.99,10720.3 h -273.63 l -136.88,-628 v -1005 h 273.69 273.64 v 1005 l -136.82,628" /><path
         id="path330"
         style="fill:#d3a01c;fill-opacity:1;fill-rule:nonzero;stroke:none"
         d="m 5953.81,9087.3 v 1005 l -136.82,628 h -273.63 l -45.19,-207.4 c 130.34,-201.2 337.15,-663.04 182,-1425.6 h 273.64" /><path
         id="path332"
         style="fill:#fdfde1;fill-opacity:1;fill-rule:nonzero;stroke:none"
         d="m 5503.16,10631.8 h 356.81 v 88.5 h -356.81 v -88.5" /><path
         id="path334"
         style="fill:#fdfde1;fill-opacity:1;fill-rule:nonzero;stroke:none"
         d="m 5928.51,9429.94 h -505.3 v 673.76 h 505.3 v -673.76" /><path
         id="path336"
         style="fill:#eb86c8;fill-opacity:1;fill-rule:nonzero;stroke:none"
         d="m 5201.2,10720.3 h -273.63 l -136.85,-628 v -1005 h 273.66 273.64 v 1005 l -136.82,628" /><path
         id="path338"
         style="fill:#d563b8;fill-opacity:1;fill-rule:nonzero;stroke:none"
         d="m 5338.02,9087.3 v 1005 l -136.82,628 h -273.63 l -45.2,-207.4 c 130.34,-201.2 337.22,-663.04 182.01,-1425.6 h 273.64" /><path
         id="path340"
         style="fill:#fdfde1;fill-opacity:1;fill-rule:nonzero;stroke:none"
         d="m 4887.4,10631.8 h 356.82 v 88.5 H 4887.4 v -88.5" /><path
         id="path342"
         style="fill:#fdfde1;fill-opacity:1;fill-rule:nonzero;stroke:none"
         d="m 5312.77,9429.94 h -505.29 v 673.76 h 505.29 v -673.76" /><path
         id="path344"
         style="fill:#efbc23;fill-opacity:1;fill-rule:nonzero;stroke:none"
         d="m 4546.05,10720.3 h -273.63 l -136.83,-628 v -1005 h 273.65 273.7 v 1005 l -136.89,628" /><path
         id="path346"
         style="fill:#d3a01c;fill-opacity:1;fill-rule:nonzero;stroke:none"
         d="m 4682.94,9087.3 v 1005 l -136.89,628 h -273.63 l -45.18,-207.4 c 130.33,-201.2 337.24,-663.04 182,-1425.6 h 273.7" /><path
         id="path348"
         style="fill:#fdfde1;fill-opacity:1;fill-rule:nonzero;stroke:none"
         d="m 4232.27,10631.8 h 356.84 v 88.5 h -356.84 v -88.5" /><path
         id="path350"
         style="fill:#fdfde1;fill-opacity:1;fill-rule:nonzero;stroke:none"
         d="m 4657.64,9429.94 h -505.3 v 673.76 h 505.3 v -673.76" /><path
         id="path352"
         style="fill:#a9adde;fill-opacity:1;fill-rule:nonzero;stroke:none"
         d="M 14933.5,5687.1 H 9470.41 v 8498.2 H 14933.5 V 5687.1" /><path
         id="path354"
         style="fill:#e6e7f1;fill-opacity:1;fill-rule:nonzero;stroke:none"
         d="m 9470.41,5687.1 h -283.29 v 8498.2 h 283.29 V 5687.1" /><path
         id="path356"
         style="fill:#e6e7f1;fill-opacity:1;fill-rule:nonzero;stroke:none"
         d="m 15216.8,5687.1 h -283.3 v 8498.2 h 283.3 V 5687.1" /><path
         id="path358"
         style="fill:#e7366b;fill-opacity:1;fill-rule:nonzero;stroke:none"
         d="m 9470.41,12458.7 h 5463.09 v 323.8 H 9470.41 v -323.8" /><path
         id="path360"
         style="fill:#b42152;fill-opacity:1;fill-rule:nonzero;stroke:none"
         d="m 9470.41,12634 v -175.3 H 14933.5 V 12634 H 9470.41" /><path
         id="path362"
         style="fill:#8189c9;fill-opacity:1;fill-rule:nonzero;stroke:none"
         d="M 14933.5,11892.1 H 9470.41 v 566.6 h 5463.09 v -566.6" /><path
         id="path364"
         style="fill:#e7366b;fill-opacity:1;fill-rule:nonzero;stroke:none"
         d="m 9470.41,10543.2 h 5463.09 v 323.7 H 9470.41 v -323.7" /><path
         id="path366"
         style="fill:#b42152;fill-opacity:1;fill-rule:nonzero;stroke:none"
         d="m 9470.41,10718.6 v -175.4 h 5463.09 v 175.4 H 9470.41" /><path
         id="path368"
         style="fill:#8189c9;fill-opacity:1;fill-rule:nonzero;stroke:none"
         d="M 14933.5,9976.67 H 9470.41 v 566.53 h 5463.09 v -566.53" /><path
         id="path370"
         style="fill:#e7366b;fill-opacity:1;fill-rule:nonzero;stroke:none"
         d="m 9470.41,8627.8 h 5463.09 v 323.8 H 9470.41 v -323.8" /><path
         id="path372"
         style="fill:#b42152;fill-opacity:1;fill-rule:nonzero;stroke:none"
         d="m 9470.41,8803.1 v -175.3 h 5463.09 v 175.3 H 9470.41" /><path
         id="path374"
         style="fill:#8189c9;fill-opacity:1;fill-rule:nonzero;stroke:none"
         d="M 14933.5,8061.3 H 9470.41 v 566.5 h 5463.09 v -566.5" /><path
         id="path376"
         style="fill:#fafdfb;fill-opacity:1;fill-rule:nonzero;stroke:none"
         d="m 14711.7,7366.6 c -24,-151.5 -219.1,-136.6 -219.1,-136.6 v 930.2 c 225.3,24 219.1,-120.1 219.1,-120.1 0,0 24.1,-522.1 0,-673.5 z m -219.1,932.8 -140.1,124.8 h -301.3 l -54,-73.4 -224.7,-322.7 v -997.6 h 1052.9 v 895.6 c 0,0 -11.5,362.5 -332.8,373.3" /><path
         id="path378"
         style="fill:#4e96d7;fill-opacity:1;fill-rule:nonzero;stroke:none"
         d="m 14393.4,7122 h -545.5 v 960.2 h 545.5 V 7122" /><path
         id="path380"
         style="fill:#4e96d7;fill-opacity:1;fill-rule:nonzero;stroke:none"
         d="m 14051.2,8424.2 h 301.3 v 108.1 h -301.3 v -108.1" /><path
         id="path382"
         style="fill:#fafdfb;fill-opacity:1;fill-rule:nonzero;stroke:none"
         d="M 13583.1,7366.6 C 13559.1,7215.1 13364,7230 13364,7230 v 930.2 c 225.3,24 219.1,-120.1 219.1,-120.1 0,0 24,-522.1 0,-673.5 z m -219.1,932.8 -140.1,124.8 h -301.3 l -54,-73.4 -224.7,-322.7 v -997.6 h 1052.9 v 895.6 c 0,0 -11.5,362.5 -332.8,373.3" /><path
         id="path384"
         style="fill:#4e96d7;fill-opacity:1;fill-rule:nonzero;stroke:none"
         d="m 13264.7,7122 h -545.4 v 960.2 h 545.4 V 7122" /><path
         id="path386"
         style="fill:#4e96d7;fill-opacity:1;fill-rule:nonzero;stroke:none"
         d="m 12922.6,8424.2 h 301.3 v 108.1 h -301.3 v -108.1" /><path
         id="path388"
         style="fill:#fafdfb;fill-opacity:1;fill-rule:nonzero;stroke:none"
         d="m 12454.5,7366.6 c -24,-151.5 -219.2,-136.6 -219.2,-136.6 v 930.2 c 225.4,24 219.2,-120.1 219.2,-120.1 0,0 24,-522.1 0,-673.5 z m -219.2,932.8 -140.1,124.8 H 11794 l -54.1,-73.4 -224.7,-322.7 v -997.6 h 1053 v 895.6 c 0,0 -11.5,362.5 -332.9,373.3" /><path
         id="path390"
         style="fill:#4e96d7;fill-opacity:1;fill-rule:nonzero;stroke:none"
         d="m 12136.1,7122 h -545.4 v 960.2 h 545.4 V 7122" /><path
         id="path392"
         style="fill:#4e96d7;fill-opacity:1;fill-rule:nonzero;stroke:none"
         d="m 11794,8424.2 h 301.2 v 108.1 H 11794 v -108.1" /><path
         id="path394"
         style="fill:#e7366b;fill-opacity:1;fill-rule:nonzero;stroke:none"
         d="M 9470.41,6712.3 H 14933.5 V 7036 H 9470.41 v -323.7" /><path
         id="path396"
         style="fill:#b42152;fill-opacity:1;fill-rule:nonzero;stroke:none"
         d="m 9470.41,6887.7 v -175.4 h 5463.09 v 175.4 H 9470.41" /><path
         id="path398"
         style="fill:#8189c9;fill-opacity:1;fill-rule:nonzero;stroke:none"
         d="M 14933.5,6145.7 H 9470.41 v 566.6 h 5463.09 v -566.6" /><path
         id="path400"
         style="fill:#e6e7f1;fill-opacity:1;fill-rule:nonzero;stroke:none"
         d="M 15216.8,5390.6 H 9187.12 v 296.5 h 6029.68 v -296.5" /><path
         id="path402"
         style="fill:#38436c;fill-opacity:1;fill-rule:nonzero;stroke:none"
         d="m 9809.32,5090.2 h -465.37 v 300.4 H 10042 l -232.68,-300.4" /><path
         id="path404"
         style="fill:#38436c;fill-opacity:1;fill-rule:nonzero;stroke:none"
         d="m 14594.6,5090.2 h 465.4 v 300.4 h -698.1 l 232.7,-300.4" /><path
         id="path406"
         style="fill:#5ec9c7;fill-opacity:1;fill-rule:nonzero;stroke:none"
         d="m 9628.02,12782.7 h 669.18 v 876.8 h -669.18 v -876.8" /><path
         id="path408"
         style="fill:#fafdfb;fill-opacity:1;fill-rule:nonzero;stroke:none"
         d="m 9578.03,13567.2 h 792.17 v 92.3 h -792.17 v -92.3" /><path
         id="path410"
         style="fill:#fafdfb;fill-opacity:1;fill-rule:nonzero;stroke:none"
         d="m 10297.2,13105.8 h -669.18 v 215.3 h 669.18 v -215.3" /><path
         id="path412"
         style="fill:#5ec9c7;fill-opacity:1;fill-rule:nonzero;stroke:none"
         d="m 10511.7,12782.7 h 669.2 v 876.8 h -669.2 v -876.8" /><path
         id="path414"
         style="fill:#fafdfb;fill-opacity:1;fill-rule:nonzero;stroke:none"
         d="m 10461.7,13567.2 h 792.3 v 92.3 h -792.3 v -92.3" /><path
         id="path416"
         style="fill:#fafdfb;fill-opacity:1;fill-rule:nonzero;stroke:none"
         d="m 11180.9,13105.8 h -669.2 v 215.3 h 669.2 v -215.3" /><path
         id="path418"
         style="fill:#5ec9c7;fill-opacity:1;fill-rule:nonzero;stroke:none"
         d="m 11395.5,12782.7 h 669.1 v 876.8 h -669.1 v -876.8" /><path
         id="path420"
         style="fill:#fafdfb;fill-opacity:1;fill-rule:nonzero;stroke:none"
         d="m 11345.5,13567.2 h 792.2 v 92.3 h -792.2 v -92.3" /><path
         id="path422"
         style="fill:#fafdfb;fill-opacity:1;fill-rule:nonzero;stroke:none"
         d="m 12064.6,13105.8 h -669.1 v 215.3 h 669.1 v -215.3" /><path
         id="path424"
         style="fill:#4a78a8;fill-opacity:1;fill-rule:nonzero;stroke:none"
         d="m 12256.3,12782.7 h 604.8 l 96.3,1044.6 h -797.3 l 96.2,-1044.6" /><path
         id="path426"
         style="fill:#fafdfb;fill-opacity:1;fill-rule:nonzero;stroke:none"
         d="m 12151.5,13717.3 h 814.5 v 110 h -814.5 v -110" /><path
         id="path428"
         style="fill:#fafdfb;fill-opacity:1;fill-rule:nonzero;stroke:none"
         d="m 12896.6,13167.6 23.6,256.5 h -722.9 l 23.6,-256.5 h 675.7" /><path
         id="path430"
         style="fill:#fafdfb;fill-opacity:1;fill-rule:nonzero;stroke:none"
         d="m 14089.9,12782.7 h 640.3 l 101.8,1105.8 h -843.9 l 101.8,-1105.8" /><path
         id="path432"
         style="fill:#eb86c8;fill-opacity:1;fill-rule:nonzero;stroke:none"
         d="m 13978.9,13772.2 h 862.3 v 116.3 h -862.3 v -116.3" /><path
         id="path434"
         style="fill:#eb86c8;fill-opacity:1;fill-rule:nonzero;stroke:none"
         d="m 14767.7,13190.1 25,271.6 h -765.3 l 25,-271.6 h 715.3" /><path
         id="path436"
         style="fill:#fafdfb;fill-opacity:1;fill-rule:nonzero;stroke:none"
         d="m 13199.6,12782.7 h 640.3 l 101.8,1105.8 h -843.9 l 101.8,-1105.8" /><path
         id="path438"
         style="fill:#eb86c8;fill-opacity:1;fill-rule:nonzero;stroke:none"
         d="m 13088.6,13772.2 h 862.3 v 116.3 h -862.3 v -116.3" /><path
         id="path440"
         style="fill:#eb86c8;fill-opacity:1;fill-rule:nonzero;stroke:none"
         d="m 13877.4,13190.1 25,271.6 h -765.3 l 25,-271.6 h 715.3" /><path
         id="path442"
         style="fill:#244562;fill-opacity:1;fill-rule:nonzero;stroke:none"
         d="m 9611.27,5687.1 h 435.23 v 977.5 h -435.23 v -977.5" /><path
         id="path444"
         style="fill:#172f3f;fill-opacity:1;fill-rule:nonzero;stroke:none"
         d="m 9611.27,6507.6 h 313.92 c 0,0 6.04,-540.9 -277.94,-820.5 h 399.25 v 977.5 h -435.23 v -157" /><path
         id="path446"
         style="fill:#fafdfb;fill-opacity:1;fill-rule:nonzero;stroke:none"
         d="m 10046.5,6564.6 h -435.23 v 100 h 435.23 v -100" /><path
         id="path448"
         style="fill:#fafdfb;fill-opacity:1;fill-rule:nonzero;stroke:none"
         d="M 9996.52,5936.9 H 9661.2 v 422.6 h 335.32 v -422.6" /><path
         id="path450"
         style="fill:#244562;fill-opacity:1;fill-rule:nonzero;stroke:none"
         d="m 10046.5,5687.1 h 435.2 v 977.5 h -435.2 v -977.5" /><path
         id="path452"
         style="fill:#172f3f;fill-opacity:1;fill-rule:nonzero;stroke:none"
         d="m 10046.5,6507.6 h 313.9 c 0,0 6,-540.9 -277.9,-820.5 h 399.2 v 977.5 h -435.2 v -157" /><path
         id="path454"
         style="fill:#fafdfb;fill-opacity:1;fill-rule:nonzero;stroke:none"
         d="m 10481.7,6564.6 h -435.2 v 100 h 435.2 v -100" /><path
         id="path456"
         style="fill:#fafdfb;fill-opacity:1;fill-rule:nonzero;stroke:none"
         d="m 10431.7,5936.9 h -335.3 v 422.6 h 335.3 v -422.6" /><path
         id="path458"
         style="fill:#244562;fill-opacity:1;fill-rule:nonzero;stroke:none"
         d="m 10582.5,5687.1 h 435.2 v 977.5 h -435.2 v -977.5" /><path
         id="path460"
         style="fill:#172f3f;fill-opacity:1;fill-rule:nonzero;stroke:none"
         d="m 10582.5,6507.6 h 313.9 c 0,0 6.1,-540.9 -277.9,-820.5 h 399.2 v 977.5 h -435.2 v -157" /><path
         id="path462"
         style="fill:#fafdfb;fill-opacity:1;fill-rule:nonzero;stroke:none"
         d="m 11017.7,6564.6 h -435.2 v 100 h 435.2 v -100" /><path
         id="path464"
         style="fill:#fafdfb;fill-opacity:1;fill-rule:nonzero;stroke:none"
         d="m 10967.8,5936.9 h -335.4 v 422.6 h 335.4 v -422.6" /><path
         id="path466"
         style="fill:#244562;fill-opacity:1;fill-rule:nonzero;stroke:none"
         d="m 11017.7,5687.1 h 435.2 v 977.5 h -435.2 v -977.5" /><path
         id="path468"
         style="fill:#172f3f;fill-opacity:1;fill-rule:nonzero;stroke:none"
         d="m 11017.7,6507.6 h 313.9 c 0,0 6.1,-540.9 -277.9,-820.5 h 399.2 v 977.5 h -435.2 v -157" /><path
         id="path470"
         style="fill:#fafdfb;fill-opacity:1;fill-rule:nonzero;stroke:none"
         d="m 11452.9,6564.6 h -435.2 v 100 h 435.2 v -100" /><path
         id="path472"
         style="fill:#fafdfb;fill-opacity:1;fill-rule:nonzero;stroke:none"
         d="m 11403,5936.9 h -335.4 v 422.6 h 335.4 v -422.6" /><path
         id="path474"
         style="fill:#244562;fill-opacity:1;fill-rule:nonzero;stroke:none"
         d="m 11553.7,5687.1 h 435.2 v 977.5 h -435.2 v -977.5" /><path
         id="path476"
         style="fill:#172f3f;fill-opacity:1;fill-rule:nonzero;stroke:none"
         d="m 11553.7,6507.6 h 313.9 c 0,0 6.1,-540.9 -277.9,-820.5 h 399.2 v 977.5 h -435.2 v -157" /><path
         id="path478"
         style="fill:#fafdfb;fill-opacity:1;fill-rule:nonzero;stroke:none"
         d="m 11988.9,6564.6 h -435.2 v 100 h 435.2 v -100" /><path
         id="path480"
         style="fill:#fafdfb;fill-opacity:1;fill-rule:nonzero;stroke:none"
         d="m 11939,5936.9 h -335.3 v 422.6 h 335.3 v -422.6" /><path
         id="path482"
         style="fill:#244562;fill-opacity:1;fill-rule:nonzero;stroke:none"
         d="m 11988.9,5687.1 h 435.2 v 977.5 h -435.2 v -977.5" /><path
         id="path484"
         style="fill:#172f3f;fill-opacity:1;fill-rule:nonzero;stroke:none"
         d="m 11988.9,6507.6 h 313.9 c 0,0 6.1,-540.9 -277.9,-820.5 h 399.2 v 977.5 h -435.2 v -157" /><path
         id="path486"
         style="fill:#fafdfb;fill-opacity:1;fill-rule:nonzero;stroke:none"
         d="m 12424.1,6564.6 h -435.2 v 100 h 435.2 v -100" /><path
         id="path488"
         style="fill:#fafdfb;fill-opacity:1;fill-rule:nonzero;stroke:none"
         d="m 12374.2,5936.9 h -335.4 v 422.6 h 335.4 v -422.6" /><path
         id="path490"
         style="fill:#b04e3a;fill-opacity:1;fill-rule:nonzero;stroke:none"
         d="m 13075.2,6270.6 c -15.7,62.4 -102.7,127.7 -113.9,179.7 -11.3,52 -18.3,216.8 -18.3,216.8 h -80 -80 c 0,0 -7,-164.8 -18.2,-216.8 -11.3,-52 -98.3,-117.3 -114,-179.7 -15.6,-62.3 0,-583.5 0,-583.5 h 212.2 212.2 c 0,0 15.6,521.2 0,583.5" /><path
         id="path492"
         style="fill:#983b2e;fill-opacity:1;fill-rule:nonzero;stroke:none"
         d="m 12863,5687.1 h 212.2 c 0,0 15.6,521.2 0,583.5 -15.7,62.4 -102.7,127.7 -113.9,179.7 -11.3,52 -18.3,216.8 -18.3,216.8 h -80 -80 c 0,0 -2.3,-55 -6.5,-111.4 h 104.8 c 0,0 -9.4,-133.6 30.7,-236.1 40.1,-102.4 0,-587.9 0,-587.9 l -261.4,-37.9 c 0.2,-4.3 0.2,-6.7 0.2,-6.7 h 212.2" /><path
         id="path494"
         style="fill:#fafdfb;fill-opacity:1;fill-rule:nonzero;stroke:none"
         d="m 12751.6,6591.4 h 222.8 v 75.7 h -222.8 v -75.7" /><path
         id="path496"
         style="fill:#efbc23;fill-opacity:1;fill-rule:nonzero;stroke:none"
         d="m 13057,5936.5 h -394.5 v 271.8 h 394.5 v -271.8" /><path
         id="path498"
         style="fill:#b04e3a;fill-opacity:1;fill-rule:nonzero;stroke:none"
         d="m 13530.4,6270.6 c -15.6,62.4 -102.6,127.7 -113.9,179.7 -11.3,52 -18.2,216.8 -18.2,216.8 h -80 -80 c 0,0 -7,-164.8 -18.3,-216.8 -11.3,-52 -98.3,-117.3 -113.9,-179.7 -15.7,-62.3 0,-583.5 0,-583.5 h 212.2 212.1 c 0,0 15.7,521.2 0,583.5" /><path
         id="path500"
         style="fill:#983b2e;fill-opacity:1;fill-rule:nonzero;stroke:none"
         d="m 13318.3,5687.1 h 212.1 c 0,0 15.7,521.2 0,583.5 -15.6,62.4 -102.6,127.7 -113.9,179.7 -11.3,52 -18.2,216.8 -18.2,216.8 h -80 -80 c 0,0 -2.3,-55 -6.5,-111.4 h 104.8 c 0,0 -9.5,-133.6 30.7,-236.1 40.1,-102.4 0,-587.9 0,-587.9 l -261.4,-37.9 c 0.1,-4.3 0.2,-6.7 0.2,-6.7 h 212.2" /><path
         id="path502"
         style="fill:#fafdfb;fill-opacity:1;fill-rule:nonzero;stroke:none"
         d="m 13206.9,6591.4 h 222.7 v 75.7 h -222.7 v -75.7" /><path
         id="path504"
         style="fill:#efbc23;fill-opacity:1;fill-rule:nonzero;stroke:none"
         d="m 13512.3,5936.5 h -394.5 v 271.8 h 394.5 v -271.8" /><path
         id="path506"
         style="fill:#b04e3a;fill-opacity:1;fill-rule:nonzero;stroke:none"
         d="m 13985.7,6270.6 c -15.6,62.4 -102.6,127.7 -113.9,179.7 -11.3,52 -18.3,216.8 -18.3,216.8 h -80 -80 c 0,0 -6.9,-164.8 -18.2,-216.8 -11.3,-52 -98.3,-117.3 -113.9,-179.7 -15.7,-62.3 0,-583.5 0,-583.5 h 212.1 212.2 c 0,0 15.7,521.2 0,583.5" /><path
         id="path508"
         style="fill:#983b2e;fill-opacity:1;fill-rule:nonzero;stroke:none"
         d="m 13773.5,5687.1 h 212.2 c 0,0 15.7,521.2 0,583.5 -15.6,62.4 -102.6,127.7 -113.9,179.7 -11.3,52 -18.3,216.8 -18.3,216.8 h -80 -80 c 0,0 -2.3,-55 -6.4,-111.4 h 104.7 c 0,0 -9.4,-133.6 30.7,-236.1 40.1,-102.4 0,-587.9 0,-587.9 l -261.3,-37.9 c 0.1,-4.3 0.2,-6.7 0.2,-6.7 h 212.1" /><path
         id="path510"
         style="fill:#fafdfb;fill-opacity:1;fill-rule:nonzero;stroke:none"
         d="m 13662.2,6591.4 h 222.7 v 75.7 h -222.7 v -75.7" /><path
         id="path512"
         style="fill:#efbc23;fill-opacity:1;fill-rule:nonzero;stroke:none"
         d="m 13967.5,5936.5 h -394.4 v 271.8 h 394.4 v -271.8" /><path
         id="path514"
         style="fill:#b04e3a;fill-opacity:1;fill-rule:nonzero;stroke:none"
         d="m 14441,6270.6 c -15.7,62.4 -102.7,127.7 -113.9,179.7 -11.3,52 -18.3,216.8 -18.3,216.8 h -80 -80 c 0,0 -7,-164.8 -18.2,-216.8 -11.4,-52 -98.3,-117.3 -114,-179.7 -15.6,-62.3 0,-583.5 0,-583.5 h 212.2 212.2 c 0,0 15.6,521.2 0,583.5" /><path
         id="path516"
         style="fill:#983b2e;fill-opacity:1;fill-rule:nonzero;stroke:none"
         d="m 14228.8,5687.1 h 212.2 c 0,0 15.6,521.2 0,583.5 -15.7,62.4 -102.7,127.7 -113.9,179.7 -11.3,52 -18.3,216.8 -18.3,216.8 h -80 -80 c 0,0 -2.3,-55 -6.5,-111.4 h 104.8 c 0,0 -9.4,-133.6 30.7,-236.1 40.1,-102.4 0,-587.9 0,-587.9 l -261.4,-37.9 c 0.2,-4.3 0.2,-6.7 0.2,-6.7 h 212.2" /><path
         id="path518"
         style="fill:#fafdfb;fill-opacity:1;fill-rule:nonzero;stroke:none"
         d="m 14117.4,6591.4 h 222.8 v 75.7 h -222.8 v -75.7" /><path
         id="path520"
         style="fill:#efbc23;fill-opacity:1;fill-rule:nonzero;stroke:none"
         d="m 14422.8,5936.5 h -394.5 v 271.8 h 394.5 v -271.8" /><path
         id="path522"
         style="fill:#b04e3a;fill-opacity:1;fill-rule:nonzero;stroke:none"
         d="m 14896.2,6270.6 c -15.6,62.4 -102.6,127.7 -113.9,179.7 -11.3,52 -18.3,216.8 -18.3,216.8 h -80 -79.9 c 0,0 -7,-164.8 -18.3,-216.8 -11.3,-52 -98.3,-117.3 -113.9,-179.7 -15.7,-62.3 0,-583.5 0,-583.5 h 212.1 212.2 c 0,0 15.7,521.2 0,583.5" /><path
         id="path524"
         style="fill:#983b2e;fill-opacity:1;fill-rule:nonzero;stroke:none"
         d="m 14684,5687.1 h 212.2 c 0,0 15.7,521.2 0,583.5 -15.6,62.4 -102.6,127.7 -113.9,179.7 -11.3,52 -18.3,216.8 -18.3,216.8 h -80 -79.9 c 0,0 -2.4,-55 -6.5,-111.4 h 104.8 c 0,0 -9.5,-133.6 30.7,-236.1 40.1,-102.4 0,-587.9 0,-587.9 l -261.4,-37.9 c 0.1,-4.3 0.2,-6.7 0.2,-6.7 h 212.1" /><path
         id="path526"
         style="fill:#fafdfb;fill-opacity:1;fill-rule:nonzero;stroke:none"
         d="m 14572.7,6591.4 h 222.7 v 75.7 h -222.7 v -75.7" /><path
         id="path528"
         style="fill:#efbc23;fill-opacity:1;fill-rule:nonzero;stroke:none"
         d="m 14878.1,5936.5 h -394.5 v 271.8 h 394.5 v -271.8" /><path
         id="path530"
         style="fill:#eb86c8;fill-opacity:1;fill-rule:nonzero;stroke:none"
         d="M 11193.3,8363 H 10970 l -111.7,-512.5 v -820 h 223.4 223.3 v 820 l -111.7,512.5" /><path
         id="path532"
         style="fill:#d563b8;fill-opacity:1;fill-rule:nonzero;stroke:none"
         d="m 11305,7030.5 v 820 L 11193.3,8363 H 10970 l -36.9,-169.2 c 106.4,-164.3 275.2,-541.1 148.6,-1163.3 h 223.3" /><path
         id="path534"
         style="fill:#fdfde1;fill-opacity:1;fill-rule:nonzero;stroke:none"
         d="m 10937.2,8290.8 h 291.3 v 72.2 h -291.3 v -72.2" /><path
         id="path536"
         style="fill:#fdfde1;fill-opacity:1;fill-rule:nonzero;stroke:none"
         d="M 11284.3,7310 H 10872 v 549.8 h 412.3 V 7310" /><path
         id="path538"
         style="fill:#efbc23;fill-opacity:1;fill-rule:nonzero;stroke:none"
         d="m 10630.2,8363 h -223.4 l -111.6,-512.5 v -820 h 223.3 223.3 v 820 l -111.6,512.5" /><path
         id="path540"
         style="fill:#d3a01c;fill-opacity:1;fill-rule:nonzero;stroke:none"
         d="m 10741.8,7030.5 v 820 l -111.6,512.5 h -223.4 l -36.8,-169.2 c 106.3,-164.3 275.1,-541.1 148.5,-1163.3 h 223.3" /><path
         id="path542"
         style="fill:#fdfde1;fill-opacity:1;fill-rule:nonzero;stroke:none"
         d="m 10374,8290.8 h 291.3 V 8363 H 10374 v -72.2" /><path
         id="path544"
         style="fill:#fdfde1;fill-opacity:1;fill-rule:nonzero;stroke:none"
         d="m 10721.2,7310 h -412.3 v 549.8 h 412.3 V 7310" /><path
         id="path546"
         style="fill:#efbc23;fill-opacity:1;fill-rule:nonzero;stroke:none"
         d="M 10108.2,8363 H 9884.87 L 9773.2,7850.5 v -820 h 223.32 223.38 v 820 l -111.7,512.5" /><path
         id="path548"
         style="fill:#d3a01c;fill-opacity:1;fill-rule:nonzero;stroke:none"
         d="m 10219.9,7030.5 v 820 l -111.7,512.5 h -223.33 l -36.89,-169.2 c 106.38,-164.3 275.22,-541.1 148.54,-1163.3 h 223.38" /><path
         id="path550"
         style="fill:#fdfde1;fill-opacity:1;fill-rule:nonzero;stroke:none"
         d="m 9852.07,8290.8 h 291.23 v 72.2 h -291.23 v -72.2" /><path
         id="path552"
         style="fill:#fdfde1;fill-opacity:1;fill-rule:nonzero;stroke:none"
         d="m 10199.2,7310 h -412.32 v 549.8 h 412.32 V 7310" /><path
         id="path554"
         style="fill:#5ec9c7;fill-opacity:1;fill-rule:nonzero;stroke:none"
         d="m 10478.6,8951.6 h 676 v 885.71 h -676 V 8951.6" /><path
         id="path556"
         style="fill:#fafdfb;fill-opacity:1;fill-rule:nonzero;stroke:none"
         d="m 10428.1,9744.11 h 800.4 v 93.2 h -800.4 v -93.2" /><path
         id="path558"
         style="fill:#fafdfb;fill-opacity:1;fill-rule:nonzero;stroke:none"
         d="m 11154.6,9277.89 h -676 v 217.55 h 676 v -217.55" /><path
         id="path560"
         style="fill:#4a78a8;fill-opacity:1;fill-rule:nonzero;stroke:none"
         d="m 12302.3,8943.7 h 512.9 l 81.5,885.88 h -676 l 81.6,-885.88" /><path
         id="path562"
         style="fill:#fafdfb;fill-opacity:1;fill-rule:nonzero;stroke:none"
         d="m 12213.3,9736.32 h 690.8 v 93.26 h -690.8 v -93.26" /><path
         id="path564"
         style="fill:#fafdfb;fill-opacity:1;fill-rule:nonzero;stroke:none"
         d="m 12845.2,9270.09 20.1,217.6 h -613.1 l 20,-217.6 h 573" /><path
         id="path566"
         style="fill:#b84548;fill-opacity:1;fill-rule:nonzero;stroke:none"
         d="m 13068.3,8950.8 h 722.7 v 338.12 h -722.7 V 8950.8" /><path
         id="path568"
         style="fill:#912c30;fill-opacity:1;fill-rule:nonzero;stroke:none"
         d="m 13068.3,9119.9 h 722.7 v 96.1 h -722.7 v -96.1" /><path
         id="path570"
         style="fill:#ffffff;fill-opacity:1;fill-rule:nonzero;stroke:none"
         d="m 13018.8,9216 h 821.7 v 72.92 h -821.7 V 9216" /><path
         id="path572"
         style="fill:#b84548;fill-opacity:1;fill-rule:nonzero;stroke:none"
         d="m 13068.3,9288.92 h 722.7 v 337.95 h -722.7 v -337.95" /><path
         id="path574"
         style="fill:#912c30;fill-opacity:1;fill-rule:nonzero;stroke:none"
         d="m 13068.3,9457.9 h 722.7 v 96.16 h -722.7 v -96.16" /><path
         id="path576"
         style="fill:#ffffff;fill-opacity:1;fill-rule:nonzero;stroke:none"
         d="m 13018.8,9554.06 h 821.7 v 72.81 h -821.7 v -72.81" /><path
         id="path578"
         style="fill:#b84548;fill-opacity:1;fill-rule:nonzero;stroke:none"
         d="m 13068.3,9624.94 h 722.7 v 337.99 h -722.7 v -337.99" /><path
         id="path580"
         style="fill:#912c30;fill-opacity:1;fill-rule:nonzero;stroke:none"
         d="m 13068.3,9793.92 h 722.7 v 96.16 h -722.7 v -96.16" /><path
         id="path582"
         style="fill:#ffffff;fill-opacity:1;fill-rule:nonzero;stroke:none"
         d="m 13018.8,9890.08 h 821.7 v 72.85 h -821.7 v -72.85" /><path
         id="path584"
         style="fill:#b84548;fill-opacity:1;fill-rule:nonzero;stroke:none"
         d="m 13958.6,8950.8 h 722.7 v 338.12 h -722.7 V 8950.8" /><path
         id="path586"
         style="fill:#912c30;fill-opacity:1;fill-rule:nonzero;stroke:none"
         d="m 13958.6,9119.9 h 722.7 v 96.1 h -722.7 v -96.1" /><path
         id="path588"
         style="fill:#ffffff;fill-opacity:1;fill-rule:nonzero;stroke:none"
         d="m 13909.1,9216 h 821.7 v 72.92 h -821.7 V 9216" /><path
         id="path590"
         style="fill:#b84548;fill-opacity:1;fill-rule:nonzero;stroke:none"
         d="m 13958.6,9288.92 h 722.7 v 337.95 h -722.7 v -337.95" /><path
         id="path592"
         style="fill:#912c30;fill-opacity:1;fill-rule:nonzero;stroke:none"
         d="m 13958.6,9457.9 h 722.7 v 96.16 h -722.7 v -96.16" /><path
         id="path594"
         style="fill:#ffffff;fill-opacity:1;fill-rule:nonzero;stroke:none"
         d="m 13909.1,9554.06 h 821.7 v 72.81 h -821.7 v -72.81" /><path
         id="path596"
         style="fill:#b84548;fill-opacity:1;fill-rule:nonzero;stroke:none"
         d="m 13958.6,9624.94 h 722.7 v 337.99 h -722.7 v -337.99" /><path
         id="path598"
         style="fill:#912c30;fill-opacity:1;fill-rule:nonzero;stroke:none"
         d="m 13958.6,9793.92 h 722.7 v 96.16 h -722.7 v -96.16" /><path
         id="path600"
         style="fill:#ffffff;fill-opacity:1;fill-rule:nonzero;stroke:none"
         d="m 13909.1,9890.08 h 821.7 v 72.85 h -821.7 v -72.85" /><path
         id="path602"
         style="fill:#244562;fill-opacity:1;fill-rule:nonzero;stroke:none"
         d="M 10201.9,9929.93 H 9650.61 L 9542.4,9650.17 V 8950.8 h 284.71 198.29 284.7 v 699.37 l -108.2,279.76" /><path
         id="path604"
         style="fill:#244562;fill-opacity:1;fill-rule:nonzero;stroke:none"
         d="M 10025.4,9929.93 H 9650.61 L 9542.4,9650.17 h 767.7 l -108.2,279.76 h -176.5" /><path
         id="path606"
         style="fill:#fafdfb;fill-opacity:1;fill-rule:nonzero;stroke:none"
         d="m 10174.7,9271.98 h -512.85 v 226.68 h 512.85 v -226.68" /><path
         id="path608"
         style="fill:#244562;fill-opacity:1;fill-rule:nonzero;stroke:none"
         d="m 12005.6,9929.93 h -551.2 l -108.2,-279.76 V 8950.8 h 284.7 198.2 284.8 v 699.37 l -108.3,279.76" /><path
         id="path610"
         style="fill:#244562;fill-opacity:1;fill-rule:nonzero;stroke:none"
         d="m 11829.1,9929.93 h -374.7 l -108.2,-279.76 h 767.7 l -108.3,279.76 h -176.5" /><path
         id="path612"
         style="fill:#fafdfb;fill-opacity:1;fill-rule:nonzero;stroke:none"
         d="m 11978.5,9271.98 h -512.8 v 226.68 h 512.8 v -226.68" /><path
         id="path614"
         style="fill:#b04e3a;fill-opacity:1;fill-rule:nonzero;stroke:none"
         d="m 10236.8,11773.6 c -24.2,96.5 -158.9,197.5 -176.4,278.1 -17.4,80.5 -28.3,335.7 -28.3,335.7 H 9908.27 9784.4 c 0,0 -10.72,-255.2 -28.2,-335.7 -17.54,-80.6 -152.14,-181.6 -176.4,-278.1 -24.19,-96.6 0,-903.5 0,-903.5 h 328.47 328.53 c 0,0 24.2,806.9 0,903.5" /><path
         id="path616"
         style="fill:#983b2e;fill-opacity:1;fill-rule:nonzero;stroke:none"
         d="m 9908.27,10870.1 h 328.53 c 0,0 24.2,806.9 0,903.5 -24.2,96.5 -158.9,197.5 -176.4,278.1 -17.4,80.5 -28.3,335.7 -28.3,335.7 H 9908.27 9784.4 c 0,0 -3.54,-85 -9.94,-172.4 h 162.13 c 0,0 -14.47,-206.9 47.57,-365.5 62.14,-158.6 0,-910.4 0,-910.4 l -404.65,-58.6 c 0.22,-6.7 0.29,-10.4 0.29,-10.4 h 328.47" /><path
         id="path618"
         style="fill:#fafdfb;fill-opacity:1;fill-rule:nonzero;stroke:none"
         d="m 9735.9,12270.2 h 344.9 v 117.2 h -344.9 v -117.2" /><path
         id="path620"
         style="fill:#efbc23;fill-opacity:1;fill-rule:nonzero;stroke:none"
         d="m 10208.7,11256.3 h -610.73 v 420.7 h 610.73 v -420.7" /><path
         id="path622"
         style="fill:#b04e3a;fill-opacity:1;fill-rule:nonzero;stroke:none"
         d="m 11174.8,11773.6 c -24.2,96.5 -158.9,197.5 -176.3,278.1 -17.5,80.5 -28.4,335.7 -28.4,335.7 h -123.8 -123.8 c 0,0 -10.8,-255.2 -28.3,-335.7 -17.5,-80.6 -152.1,-181.6 -176.4,-278.1 -24.2,-96.6 0,-903.5 0,-903.5 h 328.5 328.5 c 0,0 24.3,806.9 0,903.5" /><path
         id="path624"
         style="fill:#983b2e;fill-opacity:1;fill-rule:nonzero;stroke:none"
         d="m 10846.3,10870.1 h 328.5 c 0,0 24.3,806.9 0,903.5 -24.2,96.5 -158.9,197.5 -176.3,278.1 -17.5,80.5 -28.4,335.7 -28.4,335.7 h -123.8 -123.8 c 0,0 -3.6,-85 -10,-172.4 h 162.1 c 0,0 -14.5,-206.9 47.6,-365.5 62.1,-158.6 0,-910.4 0,-910.4 l -404.7,-58.6 c 0.2,-6.7 0.3,-10.4 0.3,-10.4 h 328.5" /><path
         id="path626"
         style="fill:#fafdfb;fill-opacity:1;fill-rule:nonzero;stroke:none"
         d="m 10673.9,12270.2 h 344.8 v 117.2 h -344.8 v -117.2" /><path
         id="path628"
         style="fill:#efbc23;fill-opacity:1;fill-rule:nonzero;stroke:none"
         d="M 11146.7,11256.3 H 10536 v 420.7 h 610.7 v -420.7" /><path
         id="path630"
         style="fill:#eb86c8;fill-opacity:1;fill-rule:nonzero;stroke:none"
         d="m 14616,12323.5 h -244 l -122,-560.2 v -896.4 h 244 244.1 v 896.4 l -122.1,560.2" /><path
         id="path632"
         style="fill:#d563b8;fill-opacity:1;fill-rule:nonzero;stroke:none"
         d="m 14738.1,10866.9 v 896.4 l -122.1,560.2 h -244 l -40.3,-185.1 c 116.2,-179.4 300.7,-591.3 162.3,-1271.5 h 244.1" /><path
         id="path634"
         style="fill:#fdfde1;fill-opacity:1;fill-rule:nonzero;stroke:none"
         d="m 14336.2,12244.5 h 318.2 v 79 h -318.2 v -79" /><path
         id="path636"
         style="fill:#fdfde1;fill-opacity:1;fill-rule:nonzero;stroke:none"
         d="m 14715.6,11172.5 h -450.7 v 601 h 450.7 v -601" /><path
         id="path638"
         style="fill:#efbc23;fill-opacity:1;fill-rule:nonzero;stroke:none"
         d="m 14031.7,12323.5 h -244 l -122.1,-560.2 v -896.4 h 244.1 244.1 v 896.4 l -122.1,560.2" /><path
         id="path640"
         style="fill:#d3a01c;fill-opacity:1;fill-rule:nonzero;stroke:none"
         d="m 14153.8,10866.9 v 896.4 l -122.1,560.2 h -244 l -40.4,-185.1 c 116.3,-179.4 300.9,-591.3 162.4,-1271.5 h 244.1" /><path
         id="path642"
         style="fill:#fdfde1;fill-opacity:1;fill-rule:nonzero;stroke:none"
         d="m 13751.8,12244.5 h 318.3 v 79 h -318.3 v -79" /><path
         id="path644"
         style="fill:#fdfde1;fill-opacity:1;fill-rule:nonzero;stroke:none"
         d="m 14131.2,11172.5 h -450.7 v 601 h 450.7 v -601" /><path
         id="path646"
         style="fill:#eb86c8;fill-opacity:1;fill-rule:nonzero;stroke:none"
         d="m 13482.5,12323.5 h -244.1 l -122,-560.2 v -896.4 h 244.1 244.1 v 896.4 l -122.1,560.2" /><path
         id="path648"
         style="fill:#d563b8;fill-opacity:1;fill-rule:nonzero;stroke:none"
         d="m 13604.6,10866.9 v 896.4 l -122.1,560.2 h -244.1 l -40.3,-185.1 c 116.3,-179.4 300.8,-591.3 162.4,-1271.5 h 244.1" /><path
         id="path650"
         style="fill:#fdfde1;fill-opacity:1;fill-rule:nonzero;stroke:none"
         d="m 13202.6,12244.5 h 318.3 v 79 h -318.3 v -79" /><path
         id="path652"
         style="fill:#fdfde1;fill-opacity:1;fill-rule:nonzero;stroke:none"
         d="m 13582,11172.5 h -450.7 v 601 h 450.7 v -601" /><path
         id="path654"
         style="fill:#efbc23;fill-opacity:1;fill-rule:nonzero;stroke:none"
         d="m 12898.2,12323.5 h -244 l -122.1,-560.2 v -896.4 h 244.1 244.1 v 896.4 l -122.1,560.2" /><path
         id="path656"
         style="fill:#d3a01c;fill-opacity:1;fill-rule:nonzero;stroke:none"
         d="m 13020.3,10866.9 v 896.4 l -122.1,560.2 h -244 l -40.3,-185.1 c 116.2,-179.4 300.7,-591.3 162.3,-1271.5 h 244.1" /><path
         id="path658"
         style="fill:#fdfde1;fill-opacity:1;fill-rule:nonzero;stroke:none"
         d="m 12618.3,12244.5 h 318.3 v 79 h -318.3 v -79" /><path
         id="path660"
         style="fill:#fdfde1;fill-opacity:1;fill-rule:nonzero;stroke:none"
         d="M 12997.7,11172.5 H 12547 v 601 h 450.7 v -601" /><path
         id="path662"
         style="fill:#eb86c8;fill-opacity:1;fill-rule:nonzero;stroke:none"
         d="m 12349,12323.5 h -244.1 l -122,-560.2 v -896.4 h 244.1 244 v 896.4 l -122,560.2" /><path
         id="path664"
         style="fill:#d563b8;fill-opacity:1;fill-rule:nonzero;stroke:none"
         d="m 12471,10866.9 v 896.4 l -122,560.2 h -244.1 l -40.3,-185.1 c 116.3,-179.4 300.8,-591.3 162.4,-1271.5 h 244" /><path
         id="path666"
         style="fill:#fdfde1;fill-opacity:1;fill-rule:nonzero;stroke:none"
         d="m 12069.1,12244.5 h 318.3 v 79 h -318.3 v -79" /><path
         id="path668"
         style="fill:#fdfde1;fill-opacity:1;fill-rule:nonzero;stroke:none"
         d="m 12448.5,11172.5 h -450.7 v 601 h 450.7 v -601" /><path
         id="path670"
         style="fill:#efbc23;fill-opacity:1;fill-rule:nonzero;stroke:none"
         d="m 11764.7,12323.5 h -244.1 l -122.1,-560.2 v -896.4 h 244.1 244.1 v 896.4 l -122,560.2" /><path
         id="path672"
         style="fill:#d3a01c;fill-opacity:1;fill-rule:nonzero;stroke:none"
         d="m 11886.7,10866.9 v 896.4 l -122,560.2 h -244.1 l -40.3,-185.1 c 116.2,-179.4 300.8,-591.3 162.3,-1271.5 h 244.1" /><path
         id="path674"
         style="fill:#fdfde1;fill-opacity:1;fill-rule:nonzero;stroke:none"
         d="m 11484.8,12244.5 h 318.3 v 79 h -318.3 v -79" /><path
         id="path676"
         style="fill:#fdfde1;fill-opacity:1;fill-rule:nonzero;stroke:none"
         d="m 11864.2,11172.5 h -450.7 v 601 h 450.7 v -601" /><path
         id="path678"
         style="fill:#6884b2;fill-opacity:1;fill-rule:nonzero;stroke:none"
         d="M 12477.5,9508.61 H 14059 v 562.09 h -1581.5 v -562.09" /><g
         transform="scale(1.05526)"
         id="g680"><path
           id="path682"
           style="fill:#dd6958;fill-opacity:1;fill-rule:nonzero;stroke:none"
           d="m 15564.6,9770.13 c 0,0 -476.6,-948.65 -340.9,-1046.1 239.9,-172.47 400.8,-24.64 782.9,875.75 293.4,691.42 -442,170.35 -442,170.35" /></g><g
         transform="scale(1.22921)"
         id="g684"><path
           id="path686"
           style="fill:#f78e73;fill-opacity:1;fill-rule:nonzero;stroke:none"
           d="m 15859.1,8661.88 c 0,0 440.9,-1172.3 233.1,-3250.86 h -214.8 c 0,0 -43.6,1926.75 -308.4,2776.37 l 290.1,474.49" /></g><g
         transform="scale(1.21383)"
         id="g688"><path
           id="path690"
           style="fill:#dd6958;fill-opacity:1;fill-rule:nonzero;stroke:none"
           d="m 16300,7584.31 -392.3,45.86 c -21.8,142.22 -46.4,277.93 -73.8,401.99 l 375.8,156.26 c 32.5,-167.09 64.7,-369.08 90.3,-604.11" /></g><g
         transform="scale(1.09216)"
         id="g692"><path
           id="path694"
           style="fill:#ef303e;fill-opacity:1;fill-rule:nonzero;stroke:none"
           d="m 15406.7,3974.05 c 17.8,-282.65 75.7,-1160.27 107.6,-1641.15 h 784.1 c -24,452.31 -75.5,1294.68 -75.5,1817.69 0,513.47 77.1,2050.98 77.1,2050.98 -401,263.6 -868.6,508.17 -845.9,441.78 22.6,-66.29 -74.7,-1159.54 -74.7,-1562.13 0,-480.06 0,-675.09 27.3,-1107.17" /></g><g
         transform="scale(1.16858)"
         id="g696"><path
           id="path698"
           style="fill:#ef303e;fill-opacity:1;fill-rule:nonzero;stroke:none"
           d="m 15545.7,2180.35 h 754.3 c -44,568.72 -126.6,1552.23 -120.8,1779.17 10.5,408.96 95.6,2169.73 95.6,2169.73 -374.9,246.28 -1090,30.04 -1068.8,-31.92 21.2,-62.04 153.1,-2161 178.5,-2564.83 15.1,-239.01 101.6,-907.34 161.2,-1352.15" /></g><g
         transform="scale(1.04024)"
         id="g700"><path
           id="path702"
           style="fill:#d9effa;fill-opacity:1;fill-rule:nonzero;stroke:none"
           d="m 16223,10608.2 c 0,0 -96.8,-40.5 -266.6,-145.8 -169.7,-105.4 -429,-771.21 -429.6,-769.91 -0.7,1.24 773.2,-205.65 773.2,-205.65 l -77,1121.36" /></g><g
         transform="scale(1.17108)"
         id="g704"><path
           id="path706"
           style="fill:#ef303e;fill-opacity:1;fill-rule:nonzero;stroke:none"
           d="m 14345.3,6692.11 c 0,0 -82.6,-865.01 746.7,-1255.67 146.4,-69 398.3,-12.47 426.7,2.9 28.2,15.45 661.1,542.75 721.3,676.81 60,133.81 -4.5,649.4 -4.5,649.4 l -1890.2,-73.44" /></g><g
         transform="scale(1.17804)"
         id="g708"><path
           id="path710"
           style="fill:#d9effa;fill-opacity:1;fill-rule:nonzero;stroke:none"
           d="m 15627.8,9566.09 c 0,0 214.2,-88.35 598.1,-147.04 74.1,-11.32 73.9,-399.83 56.8,-680.69 -17.2,-280.88 -77.6,-632.59 -76.2,-826.19 1.2,-193.82 67.8,-1365.94 13.5,-1493.27 -54.4,-127.5 -341.9,-51.44 -497,-103.05 -155.1,-51.7 -435.9,-204.67 -700.5,-95.59 -264.8,109.26 -375.1,93.72 -522,65.37 -147,-28.35 -278.7,28.26 -316.1,140.4 -37.6,111.97 119.4,1376.02 126.3,1578.28 6.9,202.27 -37.7,638.7 -64.8,841.34 -27,202.58 -69.3,365.53 29.7,482.66 99.2,117.06 582.3,198.5 652.8,221.11 70.5,22.51 699.4,16.67 699.4,16.67" /></g><g
         transform="scale(1.17967)"
         id="g712"><path
           id="path714"
           style="fill:#ef303e;fill-opacity:1;fill-rule:nonzero;stroke:none"
           d="m 16017.3,9438.95 c 0,0 -587,-1549.27 177.6,-1850.16 0,0 105.1,-1200.84 -81.4,-1686.48 l -1814,-60.78 c 0,0 -155.2,468.52 -140.7,693.24 14.4,224.72 84.5,1866.17 117,1919.77 32.5,53.57 27.1,800.99 150.3,954.53 l 180.6,55.83 c 0,0 -114.6,-836.28 49.5,-956.79 0,0 687.3,-41.54 854.7,75.31 145.9,101.66 309.1,905.36 309.1,905.36 l 197.3,-49.83" /></g><g
         transform="scale(1.08952)"
         id="g716"><path
           id="path718"
           style="fill:#1a2444;fill-opacity:1;fill-rule:nonzero;stroke:none"
           d="m 15961.5,11284.1 c 0,0 69.1,-168.9 0,-269.7 0,0 55.8,-24.3 72.1,0 0,0 -35.5,-73.2 -102,-84.3 0,0 177.6,-60 272.9,37.8 95.5,97.9 -155.8,366.2 -155.8,366.2 l -87.2,-50" /></g><g
         transform="scale(1.14493)"
         id="g720"><path
           id="path722"
           style="fill:#1a2444;fill-opacity:1;fill-rule:nonzero;stroke:none"
           d="m 16267.6,10725.4 c 0,0 -58.2,-241.4 32.4,-324.3 0,0 -72,-19 -122.6,25.7 0,0 24.2,-61.5 72.1,-77.3 0,0 -143.5,-6.1 -200.4,110.6 -56.9,116.7 125.5,325.5 125.5,325.5 l 93,-60.2" /></g><g
         transform="scale(1.14266)"
         id="g724"><path
           id="path726"
           style="fill:#f78e73;fill-opacity:1;fill-rule:nonzero;stroke:none"
           d="m 15514.7,10496 h 245 244.8 c 0,0 -15.4,-583.16 295.5,-699.82 0,0 -218.8,-217.67 -540.3,-217.67 -260.6,7.74 -540.4,217.67 -540.4,217.67 310.9,116.66 295.4,699.82 295.4,699.82" /></g><g
         transform="scale(1.13116)"
         id="g728"><path
           id="path730"
           style="fill:#dd6958;fill-opacity:1;fill-rule:nonzero;stroke:none"
           d="m 15672.4,10573.8 c 159.6,6.7 334.4,14 494.7,20.6 -0.3,-54.3 3.6,-365.1 132.9,-559.9 -371,-72.87 -587.5,49.4 -691.9,141.5 55.2,157.2 63.4,330.6 64.3,397.8" /></g><g
         transform="scale(1.14139)"
         id="g732"><path
           id="path734"
           style="fill:#f78e73;fill-opacity:1;fill-rule:nonzero;stroke:none"
           d="m 16300,10928 c 0,-382.6 -279.7,-692.8 -522.8,-692.8 -243.1,0 -522.9,310.2 -522.9,692.8 0,382.6 134.3,692.8 522.9,692.8 388.5,0 522.8,-310.2 522.8,-692.8" /></g><g
         transform="scale(1.15455)"
         id="g736"><path
           id="path738"
           style="fill:#f78e73;fill-opacity:1;fill-rule:nonzero;stroke:none"
           d="m 16280.4,10740.5 c -19.6,-85.6 -87.5,-143.1 -151.8,-128.5 -64.2,14.7 -100.3,96.1 -80.7,181.7 19.6,85.7 87.5,143.1 151.8,128.5 64.2,-14.7 100.3,-96.1 80.7,-181.7" /></g><g
         transform="scale(1.07425)"
         id="g740"><path
           id="path742"
           style="fill:#f78e73;fill-opacity:1;fill-rule:nonzero;stroke:none"
           d="m 16029,11543.4 c 21.2,-92 94.1,-153.8 163.1,-138.1 69.1,15.8 107.9,103.3 86.9,195.3 -21.2,92.1 -94.1,153.8 -163.2,138.1 -69,-15.8 -107.8,-103.3 -86.8,-195.3" /></g><g
         transform="scale(1.06907)"
         id="g744"><path
           id="path746"
           style="fill:none;stroke:#c1574d;stroke-width:24.9321003;stroke-linecap:round;stroke-linejoin:miter;stroke-miterlimit:10;stroke-dasharray:none;stroke-opacity:1"
           d="m 16172.5,11739.2 c 0,0 77.6,18.1 127.5,-188.3" /></g><g
         transform="scale(1.14865)"
         id="g748"><path
           id="path750"
           style="fill:none;stroke:#c1574d;stroke-width:23.20490074;stroke-linecap:round;stroke-linejoin:miter;stroke-miterlimit:10;stroke-dasharray:none;stroke-opacity:1"
           d="m 16300,10925.9 c 0,0 -72.2,16.8 -118.6,-175.2" /></g><g
         transform="scale(1.12991)"
         id="g752"><path
           id="path754"
           style="fill:#1a2444;fill-opacity:1;fill-rule:nonzero;stroke:none"
           d="m 16082.2,11236.1 c 21.2,10.3 40,14.5 60.7,16.6 20.4,1.8 41,0.4 60.4,-5.2 19.1,-5.7 37.6,-13.6 53.1,-25.4 16,-10.9 29.2,-24.8 41.5,-38.8 2.1,-2.5 1.8,-6.4 -0.6,-8.5 -2.3,-2 -5.6,-2 -7.8,-0.2 l -0.4,0.3 c -13.7,11.4 -27.9,22 -43.4,29.3 -15.3,8.1 -32,12 -48.2,14.1 -16.3,1.9 -32.7,0.3 -48.3,-3.7 -15.1,-3.8 -31.5,-11.3 -42,-18.8 l -0.8,-0.6 c -10.7,-7.7 -25.6,-5.2 -33.3,5.5 -7.7,10.7 -5.2,25.6 5.5,33.3 1.1,0.8 2.4,1.6 3.6,2.1" /></g><g
         transform="scale(1.09562)"
         id="g756"><path
           id="path758"
           style="fill:#1a2444;fill-opacity:1;fill-rule:nonzero;stroke:none"
           d="m 16259.4,11544.9 c -11.3,6.4 -28.7,12.2 -44.4,15 -16.2,2.9 -33,3.9 -49.8,1.9 -33.7,-3.3 -66.9,-17 -96.2,-37.6 -2.7,-2 -6.7,-1.4 -8.8,1.4 -1.7,2.5 -1.3,6 0.8,8.1 26.6,26.3 60,47.8 98.3,58.3 19.1,5.5 39.2,7.8 59.3,7.5 20.6,-0.5 39.5,-2.6 61.8,-10.4 12.8,-4.5 19.6,-18.5 15.1,-31.4 -4.4,-12.8 -18.5,-19.6 -31.3,-15.1 -1.4,0.5 -2.7,1.1 -3.9,1.8 l -0.9,0.5" /></g><g
         transform="scale(1.12423)"
         id="g760"><path
           id="path762"
           style="fill:#561826;fill-opacity:1;fill-rule:nonzero;stroke:none"
           d="m 16300,11118.9 c 0,-24.8 -20.2,-44.9 -44.9,-44.9 -24.9,0 -44.9,20.1 -44.9,44.9 0,24.7 20,44.8 44.9,44.8 24.7,0 44.9,-20.1 44.9,-44.8" /></g><g
         transform="scale(1.0923)"
         id="g764"><path
           id="path766"
           style="fill:#561826;fill-opacity:1;fill-rule:nonzero;stroke:none"
           d="m 16300,11443.9 c 0,-25.6 -20.8,-46.2 -46.2,-46.2 -25.5,0 -46.2,20.6 -46.2,46.2 0,25.5 20.7,46.1 46.2,46.1 25.4,0 46.2,-20.6 46.2,-46.1" /></g><g
         transform="scale(1.13247)"
         id="g768"><path
           id="path770"
           style="fill:#f57868;fill-opacity:1;fill-rule:nonzero;stroke:none"
           d="m 16300,10856.1 c 0,-66.7 -54.1,-120.8 -120.9,-120.8 -66.7,0 -120.9,54.1 -120.9,120.8 0,66.9 54.2,120.9 120.9,120.9 66.8,0 120.9,-54 120.9,-120.9" /></g><g
         transform="scale(1.0945)"
         id="g772"><path
           id="path774"
           style="fill:#f57868;fill-opacity:1;fill-rule:nonzero;stroke:none"
           d="m 16300,11232.8 c 0,-69.1 -55.9,-125.1 -125,-125.1 -69.2,0 -125.1,56 -125.1,125.1 0,69.1 55.9,125 125.1,125 69.1,0 125,-55.9 125,-125" /></g><g
         transform="scale(1.10233)"
         id="g776"><path
           id="path778"
           style="fill:none;stroke:#c1574d;stroke-width:24.18009949;stroke-linecap:round;stroke-linejoin:miter;stroke-miterlimit:10;stroke-dasharray:none;stroke-opacity:1"
           d="m 16242.4,11402.6 c 0,0 57.6,-150.7 37.6,-215 -20.1,-64.4 -72.5,-123.6 -67.2,-137 l 67.2,-56.3" /></g><g
         transform="scale(1.11964)"
         id="g780"><path
           id="path782"
           style="fill:#f78e73;fill-opacity:1;fill-rule:nonzero;stroke:none"
           d="m 15944.9,10745.5 c 0,0 120.9,-10 174.5,0 53.6,9.9 104.8,7.5 122.8,-23.8 18.1,-31.4 57.8,-156.8 -15.6,-184.5 -73.4,-27.8 -109.5,-8 -143,13.9 -33.6,21.8 -53.4,19.8 -77.3,9.9 -23.7,-9.9 -25.6,-49.1 -72.3,-37.5 -46.6,11.7 -100.2,33.5 -92.3,87.1 8,53.5 57.5,137.7 103.2,134.9" /></g><g
         transform="scale(1.11236)"
         id="g784"><path
           id="path786"
           style="fill:none;stroke:#c1574d;stroke-width:23.96199989;stroke-linecap:round;stroke-linejoin:miter;stroke-miterlimit:10;stroke-dasharray:none;stroke-opacity:1"
           d="m 16025.1,10810 c 0,0 135.2,-97.9 274.9,0" /></g><g
         transform="scale(1.16144)"
         id="g788"><path
           id="path790"
           style="fill:#1a2444;fill-opacity:1;fill-rule:nonzero;stroke:none"
           d="m 16018.5,10836.5 c 0,0 0.5,-76.2 -57.7,-79.9 -58.2,-3.7 -48,-4.8 -37.7,79.9 10.1,84.7 22.4,195.2 -29.7,244.5 -52.1,49.3 -134.2,90 -139,130.8 0,0 -402.5,-293.3 -629.5,-228.3 0,0 203.8,112.4 222.9,149.9 0,0 -270.5,-143.5 -334.6,-149.9 0,0 19.1,-167.2 33.1,-220.9 14.2,-53.7 -77.1,12.7 -105.1,95.8 -28,83.1 -196.2,222.6 -45.7,486 128.2,224.5 411,376.5 609.3,357 311.1,-30.5 795.2,-282.3 598.8,-844 l -85.1,-20.9" /></g><g
         transform="scale(1.22314)"
         id="g792"><path
           id="path794"
           style="fill:#d9effa;fill-opacity:1;fill-rule:nonzero;stroke:none"
           d="m 15627.6,9071.72 c 0,0 -273.4,-141.61 -247.3,-435.76 26.3,-294.25 244.1,-828.18 309.6,-849.89 65.3,-21.84 414,98.02 512.1,206.96 98,108.98 -353.5,1144.07 -574.4,1078.69" /></g><g
         transform="scale(1.22669)"
         id="g796"><path
           id="path798"
           style="fill:#f78e73;fill-opacity:1;fill-rule:nonzero;stroke:none"
           d="m 16115.2,5545.23 c 0,0 137.6,-101.24 159.4,-159.37 0,0 25.4,-235.35 -10.9,-300.56 0,0 -38.6,-39.87 -93.6,0 0,0 -69.3,-75.33 -130.9,-17.69 0,0 -65.2,-54.7 -112.3,6.76 0,0 -61.6,-54.21 -90.5,7.42 0,0 13.3,201.44 -28.9,220.68 -32.7,15 -91.4,-44.84 -92.6,15 -1.9,104.67 139.6,184.4 215.6,206.16 76.1,21.6 184.7,21.6 184.7,21.6" /></g><g
         transform="scale(1.17047)"
         id="g800"><path
           id="path802"
           style="fill:none;stroke:#38498c;stroke-width:22.77230072;stroke-linecap:round;stroke-linejoin:miter;stroke-miterlimit:10;stroke-dasharray:none;stroke-opacity:1"
           d="m 16300,8260.18 c 0,0 -532.4,847.85 -45.1,1167.72" /></g><g
         transform="scale(1.01069)"
         id="g804"><path
           id="path806"
           style="fill:#f78e73;fill-opacity:1;fill-rule:nonzero;stroke:none"
           d="m 16011,9408.06 -1544.7,-433.37 72.4,-216.99 c 0,0 1321.1,151.78 1510.7,210.16 189.4,58.37 250.6,356.35 -38.4,440.2" /></g><g
         transform="scale(1.15337)"
         id="g808"><path
           id="path810"
           style="fill:#ef303e;fill-opacity:1;fill-rule:nonzero;stroke:none"
           d="m 16249.2,11301.7 c 0,0 -1035.1,66.4 -1282.5,54.5 0,0 68.6,550.5 573,527.4 0,0 394.2,-46.2 510.9,-61.7 116.9,-15.4 249.4,-324.1 198.6,-520.2" /></g><g
         transform="scale(1.14447)"
         id="g812"><path
           id="path814"
           style="fill:#d02129;fill-opacity:1;fill-rule:nonzero;stroke:none"
           d="m 16300,11394.3 c 0,0 -587.7,-140.3 -933.8,-124.8 -346.2,15.6 -606.4,11.4 -567.6,120.1 38.9,108.7 308.4,159.4 308.4,159.4 0,0 617.6,249.5 1193,-154.7" /></g><path
         id="path816"
         style="fill:#f78e73;fill-opacity:1;fill-rule:nonzero;stroke:none"
         d="m 14684.5,9042.4 c 0,0 -97.7,89.6 -337.6,0 -239.8,-89.6 -559.7,-347.2 -506.4,-409.4 53.3,-62.1 408.7,35.4 550.8,88.9 0,0 -115.5,-133.3 -79.9,-160 35.5,-26.6 168.8,133.3 231,168.9 62.2,35.5 213.2,115.4 248.7,195.3" /><g
         transform="scale(1.25715)"
         id="g818"><path
           id="path820"
           style="fill:#5166aa;fill-opacity:1;fill-rule:nonzero;stroke:none"
           d="m 16300,2026.72 v 4169.5 H 4681.2 V 2026.72 H 16300" /></g><g
         transform="scale(1.15802)"
         id="g822"><path
           id="path824"
           style="fill:#3f5796;fill-opacity:1;fill-rule:nonzero;stroke:none"
           d="M 16300,5259.76 V 2516.54 h -2067.2 v 2743.22 l 270.3,-23.66 c 0,0 -131.7,-1039.1 680.4,-1062.16 0,0 971.9,-61.22 926.6,1085.82 h 189.9" /></g><g
         transform="scale(1.25715)"
         id="g826"><path
           id="path828"
           style="fill:#3f5796;fill-opacity:1;fill-rule:nonzero;stroke:none"
           d="M 16300,4381.41 4681.2,5379.37 v 816.85 H 16300 V 4381.41" /></g><g
         transform="scale(1.2855)"
         id="g830"><path
           id="path832"
           style="fill:#6878c4;fill-opacity:1;fill-rule:nonzero;stroke:none"
           d="M 4218.6,5653.53 H 16300 v 811.99 H 4218.6 v -811.99" /></g><path
         id="path834"
         style="fill:#92acd0;fill-opacity:1;fill-rule:nonzero;stroke:none"
         d="m 12122.1,8311.4 h 2669 v 1208.94 h -2669 V 8311.4" /><path
         id="path836"
         style="fill:#6884b2;fill-opacity:1;fill-rule:nonzero;stroke:none"
         d="m 14312.9,8311.4 h 478.2 v 1208.94 h -478.2 V 8311.4" /><path
         id="path838"
         style="fill:#6884b2;fill-opacity:1;fill-rule:nonzero;stroke:none"
         d="m 14059,9042.4 h -1777 v 233.85 h 1777 V 9042.4" /><path
         id="path840"
         style="fill:#4f6e96;fill-opacity:1;fill-rule:nonzero;stroke:none"
         d="m 14059,9520.34 h 373.2 v 550.36 H 14059 v -550.36" /><path
         id="path842"
         style="fill:#4f6e96;fill-opacity:1;fill-rule:nonzero;stroke:none"
         d="m 13579.2,10817.1 h -311 v -746.4 h 311 v 746.4" /><path
         id="path844"
         style="fill:#3c5a7c;fill-opacity:1;fill-rule:nonzero;stroke:none"
         d="m 13579.2,10070.7 h 142.2 v 746.4 h -142.2 v -746.4" /><path
         id="path846"
         style="fill:#3c5a7c;fill-opacity:1;fill-rule:nonzero;stroke:none"
         d="m 14131.9,10508.7 h -1350.5 v 526.4 h 1350.5 v -526.4" /><path
         id="path848"
         style="fill:#28435e;fill-opacity:1;fill-rule:nonzero;stroke:none"
         d="m 13961.2,10508.7 h 170.7 v 526.4 h -170.7 v -526.4" /><path
         id="path850"
         style="fill:#54b5e9;fill-opacity:1;fill-rule:nonzero;stroke:none"
         d="m 13872.4,10630.4 h -995 v 314.5 h 995 v -314.5" /><g
         transform="scale(1.20707)"
         id="g852"><path
           id="path854"
           style="fill:#7bb6c1;fill-opacity:1;fill-rule:nonzero;stroke:none"
           d="M 9990.49,4971.97 H 16300 V 5150 H 9990.49 v -178.03" /></g><g
         transform="scale(1.14002)"
         id="g856"><path
           id="path858"
           style="fill:#faf9fb;fill-opacity:1;fill-rule:nonzero;stroke:none"
           d="M 16300,5452.87 V 2666.43 h -2099.7 v 2786.44 l 274.6,-24.13 c 0,0 -133.9,-1055.5 691.1,-1078.83 0,0 987.2,-62.19 941.1,1102.96 h 192.9" /></g></g></g></svg>